<svg id="Layer_1" data-name="Layer 1" xmlns="http://www.w3.org/2000/svg" viewBox="0 0 503 70.16"><defs><style>.cls-1,.cls-3{font-size:55.29px;fill:#006080;font-family:ITCAvantGardeStd-Bold, ITC Avant Garde Gothic Std;font-weight:700;}.cls-1{letter-spacing:0em;}.cls-2{letter-spacing:0em;}.cls-3{letter-spacing:-0.05em;}.cls-4{fill:#e91a47;}</style></defs><text class="cls-1" transform="translate(92.77 53.48)">pet</text><text class="cls-1" transform="translate(217.5 53.48)">pet<tspan class="cls-2" x="92.83" y="0"> </tspan></text><text class="cls-3" transform="translate(340.63 53.48)">goose</text><path class="cls-4" d="M228.58,73.91a3.52,3.52,0,0,0-3,1.49,3.52,3.52,0,0,0-3-1.49,3.31,3.31,0,0,0-3.28,3.27c0,4.07,6.28,7.33,6.28,7.33s6.28-3.26,6.28-7.33A3.31,3.31,0,0,0,228.58,73.91Z" transform="translate(-25 -39.52)"/><path class="cls-4" d="M352.35,73.91a3.52,3.52,0,0,0-3,1.49,3.52,3.52,0,0,0-3-1.49,3.3,3.3,0,0,0-3.27,3.27c0,4.07,6.27,7.33,6.27,7.33s6.28-3.26,6.28-7.33A3.31,3.31,0,0,0,352.35,73.91Z" transform="translate(-25 -39.52)"/><path class="cls-4" d="M86.39,39.52c-13.94,0-19.85,9.88-19.85,9.88s-5.91-9.88-19.85-9.88A21.89,21.89,0,0,0,25,61.12c0,27,41.54,48.56,41.54,48.56s41.54-21.6,41.54-48.56A21.89,21.89,0,0,0,86.39,39.52Zm4.29,43A54.57,54.57,0,0,0,80.9,69.18a10.36,10.36,0,0,1-5.68,3.11c.55-.59,4.82-4.2,5.63-7.27.23-.88-.38-2.85-4.08-4.55a10.15,10.15,0,0,0-7.19-.67,10.73,10.73,0,0,0-10-.49c-2.64,1.25-3.55,4.1-4.78,5-.95.68-1.72,2.19-1.31,3.19a3.23,3.23,0,0,1-.87,3.17c-.47.41-2.87,2.69-4.44,4.37a8.7,8.7,0,0,0-1.75,2.28c-.22,1,1.55,1.87,1.55,1.87s-.2,3.13.84,4.11,2.88.71,3.5,1.06a5.63,5.63,0,0,0,4.08.6,44.37,44.37,0,0,1-.19-4.86s.47-2.32,3.17-.38c.42.3,3.73,3.52,4.15,4.06.21.27.32.44.32.44a10.1,10.1,0,0,1,2.54-.72,13.86,13.86,0,0,1,5.13.13s4-5.25,5.13-5.38c1.42-.17.36,5.41-.53,7.68a11,11,0,0,0,0,3.93c.74,2,1.25,4.4-.34,6.25-2,2.27-5.77,4.78-9.53,6.89-3.52-2.11-38.54-23.88-27.78-46.44a16.29,16.29,0,0,1,15-8.75c10.14.38,12.92,7.09,13.08,7.52.16-.43,2.94-7.14,13.09-7.52a16.29,16.29,0,0,1,15,8.75C98.82,65.45,95.94,75.24,90.68,82.51Z" transform="translate(-25 -39.52)"/></svg>