<svg id="Layer_1" data-name="Layer 1" xmlns="http://www.w3.org/2000/svg" viewBox="0 0 483 70.16"><defs><style>.cls-1{fill:#006080;}.cls-2{fill:#e91a47;}</style></defs><path class="cls-1" d="M121.08,62.31h8.63v3.37a12.27,12.27,0,0,1,9.73-4.43c10.9,0,15,9.57,15,16.71,0,8.84-6.19,16.09-14.93,16.09a11.77,11.77,0,0,1-9.24-3.82v13h-9.18Zm24.17,15.31A7.71,7.71,0,0,0,132,72.15a8.07,8.07,0,0,0-2.15,5.58,7.69,7.69,0,1,0,15.37,0Z" transform="translate(-25 -39.52)"/><path class="cls-1" d="M165.76,80.83c.39,3.26,3.48,5.42,7.08,5.42a6.16,6.16,0,0,0,5.58-2.88h9.4a18,18,0,0,1-6.24,7.86A15,15,0,0,1,172.84,94a16.29,16.29,0,0,1-16.26-16.26c0-8.57,6.75-16.48,16.09-16.48a15.69,15.69,0,0,1,11.61,4.87c3.88,4.15,5,9.07,4.32,14.71Zm13.82-7c-.22-1.43-2.1-4.86-6.85-4.86s-6.64,3.43-6.86,4.86Z" transform="translate(-25 -39.52)"/><path class="cls-1" d="M194.4,69.27h-4.53v-7h4.53V52.08h9.18V62.31H208v7h-4.42V93H194.4Z" transform="translate(-25 -39.52)"/><path class="cls-1" d="M234.82,62.31h8.62v3.37a12.29,12.29,0,0,1,9.74-4.43c10.89,0,15,9.57,15,16.71,0,8.84-6.19,16.09-14.93,16.09A11.72,11.72,0,0,1,244,90.23v13h-9.18ZM259,77.62a7.66,7.66,0,0,0-7.68-7.79,7.56,7.56,0,0,0-5.53,2.32,8,8,0,0,0-2.16,5.58,7.69,7.69,0,1,0,15.37,0Z" transform="translate(-25 -39.52)"/><path class="cls-1" d="M279.49,80.83c.39,3.26,3.49,5.42,7.08,5.42a6.19,6.19,0,0,0,5.59-2.88h9.4a18.07,18.07,0,0,1-6.25,7.86A15,15,0,0,1,286.57,94a16.29,16.29,0,0,1-16.26-16.26c0-8.57,6.75-16.48,16.09-16.48A15.73,15.73,0,0,1,298,66.12c3.87,4.15,5,9.07,4.31,14.71Zm13.83-7c-.22-1.43-2.11-4.86-6.86-4.86s-6.64,3.43-6.86,4.86Z" transform="translate(-25 -39.52)"/><path class="cls-1" d="M308.13,69.27H303.6v-7h4.53V52.08h9.18V62.31h4.43v7h-4.43V93h-9.18Z" transform="translate(-25 -39.52)"/><path class="cls-1" d="M380.75,89.29c0,4.59-.33,7.52-1.83,10.12-2.38,3.87-8,7.24-15.54,7.24-10.67,0-14.71-6.41-15.31-10.78h10.61a5,5,0,0,0,2.94,2.66,7.59,7.59,0,0,0,2.43.38c3.48,0,7.46-2.15,7.46-7.46V89.62A9.56,9.56,0,0,1,363,94c-8.35,0-15.49-6.3-15.49-16.15,0-10.5,7.52-16.53,15.49-16.53,3.43,0,6.8,1.22,8.57,3.87V62.31h9.18ZM356.69,77.57c0,4.86,3.54,7.85,7.36,7.85a7.27,7.27,0,0,0,5.36-2.1A8.14,8.14,0,0,0,371.57,78a8.56,8.56,0,0,0-1.94-5.75,6.83,6.83,0,0,0-5.53-2.38,7.46,7.46,0,0,0-7.41,7.63Z" transform="translate(-25 -39.52)"/><path class="cls-1" d="M383.07,77.57c0-7.47,5.36-16.26,16.53-16.26s16.53,8.79,16.53,16.31-5.36,16.32-16.53,16.32-16.53-8.8-16.53-16.32Zm9.18.11a7.78,7.78,0,1,0,0-.06Z" transform="translate(-25 -39.52)"/><path class="cls-1" d="M417.12,77.57c0-7.47,5.37-16.26,16.54-16.26s16.53,8.79,16.53,16.31-5.36,16.32-16.53,16.32-16.54-8.8-16.54-16.32Zm9.18.11a7.78,7.78,0,1,0,0-.06Z" transform="translate(-25 -39.52)"/><path class="cls-1" d="M465.67,70.93c-.06-.66-.17-2.32-2.88-2.32-1.93,0-2.59,1.22-2.59,2,0,1.38,2.26,2.32,4.7,3,5.19,1.43,10.72,3,10.72,9.62s-5.69,10.73-12.49,10.73c-4.65,0-11.67-2.1-12.5-10.18h9.12a3.27,3.27,0,0,0,3.49,2.82c1.55,0,3.2-.88,3.2-2.38,0-2.1-2.26-2.37-8.12-4.64-4-1.27-7.3-3.87-7.3-8,0-6.36,5.53-10.4,11.89-10.4,4,0,11,1.61,11.77,9.68Z" transform="translate(-25 -39.52)"/><path class="cls-1" d="M485,80.83c.39,3.26,3.49,5.42,7.08,5.42a6.19,6.19,0,0,0,5.59-2.88H507a18,18,0,0,1-6.25,7.86A14.93,14.93,0,0,1,492,94a16.28,16.28,0,0,1-16.25-16.26c0-8.57,6.74-16.48,16.09-16.48a15.71,15.71,0,0,1,11.61,4.87c3.87,4.15,5,9.07,4.31,14.71Zm13.83-7c-.22-1.43-2.1-4.86-6.86-4.86s-6.63,3.43-6.85,4.86Z" transform="translate(-25 -39.52)"/><path class="cls-2" d="M221.58,73.91a3.52,3.52,0,0,0-3,1.49,3.52,3.52,0,0,0-3-1.49,3.31,3.31,0,0,0-3.28,3.27c0,4.07,6.28,7.33,6.28,7.33s6.28-3.26,6.28-7.33A3.31,3.31,0,0,0,221.58,73.91Z" transform="translate(-25 -39.52)"/><path class="cls-2" d="M336.35,73.91a3.52,3.52,0,0,0-3,1.49,3.52,3.52,0,0,0-3-1.49,3.3,3.3,0,0,0-3.27,3.27c0,4.07,6.27,7.33,6.27,7.33s6.28-3.26,6.28-7.33A3.31,3.31,0,0,0,336.35,73.91Z" transform="translate(-25 -39.52)"/><path class="cls-2" d="M86.39,39.52c-13.94,0-19.85,9.88-19.85,9.88s-5.91-9.88-19.85-9.88A21.89,21.89,0,0,0,25,61.12c0,27,41.54,48.56,41.54,48.56s41.54-21.6,41.54-48.56A21.89,21.89,0,0,0,86.39,39.52Zm4.29,43A54.57,54.57,0,0,0,80.9,69.18a10.36,10.36,0,0,1-5.68,3.11c.55-.59,4.82-4.2,5.63-7.27.23-.88-.38-2.85-4.08-4.55a10.15,10.15,0,0,0-7.19-.67,10.73,10.73,0,0,0-10-.49c-2.64,1.25-3.55,4.1-4.78,5-.95.68-1.72,2.19-1.31,3.19a3.23,3.23,0,0,1-.87,3.17c-.47.41-2.87,2.69-4.44,4.37a8.7,8.7,0,0,0-1.75,2.28c-.22,1,1.55,1.87,1.55,1.87s-.2,3.13.84,4.11,2.88.71,3.5,1.06a5.63,5.63,0,0,0,4.08.6,44.37,44.37,0,0,1-.19-4.86s.47-2.32,3.17-.38c.42.3,3.73,3.52,4.15,4.06.21.27.32.44.32.44a10.1,10.1,0,0,1,2.54-.72,13.86,13.86,0,0,1,5.13.13s4-5.25,5.13-5.38c1.42-.17.36,5.41-.53,7.68a11,11,0,0,0,0,3.93c.74,2,1.25,4.4-.34,6.25-2,2.27-5.77,4.78-9.53,6.89-3.52-2.11-38.54-23.88-27.78-46.44a16.29,16.29,0,0,1,15-8.75c10.14.38,12.92,7.09,13.08,7.52.16-.43,2.94-7.14,13.09-7.52a16.29,16.29,0,0,1,15,8.75C98.82,65.45,95.94,75.24,90.68,82.51Z" transform="translate(-25 -39.52)"/></svg>