<svg xmlns="http://www.w3.org/2000/svg" width="142.466" height="37.747" viewBox="0 0 142.466 37.747"><defs><style>.a{fill:#eb1946;}</style></defs><path class="a" d="M10.45,28.1a.908.908,0,0,1-.435.87,2.169,2.169,0,0,1-1.305.36,5.647,5.647,0,0,1-1.665-.285A2.6,2.6,0,0,1,5.62,28.01a13.977,13.977,0,0,1-.405-1.6A4.4,4.4,0,0,1,5.23,24.83,8.844,8.844,0,0,1,5.515,23.7q.195-.615.525-1.4a12.015,12.015,0,0,1,2.985-4.2,20.01,20.01,0,0,1,4.515-3.09,32.669,32.669,0,0,1,5.49-2.16q2.94-.87,5.91-1.44t5.805-.915q2.835-.345,5.145-.615,2.07-.24,3.63-.465a12.089,12.089,0,0,0,2.7-.675,4.214,4.214,0,0,1-.135,1.545,13.814,13.814,0,0,1-.585,1.86,10.447,10.447,0,0,1-.78,1.6q-.42.69-.72.75l-4.11.36q-2.46.24-5.04.495t-5.19.645a3.405,3.405,0,0,1,.6,1.185,1.683,1.683,0,0,1-.12,1.245q-2.25,2.82-4.5,6.27,1.14-.24,2.25-.42t2.25-.36q1.2-.18,2.475-.375t2.475-.435q.18.03.135.375a4.338,4.338,0,0,1-.21.825,7.936,7.936,0,0,1-.45,1.035q-.285.555-.57,1.035a6.636,6.636,0,0,1-.555.81.911.911,0,0,1-.45.36q-.51.06-1.02.09l-1.05.06q-1.77.15-3.78.345a32.554,32.554,0,0,0-4.11.675q-1.44,2.31-2.775,4.65T13.81,37.9q-1.11,2.175-1.935,4.14A28.186,28.186,0,0,0,10.63,45.56q-.42.87-.99.93a1.145,1.145,0,0,1-1-.42,2.757,2.757,0,0,1-.6-1.38,3.509,3.509,0,0,1,.255-1.95,16.87,16.87,0,0,1,.7-2.58q.495-1.41,1.185-2.97t1.53-3.24q.84-1.68,1.8-3.42a20.35,20.35,0,0,0-2.385,1.335A15.494,15.494,0,0,0,8.98,33.56a7.563,7.563,0,0,0-.54.615,8.219,8.219,0,0,0-.585.84A6.26,6.26,0,0,0,7.36,36.02a5.447,5.447,0,0,0-.3,1.08,3.375,3.375,0,0,0-.015.84,1.4,1.4,0,0,0,.315.75l.09.27a.7.7,0,0,1-.3.675,1.586,1.586,0,0,1-.81.255,2.75,2.75,0,0,1-.945-.1,1.111,1.111,0,0,1-.645-.4,2.644,2.644,0,0,1-.255-1.065A6.585,6.585,0,0,1,4.57,37.16a7.128,7.128,0,0,1,.465-1.62,13.505,13.505,0,0,1,.8-1.62,13.044,13.044,0,0,1,.945-1.425A10.929,10.929,0,0,1,7.69,31.43a23.255,23.255,0,0,1,4.05-3.135,25.731,25.731,0,0,1,4.23-2.055q1.56-2.67,3.105-5.115T21.94,16.67q-.81.15-1.605.33t-1.575.39a28.25,28.25,0,0,0-2.775,1.05,23.213,23.213,0,0,0-3.12,1.635,14.755,14.755,0,0,0-2.64,2.07A4.41,4.41,0,0,0,8.89,24.5a3.121,3.121,0,0,0,.18,1.575,4.454,4.454,0,0,0,1.26,1.7Zm30.6-4.26a1.26,1.26,0,0,1,1.065.06,3.145,3.145,0,0,1,1.11.84,3.572,3.572,0,0,1,.72,1.29,1.961,1.961,0,0,1-.075,1.41q-.12.24-.42.75t-.66,1.14l.03-.06q-.57.99-1.29,2.25t-1.38,2.49q-.66,1.23-1.14,2.3a7.934,7.934,0,0,0-.6,1.725l-.12.24h.3a5.753,5.753,0,0,0,1.725-.99,13.63,13.63,0,0,0,1.65-1.59q.795-.9,1.545-1.9t1.41-1.935l.6-.87a.961.961,0,0,1,.69-.42.934.934,0,0,1,.675.195,1.013,1.013,0,0,1,.36.645,1.34,1.34,0,0,1-.285.96l-.84,1.14q-1.26,1.71-2.67,3.48a20.57,20.57,0,0,1-3.06,3.12,7.094,7.094,0,0,1-1.62,1.05,7.3,7.3,0,0,1-1.08.4,4.083,4.083,0,0,1-1.14.165,1.837,1.837,0,0,1-1.77-1.11,4.672,4.672,0,0,1-.21-2.58V38q-.54.6-1.08,1.125a14.34,14.34,0,0,1-1.11.975,7.093,7.093,0,0,1-1.62,1.05,7.3,7.3,0,0,1-1.08.4,4.083,4.083,0,0,1-1.14.165,1.784,1.784,0,0,1-1.725-1.11,4.685,4.685,0,0,1-.195-2.55q.06-.33.135-.72a4.709,4.709,0,0,1,.195-.72q.24-.66.6-1.515t.81-1.77l.93-1.89q.48-.975.93-1.935.75-1.53,1.41-2.925t1.05-2.325l.36-.42a1.26,1.26,0,0,1,1.065.06,3.145,3.145,0,0,1,1.11.84,3.572,3.572,0,0,1,.72,1.29,1.961,1.961,0,0,1-.075,1.41l-.45.81q-.3.54-.72,1.23l.03-.03q-.6.99-1.305,2.2T32.08,34.07q-.63,1.2-1.1,2.265a7.066,7.066,0,0,0-.555,1.695l-.12.24h.27a5.721,5.721,0,0,0,1.71-.975,14.446,14.446,0,0,0,1.62-1.53,22.87,22.87,0,0,0,1.5-1.83q.72-.975,1.38-1.905h-.03a2.73,2.73,0,0,1,.21-.3l.24-.3.87-1.74q.81-1.59,1.515-3.03t1.065-2.4ZM60.31,35.12q-.57.78-1.5,1.89a25.669,25.669,0,0,1-2.04,2.16A15.13,15.13,0,0,1,54.5,40.955a4.093,4.093,0,0,1-2.175.735,3.239,3.239,0,0,1-1.2-.225,2.1,2.1,0,0,1-.93-.705,2.881,2.881,0,0,1-.5-1.245A4.964,4.964,0,0,1,49.78,37.7a15.62,15.62,0,0,1,.525-1.77,19.255,19.255,0,0,1,.78-1.83q.465-.96,1.065-2.085t1.38-2.535a9.425,9.425,0,0,0,.585-1.125A4.219,4.219,0,0,0,54.4,27.5l-1.44,1.23q-1.26,1.05-2.325,2.1T48.46,33.14a40.055,40.055,0,0,0-1.83,3.795,28.614,28.614,0,0,0-1.32,3.915q-.12.33-.63.3a2.974,2.974,0,0,1-1.065-.285,3.93,3.93,0,0,1-.99-.645.975.975,0,0,1-.4-.78,20.679,20.679,0,0,1,.7-2.625q.435-1.275.975-2.52t1.155-2.46Q45.67,30.62,46.3,29.39q.72-1.44,1.41-2.805t1.23-2.625a1.162,1.162,0,0,1,.885-.015,3.342,3.342,0,0,1,1,.525,3.735,3.735,0,0,1,.84.885,2.658,2.658,0,0,1,.45,1.1,17.7,17.7,0,0,1,2.61-1.83,6.173,6.173,0,0,1,2.64-.84,1.218,1.218,0,0,1,.825.375,3.648,3.648,0,0,1,.705.915,3.368,3.368,0,0,1,.39,1.17,2.017,2.017,0,0,1-.12,1.11q-.78,1.53-1.53,2.865L56.35,32.51q-.48.84-.885,1.545t-.72,1.4q-.315.69-.57,1.41t-.465,1.56a.686.686,0,0,1,.21-.18h-.03a12.778,12.778,0,0,0,2.22-1.53,18.153,18.153,0,0,0,2.76-2.94q.39-.48.735-.93t.675-.9l.57-.87q.12-.15.45-.075a1.642,1.642,0,0,1,.615.285,1.624,1.624,0,0,1,.45.5.4.4,0,0,1-.015.5l.03-.06-2.04,2.88Zm10.8-7.02a.908.908,0,0,1-.435.87,2.169,2.169,0,0,1-1.305.36,5.647,5.647,0,0,1-1.665-.285A2.6,2.6,0,0,1,66.28,28.01a13.976,13.976,0,0,1-.4-1.6,4.4,4.4,0,0,1,.015-1.575,8.844,8.844,0,0,1,.285-1.125q.195-.615.525-1.4a12.015,12.015,0,0,1,2.985-4.2A20.009,20.009,0,0,1,74.2,15.02a32.67,32.67,0,0,1,5.49-2.16q2.94-.87,5.91-1.44t5.805-.915q2.835-.345,5.145-.615,2.07-.24,3.63-.465a12.089,12.089,0,0,0,2.7-.675,4.214,4.214,0,0,1-.135,1.545,13.814,13.814,0,0,1-.585,1.86,10.447,10.447,0,0,1-.78,1.6q-.42.69-.72.75l-4.11.36q-2.46.24-5.04.495t-5.19.645a3.405,3.405,0,0,1,.6,1.185,1.683,1.683,0,0,1-.12,1.245q-2.25,2.82-4.5,6.27,1.14-.24,2.25-.42t2.25-.36q1.2-.18,2.475-.375t2.475-.435q.18.03.135.375a4.338,4.338,0,0,1-.21.825,7.937,7.937,0,0,1-.45,1.035q-.285.555-.57,1.035a6.636,6.636,0,0,1-.555.81.911.911,0,0,1-.45.36q-.51.06-1.02.09l-1.05.06q-1.77.15-3.78.345a32.554,32.554,0,0,0-4.11.675q-1.44,2.31-2.775,4.65T74.47,37.9q-1.11,2.175-1.935,4.14A28.187,28.187,0,0,0,71.29,45.56q-.42.87-.99.93a1.145,1.145,0,0,1-1-.42,2.757,2.757,0,0,1-.6-1.38,3.509,3.509,0,0,1,.255-1.95,16.869,16.869,0,0,1,.705-2.58q.495-1.41,1.185-2.97t1.53-3.24q.84-1.68,1.8-3.42a20.35,20.35,0,0,0-2.385,1.335A15.494,15.494,0,0,0,69.64,33.56a7.562,7.562,0,0,0-.54.615,8.217,8.217,0,0,0-.585.84,6.26,6.26,0,0,0-.5,1.005,5.446,5.446,0,0,0-.3,1.08,3.375,3.375,0,0,0-.015.84,1.4,1.4,0,0,0,.315.75l.09.27a.7.7,0,0,1-.3.675,1.586,1.586,0,0,1-.81.255,2.75,2.75,0,0,1-.945-.1,1.111,1.111,0,0,1-.645-.4,2.644,2.644,0,0,1-.255-1.065,6.585,6.585,0,0,1,.075-1.155,7.128,7.128,0,0,1,.465-1.62,13.507,13.507,0,0,1,.795-1.62,13.043,13.043,0,0,1,.945-1.425,10.929,10.929,0,0,1,.915-1.065,23.255,23.255,0,0,1,4.05-3.135,25.731,25.731,0,0,1,4.23-2.055q1.56-2.67,3.105-5.115T82.6,16.67q-.81.15-1.605.33t-1.575.39a28.25,28.25,0,0,0-2.775,1.05,23.213,23.213,0,0,0-3.12,1.635,14.755,14.755,0,0,0-2.64,2.07A4.41,4.41,0,0,0,69.55,24.5a3.121,3.121,0,0,0,.18,1.575,4.454,4.454,0,0,0,1.26,1.7Zm32.13.81a.4.4,0,0,1-.225.285,1.5,1.5,0,0,1-.465.15,3.37,3.37,0,0,1-.555.045,1.25,1.25,0,0,1-.5-.09,4.68,4.68,0,0,1,.78.63,3.536,3.536,0,0,1,.6.795,2.768,2.768,0,0,1,.315.885,1.527,1.527,0,0,1-.1.87q-.12.21-.27.465t-.3.525q-.33.57-.675,1.23t-.645,1.29q-.3.63-.525,1.185a4.381,4.381,0,0,0-.285.945.1.1,0,0,1-.045.09.491.491,0,0,0-.075.06h.21a5.475,5.475,0,0,0,1.74-.99,15.025,15.025,0,0,0,1.635-1.575,24.218,24.218,0,0,0,1.53-1.89q.735-1.005,1.4-1.935a2.909,2.909,0,0,0,.36-.42q.12-.18.24-.39.12-.15.45-.075a1.782,1.782,0,0,1,.63.285,1.735,1.735,0,0,1,.48.5.384.384,0,0,1,0,.5l-.87,1.2v.03q-1.29,1.77-2.685,3.495a20.716,20.716,0,0,1-3.1,3.1,7.9,7.9,0,0,1-1.575,1.065,5.9,5.9,0,0,1-1.065.42,3.543,3.543,0,0,1-1.17.135,2.5,2.5,0,0,1-2.025-1.02,3.341,3.341,0,0,1-.435-2.25,21.134,21.134,0,0,1-2.73,2.175,5.032,5.032,0,0,1-2.64.945,3.5,3.5,0,0,1-1.815-.645A3.322,3.322,0,0,1,87.82,39.68a4.226,4.226,0,0,1-.375-1.545,8.664,8.664,0,0,1,.045-1.545,7.035,7.035,0,0,1,.27-1.08,12.194,12.194,0,0,1,.99-2.43,21.183,21.183,0,0,1,1.65-2.64,26.465,26.465,0,0,1,2.115-2.55A18.534,18.534,0,0,1,94.96,25.7a12.872,12.872,0,0,1,2.625-1.53,6.719,6.719,0,0,1,2.655-.57,4.557,4.557,0,0,1,.75.06,7.115,7.115,0,0,1,.78.18,2.119,2.119,0,0,1,1.1.765,3.084,3.084,0,0,1,.51,1.23,6.12,6.12,0,0,1,.09,1.5A9.339,9.339,0,0,1,103.24,28.91Zm-3.51,0a1.037,1.037,0,0,1,.705-.06,2.965,2.965,0,0,1,.825.33.3.3,0,0,1-.09-.33.475.475,0,0,0,.015-.21.649.649,0,0,1,.015-.24q.03-.3.03-.63a2.032,2.032,0,0,0-.09-.615.99.99,0,0,0-.3-.465.977.977,0,0,0-.57-.21,3.783,3.783,0,0,0-2.28.8,12.4,12.4,0,0,0-2.25,2.085,21.186,21.186,0,0,0-1.965,2.7,21.445,21.445,0,0,0-1.395,2.61,6.787,6.787,0,0,0-.3.825,5.873,5.873,0,0,0-.21.975,3.524,3.524,0,0,0-.06.63.923.923,0,0,0,.135.51.618.618,0,0,0,.405.27,1.723,1.723,0,0,0,.75-.06,3.348,3.348,0,0,0,1.14-.69q.69-.57,1.455-1.335t1.5-1.635q.735-.87,1.245-1.56.45-.9.825-1.755a9.479,9.479,0,0,0,.525-1.455Zm20.82,4.38q-.96,1.35-2.325,2.985a28.835,28.835,0,0,1-3.105,3.165,10.044,10.044,0,0,1-1.98,1.305,10.653,10.653,0,0,1-1.77.69,7.442,7.442,0,0,1-1.455.27q-.645.045-1,.045a3.986,3.986,0,0,1-3.375-1.35,4.86,4.86,0,0,1-.735-3.69,11.76,11.76,0,0,1,1.305-3.99,25.577,25.577,0,0,1,2.925-4.23,17.052,17.052,0,0,1,1.65-1.6,16.634,16.634,0,0,1,2.16-1.575,12.752,12.752,0,0,1,2.445-1.17,6.806,6.806,0,0,1,2.445-.42,2.263,2.263,0,0,1,1.845.825,2.517,2.517,0,0,1,.375,2.085,5.341,5.341,0,0,1-1.08,2.4,1.4,1.4,0,0,1-.735.465.783.783,0,0,1-.63-.1.976.976,0,0,1-.36-.57,1.513,1.513,0,0,1,.075-.9,2.025,2.025,0,0,0,.42-.96.236.236,0,0,0-.045-.225q-.075-.075-.315-.015a5.7,5.7,0,0,0-2.385,1.17,15.254,15.254,0,0,0-2.205,2.13,18.6,18.6,0,0,0-1.8,2.505,16.132,16.132,0,0,0-1.17,2.295l-.33,1.2a6.692,6.692,0,0,0-.06.885,2.994,2.994,0,0,0,.105.81,1.863,1.863,0,0,0,.33.66,1.048,1.048,0,0,0,.585.375l-.06-.03a2.642,2.642,0,0,0,1.4-.09,7.231,7.231,0,0,0,1.8-.855,14.7,14.7,0,0,0,2.055-1.605,20.761,20.761,0,0,0,2.16-2.34q.57-.72,1.1-1.485t1-1.455a1.086,1.086,0,0,1,1.47-.24.868.868,0,0,1,.36.615,1.341,1.341,0,0,1-.33.945Zm1.23-8.13a1.121,1.121,0,0,1-.885,0,.808.808,0,0,1-.435-.525,1.124,1.124,0,0,1,.1-.765,1.847,1.847,0,0,1,.705-.75q1.23-.78,2.415-1.41t2.385-1.14a57.075,57.075,0,0,0,3.39-6.69,1.339,1.339,0,0,1,1.125.015,3.336,3.336,0,0,1,1.17.8,3.63,3.63,0,0,1,.8,1.245,1.792,1.792,0,0,1,0,1.365l-.87,1.53a22.431,22.431,0,0,1,3.96-.36q.3,0,.78.015t.78.045a2.251,2.251,0,0,1-.1.975,4.068,4.068,0,0,1-.465.99,3.778,3.778,0,0,1-.675.8,1.129,1.129,0,0,1-.735.33q-.3-.03-.63-.045t-.66-.015a18.221,18.221,0,0,0-2.07.12,20.6,20.6,0,0,0-2.13.36q-.42.72-.855,1.41t-.855,1.32l-.24.39q-.36.57-.99,1.56t-1.365,2.2q-.735,1.215-1.515,2.55t-1.44,2.58q-.66,1.245-1.11,2.295a7.145,7.145,0,0,0-.54,1.68.292.292,0,0,0-.06.15.122.122,0,0,1-.03.09h.21a5.721,5.721,0,0,0,1.71-.975,14.445,14.445,0,0,0,1.62-1.53,22.871,22.871,0,0,0,1.5-1.83q.72-.975,1.38-1.905h-.03a6.48,6.48,0,0,1,.39-.525q.21-.255.39-.5.12-.18.42-.09a1.915,1.915,0,0,1,.585.3,1.624,1.624,0,0,1,.45.495.477.477,0,0,1,.045.495l-.99,1.35q-1.23,1.71-2.655,3.465A22,22,0,0,1,122.74,40.1a7.094,7.094,0,0,1-1.62,1.05,7.3,7.3,0,0,1-1.08.4,4.083,4.083,0,0,1-1.14.165,1.975,1.975,0,0,1-1.08-.33,1.944,1.944,0,0,1-.645-.795,3.292,3.292,0,0,1-.27-1.14,6.46,6.46,0,0,1,.075-1.425q.06-.33.15-.7a4.9,4.9,0,0,1,.21-.675,27.379,27.379,0,0,1,1.17-3.06q.69-1.53,1.5-3.03t1.695-2.97q.885-1.47,1.785-2.88l.39-.6-2.01,1.02Zm2.01,12.03a7.49,7.49,0,0,1,.96-2.46,6.4,6.4,0,0,1,1.71-1.92l.84-1.08q1.02-1.44,2.085-2.85t2.205-2.73a4.5,4.5,0,0,0,.42-.48q.18-.24.39-.48.63-.81,1.455-1.74a20.789,20.789,0,0,1,2.325-2.16,11.7,11.7,0,0,1,1.02.675,4.856,4.856,0,0,1,1.005.96,2.15,2.15,0,0,1,.465,1.095,1.107,1.107,0,0,1-.57,1.02l.09-.03a9.43,9.43,0,0,0-.855.8q-.255.285-.555.675l-.48.6a8.222,8.222,0,0,0-1.185,2.22,15.828,15.828,0,0,0-.615,2.31q-.12.63-.18,1.275t-.12,1.3l-.21,1.8a7.678,7.678,0,0,1-.75,2.475,6.558,6.558,0,0,1-1.425,1.9,5.981,5.981,0,0,1-1.92,1.185,5.436,5.436,0,0,1-2.235.345,5.136,5.136,0,0,1-1.98-.51,3.618,3.618,0,0,1-1.275-1.05,3.446,3.446,0,0,1-.615-1.44A4.908,4.908,0,0,1,123.79,37.19Zm6.69-5.55a4.721,4.721,0,0,1,.09-.495q.06-.255.12-.5l-1.26,1.68-.03.03a6.711,6.711,0,0,1,.12.825,8.283,8.283,0,0,1,.03,1.23,6.885,6.885,0,0,1-.165,1.23,1.606,1.606,0,0,1-.435.855.781.781,0,0,0-.6-.555,1.431,1.431,0,0,0-.87.135,2.7,2.7,0,0,0-.81.585,1.661,1.661,0,0,0-.45.765,1.168,1.168,0,0,0,0,.375,3.047,3.047,0,0,0,.09.435,1.409,1.409,0,0,0,.63.705,2.535,2.535,0,0,0,.84.285,1.238,1.238,0,0,0,.81-.15,2.3,2.3,0,0,0,.645-.57,3.414,3.414,0,0,0,.48-.84A4.8,4.8,0,0,0,130,36.65q.12-1.08.18-2.28.06-.63.1-1.32A10.154,10.154,0,0,1,130.48,31.64Zm16.083-11.646-.278,15.088h-1.978l-.264-15.088Zm-1.23,21.27a1.579,1.579,0,0,1-1.15-.469,1.543,1.543,0,0,1-.476-1.143,1.626,1.626,0,0,1,3.252,0,1.531,1.531,0,0,1-.483,1.143A1.587,1.587,0,0,1,145.332,41.264Z" transform="translate(-4.492 -8.75)"/></svg>