<svg xmlns="http://www.w3.org/2000/svg" viewBox="0 0 611.94 108.89"><title>ppg-white-logo</title><g id="Layer_2" data-name="Layer 2"><path d="M152.9,41.36H163v4a14.39,14.39,0,0,1,11.43-5.19c12.79,0,17.6,11.23,17.6,19.61,0,10.39-7.28,18.9-17.54,18.9-6.49,0-9.54-3.12-10.84-4.48V89.42H152.9Zm28.38,18a9.05,9.05,0,0,0-15.53-6.43,9.49,9.49,0,0,0-2.53,6.56,9,9,0,1,0,18.06-.07Z" transform="translate(-10.89 -8.35)" fill="#fff"/><path d="M206.67,63.12c.45,3.83,4.09,6.36,8.31,6.36a7.26,7.26,0,0,0,6.56-3.38h11a21.22,21.22,0,0,1-7.34,9.23A17.54,17.54,0,0,1,215,78.57a19.11,19.11,0,0,1-19.09-19.09c0-10.07,7.92-19.35,18.89-19.35a18.45,18.45,0,0,1,13.64,5.71c4.55,4.87,5.91,10.65,5.07,17.28Zm16.23-8.19c-.26-1.68-2.47-5.71-8.05-5.71s-7.79,4-8,5.71Z" transform="translate(-10.89 -8.35)" fill="#fff"/><path d="M241.6,49.54h-5.32V41.36h5.32v-12h10.78v12h5.2v8.18h-5.2V77.4H241.6Z" transform="translate(-10.89 -8.35)" fill="#fff"/><path d="M294.4,41.36h10.13v4A14.39,14.39,0,0,1,316,40.13c12.79,0,17.6,11.23,17.6,19.61,0,10.39-7.28,18.9-17.54,18.9-6.49,0-9.54-3.12-10.84-4.48V89.42H294.4Zm28.38,18a9.05,9.05,0,0,0-15.53-6.43,9.49,9.49,0,0,0-2.53,6.56,9,9,0,1,0,18.06-.06Z" transform="translate(-10.89 -8.35)" fill="#fff"/><path d="M348.17,63.12c.45,3.83,4.09,6.36,8.31,6.36A7.26,7.26,0,0,0,363,66.1h11a21.22,21.22,0,0,1-7.34,9.23,17.54,17.54,0,0,1-10.26,3.24,19.12,19.12,0,0,1-19.09-19.09c0-10.07,7.92-19.35,18.89-19.35a18.45,18.45,0,0,1,13.64,5.71c4.55,4.87,5.91,10.65,5.07,17.28Zm16.23-8.19c-.26-1.68-2.47-5.71-8-5.71s-7.79,4-8.05,5.71Z" transform="translate(-10.89 -8.35)" fill="#fff"/><path d="M383.1,49.54h-5.32V41.36h5.32v-12h10.78v12h5.2v8.18h-5.2V77.4H383.1Z" transform="translate(-10.89 -8.35)" fill="#fff"/><path d="M473.36,73.05c0,5.39-.39,8.83-2.14,11.89-2.79,4.54-9.35,8.5-18.25,8.5-12.53,0-17.27-7.53-18-12.66h12.47a5.91,5.91,0,0,0,3.44,3.12,8.9,8.9,0,0,0,2.86.45c4.09,0,8.77-2.53,8.77-8.77V73.44c-1.24,2.08-4.36,5.13-10,5.13-9.8,0-18.18-7.4-18.18-19,0-12.34,8.83-19.42,18.18-19.42,4,0,8,1.43,10.07,4.55V41.36h10.78ZM445.11,59.28c0,5.72,4.16,9.23,8.64,9.23a8.56,8.56,0,0,0,6.3-2.47,9.57,9.57,0,0,0,2.53-6.24,10.12,10.12,0,0,0-2.27-6.75,8.06,8.06,0,0,0-6.5-2.79,8.76,8.76,0,0,0-8.7,9Z" transform="translate(-10.89 -8.35)" fill="#fff"/><path d="M476.09,59.28c0-8.76,6.3-19.09,19.41-19.09s19.42,10.33,19.42,19.16-6.3,19.16-19.42,19.16-19.41-10.33-19.41-19.16Zm10.78.14a8.64,8.64,0,1,0,17.27-.07,8.65,8.65,0,1,0-17.27,0Z" transform="translate(-10.89 -8.35)" fill="#fff"/><path d="M516.09,59.28c0-8.76,6.3-19.09,19.42-19.09s19.41,10.33,19.41,19.16-6.29,19.16-19.41,19.16-19.42-10.33-19.42-19.16Zm10.78.14a8.64,8.64,0,1,0,17.27-.07,8.65,8.65,0,1,0-17.27,0Z" transform="translate(-10.89 -8.35)" fill="#fff"/><path d="M573.1,51.49c-.06-.78-.19-2.73-3.37-2.73-2.27,0-3.05,1.43-3.05,2.41,0,1.62,2.66,2.72,5.52,3.57,6.1,1.69,12.59,3.51,12.59,11.3s-6.68,12.6-14.67,12.6c-5.46,0-13.71-2.47-14.68-12h10.72A3.83,3.83,0,0,0,570.25,70c1.82,0,3.76-1,3.76-2.79,0-2.47-2.66-2.79-9.54-5.46-4.68-1.49-8.58-4.54-8.58-9.41,0-7.47,6.5-12.21,14-12.21,4.74,0,12.92,1.88,13.83,11.36Z" transform="translate(-10.89 -8.35)" fill="#fff"/><path d="M595.77,63.12c.45,3.83,4.09,6.36,8.31,6.36a7.26,7.26,0,0,0,6.56-3.38h11a21.15,21.15,0,0,1-7.34,9.23,17.54,17.54,0,0,1-10.26,3.24A19.13,19.13,0,0,1,585,59.48c0-10.07,7.92-19.35,18.9-19.35a18.41,18.41,0,0,1,13.63,5.71c4.55,4.87,5.91,10.65,5.07,17.28ZM612,54.93c-.26-1.68-2.46-5.71-8-5.71s-7.79,4-8.05,5.71Z" transform="translate(-10.89 -8.35)" fill="#fff"/></g><g id="Layer_1" data-name="Layer 1"><path d="M106.16,8.35c-21.63,0-30.8,15.33-30.8,15.33S66.19,8.35,44.56,8.35c-18.34,0-33.67,15.33-33.67,33.53,0,41.83,64.47,75.36,64.47,75.36s64.47-33.53,64.47-75.36C139.83,23.68,124.5,8.35,106.16,8.35Zm6.67,66.72A84.31,84.31,0,0,0,97.64,54.39c-4.54,4.43-8.8,4.82-8.8,4.82.84-.91,7.47-6.52,8.72-11.29.36-1.37-.58-4.42-6.33-7.06a15.73,15.73,0,0,0-11.15-1,16.7,16.7,0,0,0-15.55-.76C60.45,41,59,45.43,57.12,46.8c-1.47,1.06-2.66,3.41-2,5a5,5,0,0,1-1.36,4.92c-.72.63-4.45,4.17-6.88,6.79A13.57,13.57,0,0,0,44.13,67c-.35,1.57,2.41,2.9,2.41,2.9s-.32,4.86,1.3,6.38,4.47,1.1,5.44,1.64a8.76,8.76,0,0,0,6.32.94,69.94,69.94,0,0,1-.29-7.54s.73-3.61,4.93-.6c.64.46,5.79,5.47,6.43,6.31.33.42.5.67.5.67a16.16,16.16,0,0,1,3.94-1.11,21.69,21.69,0,0,1,8,.2s6.29-8.15,8-8.34c2.21-.26.57,8.4-.83,11.91,0,0-.63,4.13.1,6.1,1.14,3.11,1.93,6.83-.54,9.7-3,3.52-9,7.42-14.79,10.69-5.46-3.27-59.82-37-43.12-72.06,2.78-4.9,9.13-13.6,23.21-13.6,15.74.6,20,11,20.3,11.69.25-.67,4.56-11.09,20.31-11.69,14.08,0,20.42,8.7,23.2,13.6C125.46,48.6,121,63.79,112.83,75.07Z" transform="translate(-10.89 -8.35)" fill="#fff"/></g><g id="Layer_3" data-name="Layer 3"><path d="M277.15,55a4.14,4.14,0,0,0-3.52,1.75A4.14,4.14,0,0,0,270.11,55a3.88,3.88,0,0,0-3.85,3.83c0,4.79,7.37,8.62,7.37,8.62S281,63.61,281,58.82A3.88,3.88,0,0,0,277.15,55Z" transform="translate(-10.89 -8.35)" fill="#fff"/><path d="M418.52,55A4.14,4.14,0,0,0,415,56.74,4.14,4.14,0,0,0,411.48,55a3.88,3.88,0,0,0-3.85,3.83c0,4.79,7.37,8.62,7.37,8.62s7.37-3.83,7.37-8.62A3.88,3.88,0,0,0,418.52,55Z" transform="translate(-10.89 -8.35)" fill="#fff"/></g></svg>