<svg id="Layer_1" data-name="Layer 1" xmlns="http://www.w3.org/2000/svg" xmlns:xlink="http://www.w3.org/1999/xlink" viewBox="0 0 1388.53 526.27"><defs><style>.cls-1{fill:none;}.cls-2{clip-path:url(#clip-path);}.cls-3{fill:#022d3d;}</style><clipPath id="clip-path" transform="translate(-2.33 -30.53)"><rect class="cls-1" width="1400" height="980"/></clipPath></defs><g class="cls-2"><g class="cls-2"><path class="cls-3" d="M203.55,114.61s3.93-1.76,5.5-4.4c1.06-1.47,5.78-1.47,5.78-1.47l-5-1.46s-2.36-5-10.75-1.17c-.26-.3-3.41,3.81-12.32-5S177.06,78.84,176,73.86s-23.61-13.49-63.73-17c.26.58-6.82,2.93,31.21,15,.78.88,19.14,22,23.33,37.52,1,2.64,3.68,10.85-.78,15-1.84,2-17.83,7.62-17.83,7.62s.78,6.74,7.34,6.74c1.05,0,3.41,5.87,7.87.89,4.19-3.53,10.75-9.39,14.68-9.39s9.7.3,13.11-2.34c1.05,2,17.83,2.34,29.9,21.69,1.31,2.35,11.8,21.69,18.62,37.52,0,.29,5.24,3.52,2.62-22.87-1.83-14.65-6.82-31.65-11.8-36-2.62,0-28.06-3.22-27-13.48" transform="translate(-2.33 -30.53)"/><path class="cls-3" d="M47.43,156.33s-3.1-1.38-4.34-3.46c-.82-1.15-4.54-1.15-4.54-1.15l3.92-1.15s1.86-3.92,8.47-.93c.21-.23,2.69,3,9.71-3.93s7.64-17.54,8.47-21.47,18.59-10.61,50.19-13.39c-.21.46,5.38,2.31-24.58,11.78-.62.69-15.08,17.31-18.38,29.55-.83,2.08-2.89,8.55.62,11.78,1.44,1.62,14,6,14,6s-.63,5.31-5.79,5.31c-.82,0-2.68,4.62-6.2.69-3.3-2.77-8.46-7.39-11.56-7.39s-7.65.24-10.33-1.84c-.83,1.62-14,1.84-23.55,17.09-1,1.84-9.29,17.08-14.66,29.54,0,.24-4.13,2.77-2.07-18,1.44-11.54,5.37-24.94,9.29-28.4,2.07,0,22.1-2.54,21.28-10.63" transform="translate(-2.33 -30.53)"/><path class="cls-3" d="M63.62,514.55c-.79-1.94-3.92-1.56-3.92-1.56l-3.14,2.33s-.77-5.46-13.68-9-20.34-14.87-20.34-14.87C19.81,509.07,50.7,526.3,50.7,528.64s-7.43,9-8.61,8.59-14.46,5.09-13.29,5.48,18.77.4,21.11,1.19,4.7,5.47,4.32,2.72a18,18,0,0,1,.38-6.64c.39-2,4.31-5.88,4.31-5.88,2.73,12.93,21.51,22.7,21.51,22.7-3.92-11-14.08-32.08-15.25-33.63s-.79-6.66-1.56-8.62" transform="translate(-2.33 -30.53)"/><path class="cls-3" d="M1375.66,282.4c-1.5,0-28-2.22-34-7.83s-7.84-26.13-7.84-26.13c-4.85,1.1-3,7.08,1.14,17.91s-1.5,14.19-1.5,14.19c1.86,19,20.17,12.32,17.17,10.82s-5.6-7.09-5.6-7.09c9.34,7.09,32.11-1.87,30.62-1.87" transform="translate(-2.33 -30.53)"/><path class="cls-3" d="M208.4,257.55l-2.23-1.13,1.5-20.92s-4.12,11.58-3.36,14.93-10.09,1.13-2.25,16.81c0,0,1.49,4.48,1.12,6s6,6.34,9.71,5.6c0,0-4.49-9.35-2.61-11.59s14.18-3.37,20.91,0,10.45,1.86,7.84-3-20.16-11.95-30.63-6.7" transform="translate(-2.33 -30.53)"/><path class="cls-3" d="M152.25,417.52c1.59,0,5.09,3.55,5.09,3.55,2.36,0,2,11.32,2,11.32s2.34-1.56,3.53-1.19S166,430,166,428.87A43.47,43.47,0,0,0,164,415.58c-2-5.49-5.09-3.91-7-5.49s-21.13,1.18-21.13,3.53,14.86,3.9,16.42,3.9" transform="translate(-2.33 -30.53)"/><path class="cls-3" d="M109,282.36c-3,.38-4.48-3.74-4.48-5.22s-.75-6.72-3.74-6S90,283.1,93.31,289.83a44.77,44.77,0,0,0,5.61-3.37s-.76,15,10.45,21.66c0,0,3,1.14,0-4.09s-.37-9-.37-9,4.84.76,7.1,1.14,9.33,14.18,9.33,15.68,6.35-13.07-9.33-30.64c0,0-4.11.76-7.1,1.13" transform="translate(-2.33 -30.53)"/><path class="cls-3" d="M1265.45,275.51c-3.35-1.5-2.62,1.87-2.62,1.87,3.73,22.78,17.94,15.3,17.94,15.3-3.37,0-7.1-7.47-7.1-7.47,1.87.38,25.77-10.45,24.65-12.31s-25.77,4.85-25.77,4.85c-2.24-1.87,4.49-20.55,4.49-20.55-14.57,7.85-8.22,19.8-11.59,18.31" transform="translate(-2.33 -30.53)"/><path class="cls-3" d="M1010.72,174.64a15.35,15.35,0,0,1-4.49,2.62s3.35,7.47,7.1,9.33,9.32,4.11,11.95,3.37-8.59-8.6-5.6-12.32,3.73,1.49,8.58,3,23.89.38,29.5-4.09c0,0-26.14,0-39.58-14.58,0,0-.76-4.85-2.61-6s-4.11,1.5-3.37,3c0,0-14.93-9.71-15.68-24.64,0,0-7.84,3.72,13.44,34.36,0,0,2.24,4.47.76,6" transform="translate(-2.33 -30.53)"/><path class="cls-3" d="M1089.61,52.93l-8.59.74s1.11,4.49,4.85,6.36-1.48,17.54,2.63,23.15l-.76,4.1-7.1,3.73s4.86,15.32,11.59,18.68,19-1.48,20.9-3.36-9.71-14.56-9.71-14.56l-.36-6s8.58.38,11.19-1.48,4.11-1.51,4.11-1.51,16.44,13.44,17.56,15,4.48.73,6,1.48,8.6-9.69-9.7-27.63c0,0-8.22-9.71-11.58-9.71s-10.46,3.74-13.07,3.74-2.24-13.06-2.24-13.06-5.22-13.82-9-15.32S1053,33.9,1050,30.9s0,12.69,39.58,22" transform="translate(-2.33 -30.53)"/><path class="cls-3" d="M254.62,484.94c-5.61,3-14.94.76-14.94.76,1.49-1.5,1.49-19.81,1.49-19.81-6.72-.36-7.1,20.19-8.22,19.43s-3.35-2.61-3.73,0,13.83,14.56,13.83,14.56c-1.5-1.87-.76-6-.76-6,13.45,1.11,17.93-12,12.33-9" transform="translate(-2.33 -30.53)"/><path class="cls-3" d="M1113.92,340.17s10.08,14.93,25.4,12.32c0,0-22.79-16.42-23.9-25s1.11-9-1.14-8.59-4.09,1.11-3.73,3.36c0,0-12.69-16.43-13.07-30.63,0,0-4.48,8.59,10.08,40.33,0,0,.38,3.37-1.12,5.23s-3,4.11-2.23,6.36,4.48,7.84,8.59,8.21Z" transform="translate(-2.33 -30.53)"/><path class="cls-3" d="M1196.16,518.91c-4.49-3-39.58-39.57-40.7-47.79s-1.87-7.84-4.49-8.58-2.61,6-4.48,3.73-19.79-7.09-32.86-13.45-16.8-11.19-16.8-11.19c22.78,37,47.42,36.59,46.3,38.09s-7.1,1.49-7.1,1.49c-1.11,17.56,26.89,26.51,24.28,23.16s-.76-8.6-.76-8.6c10.83,15.31,43,28.37,43,28.37a31.25,31.25,0,0,0-6.34-5.23" transform="translate(-2.33 -30.53)"/><path class="cls-3" d="M1280.44,356.54c-10.57-3.13-35.61-30.12-35.61-30.12s1.57-3.53-.37-6.26-5.49.38-5.49,1.56-3.13,1.95-3.13,1.95c-10.16-.38-44.18-13.69-44.18-13.69,5.07,21.13,41.84,28.95,41.84,28.95-1.56-.39-9,3.93-10.55,6.65s8.2,9,8.2,9,1.18-4.69,2.35-3.53,2.74,8.22,2.74,8.22c2.73,3.91,16.81-.39,16.81-.39a21.82,21.82,0,0,1-7-14.08c6.26,18.77,45,14.87,34.42,11.74" transform="translate(-2.33 -30.53)"/><path class="cls-3" d="M1335.6,166.69s.36-2.62,4.47-1.5,31.38-1.5,50.79-13.44c0,0-35.85-4.48-51.53.38,0,0,11.2-38.11,13.45-38.85s-1.5-6.72-9,3.35-16.8,22.05-18.68,30.64c0,0-3-3-3.73-4.86s-5.23-.36-4.11,4.11-1.85,10.45,4.49,19c0,0-4.11,4.09-6,2.62,0,0,14.93,18.67,18.3,19.78s11.19,1.5,15.68-7.48c0,0-14.19-8.57-14.19-13.8" transform="translate(-2.33 -30.53)"/><path class="cls-3" d="M1272.08,87.36c-3.13-1.56-11.33,1.56-13.69,2s-2-3.13-2-3.13-.77-9.39-.77-10.56-6.65,3.51-5.49,9.77-4.3,5.09-1.94,10.95l-7,.78s3.13,17.61,18.78,12.93c0,0-6.26-7.85-4.3-9.8s12.12-3.51,13.29-2.35,11.74,5.48,14.87,4.7-8.61-13.69-11.74-15.25" transform="translate(-2.33 -30.53)"/><path class="cls-3" d="M26.89,417c6.64.39,5.87,4.3,5.87,4.3-2.36.78-1.57,3.12-.4,8.61s12.51,8.2,12.51,8.2a43.92,43.92,0,0,1-2.73-6.64c-.39-2,0-9,0-9s2.73,3.13,3.91,4.7,1.56,13.69,1.56,13.69,1.56,1.56,2.35.38,3.53-30.11-1.56-30.11-8.62-1.56-8.62-3.9a8.73,8.73,0,0,0-3.5-6.65c-2-1.19-2.36,3.11-3.92,2.73s3.92-5.47-13.69,0S1.06,416.21,3.42,417.78s16.82-1.17,23.47-.79" transform="translate(-2.33 -30.53)"/><path class="cls-3" d="M249.25,362.66s-10.83-8.2-4.49-8.2S255.59,369.4,256,373.14s5.61,1.87,3.35-12.71-3.73-17.16-12.31-17.54a5.89,5.89,0,0,1-2.25-6.36c1.12-4.09-3.73-3.73-4.47-.74s-3,3.35-4.87-1.88-24.63,6.75-25.75,12,6.72.36,7.84.72c0,0,13.44-1.47,15.68,1.14s-3,7.46-5.61,7.84,6,9.34,10.46,9.71,11.21-2.63,11.21-2.63" transform="translate(-2.33 -30.53)"/><path d="M1237.22,180.31s5.6-3.37-4.11-3-61.61-4.11-61.61-4.11-6-7.1-6.36-8.22-2.61-15.32-7.84-6c0,0-7.46-13.83-7.46-16.06s-1.5-14.57,0-19-9.34-.76-3.73,16.43,6.34,26.9,6.34,26.9,0,16.79,2.24,20.52-7.84,8.22-7.84,8.22,12.32,15.3,16.44,17.91,16.79.39,19.41-.73-9.34-8.22-11.57-16.06c0,0-1.5-6.72,0-6.72s48.53,6,66.09-10.08" transform="translate(-2.33 -30.53)"/><path class="cls-3" d="M313.27,75c1.57,0,14.86-5.87,16.42-8.21S312.1,65.59,309,68.33c-1.48,1.29-1.73,1.44-1.6,1.27a11.31,11.31,0,0,1,.81-.87s-3.52-10.16-2-11c0,0-5.07-1.56-4.69,11.73,0,0-2.74-1.94-3.13,0s2.75,5.49,4.31,7,9,7.82,12.52,7,2.34-2,2.34-2-4.7-3.12-5.86-3.12,0-3.52,1.56-3.52" transform="translate(-2.33 -30.53)"/></g></g></svg>