<svg xmlns="http://www.w3.org/2000/svg" viewBox="0 0 1388.53 526.27"><title>Asset 1</title><g id="Layer_2" data-name="Layer 2"><g id="Layer_1-2" data-name="Layer 1"><path d="M201.22,84.08s3.94-1.76,5.51-4.4c1.05-1.47,5.77-1.47,5.77-1.47l-5-1.46s-2.36-5-10.76-1.17c-.26-.3-3.41,3.81-12.32-5s-9.71-22.28-10.75-27.26-23.61-13.49-63.73-17c.26.58-6.82,2.93,31.21,15,.78.88,19.14,22,23.34,37.52,1,2.64,3.67,10.85-.79,15-1.84,2-17.83,7.62-17.83,7.62s.78,6.74,7.34,6.74c1.05,0,3.41,5.87,7.87.89,4.19-3.53,10.75-9.39,14.68-9.39s9.71.3,13.11-2.34c1.06,2,17.84,2.34,29.9,21.69,1.31,2.35,11.8,21.69,18.62,37.52,0,.29,5.24,3.51,2.63-22.87C238.2,119,233.21,102,228.23,97.56c-2.62,0-28.06-3.22-27-13.48" fill="#022d3d"/><path d="M45.1,125.8s-3.1-1.38-4.34-3.46c-.82-1.15-4.54-1.15-4.54-1.15L40.14,120s1.86-3.92,8.47-.93c.21-.23,2.69,3,9.71-3.93S66,97.64,66.79,93.71,85.38,83.09,117,80.32c-.2.46,5.38,2.31-24.58,11.78-.62.69-15.07,17.31-18.38,29.55-.83,2.08-2.89,8.55.62,11.77,1.45,1.63,14,6,14,6s-.63,5.31-5.79,5.31c-.82,0-2.68,4.62-6.19.69C73.4,142.66,68.24,138,65.14,138s-7.64.24-10.33-1.84C54,137.82,40.76,138,31.26,153.28c-1,1.85-9.29,17.09-14.66,29.55,0,.24-4.13,2.77-2.07-18,1.45-11.55,5.37-24.94,9.3-28.4,2.06,0,22.1-2.54,21.27-10.63" fill="#022d3d"/><path d="M1304.09,380.78c.43-.22,32-7.59,24.05-37a3.17,3.17,0,0,1-.16-1.72,6.11,6.11,0,0,0-.33-2.37,14.66,14.66,0,0,0,.38-3.12,11.82,11.82,0,0,1,.16-1.29,2.92,2.92,0,0,0,.32-.7,5.36,5.36,0,0,0,.11-1.5c-.11-.54-.64-2.48-.7-2.75s.43.49,0-.21-3.76-9.8-14.26-6.08c-.1-.11-1.29,1.07-1.5,1.18a2.85,2.85,0,0,0-1.4,1.24c-.48.86-.59,2.53-1.94,3.33-1,.59-7.48,1.67-6.45,6.14l.16.27a6.58,6.58,0,0,1,2.53-.49c.64.22,2.42-.75,3.65-1.07,1.08-.27,4.79,1,4.09,3.55-.53.59-2.47,1.83-2.79,3.17a66.59,66.59,0,0,0-9.85,5.27c-1.08.54-16.89,5.71-26.31,16.9-1.08.59-2.85,1.13-3.66,1.94s-11.51,6.61-13,7.58c-.86.75-2.42,2.26-.8,2.15a5.88,5.88,0,0,0,1.62-.52c-2.23,1.27-15.85,9-22,11.77-.92.54-1.35,1.08-1.08,1.13a2.46,2.46,0,0,0,.81-.11l-.13.06-1,.48a2.62,2.62,0,0,0,.75.43c.27,0,7.8-3,11.24-2.9-.53.48-1.45,1.5-1.45,1.5l1.4-.05c.27,0,2.58-.86,3.5-1.08s3.33-.54,3.23-.16,3.33-.16,5-.75,13.78-3.12,14.8-3,1.35,1.56,2.21,1.4,4.68-.06,5.32-.06,1.56-.21,1,0-.17.33-.17.33,2.16-.27,2.37-.38-1-.38.59-.11a34.09,34.09,0,0,0,11.26.31,6.06,6.06,0,0,0-.12,1.61,4.35,4.35,0,0,0,.45,1.19,53.61,53.61,0,0,1,1.41,10.48c-.14.26-.62,1-.57,1.29-.07-.05-.24.34-.22.5s.24,0,.24,0a.4.4,0,0,0,.65-.19,1.13,1.13,0,0,0,0,.86c.07.26-.29,1.22.57,1.51a7.36,7.36,0,0,0,1.51-.1l1.62,0a.86.86,0,0,0,.59,1,6.67,6.67,0,0,0,1.5-.1,45.93,45.93,0,0,1,4.81,0,9.81,9.81,0,0,0,2.61.07.88.88,0,0,0,.76-.29l.67.15a.21.21,0,0,0-.09-.31,3.29,3.29,0,0,1,1.43-.63,8.91,8.91,0,0,0,1-.19h.34l.93.12s0,.1.19,0,.38-.09.53-.16.4-.34.24-.53.78,0,1,.09,0-1-2.42-.62l-1.87-.05,3.09-.5s.6-.1.79.05c-.12-.1-.22-.77-2.2-.31l-1.54.06a2.28,2.28,0,0,0-.38-.1,4.29,4.29,0,0,0-1.55-.3,9,9,0,0,0-1.51.3h-.41l3.09-.5s.6-.1.79,0c-.12-.09-.22-.76-2.2-.31-.24,0-1.65.08-1.65.08a4.37,4.37,0,0,0-1.82-.41c-.74,0-2.44.6-3,.62a4.51,4.51,0,0,1-.74,0h-.08a.66.66,0,0,1-.15-.35,7.51,7.51,0,0,0-.12-1.34c-.1-.38-1.29-7-1.24-7.89.09-.4.79-2.41.38-3a1.83,1.83,0,0,1-1-1.7,2.27,2.27,0,0,1,.31-1.36,7.22,7.22,0,0,1,1.75-1.43m-5.77,2.14c.29-.1.59-.2.87-.31.32.05-.11.8-.11.8l.17-.06s.34-.31.5-.21a13.72,13.72,0,0,0-.32,1.46,1.16,1.16,0,0,0-.06-.15,1.81,1.81,0,0,1-1-1.53m1.91,12.46c-.1-.38-1.29-7-1.25-7.89,0-.2.25-.81.38-1.44a5.34,5.34,0,0,0,.44,1.13,52.79,52.79,0,0,1,1.41,10.44.51.51,0,0,0-.34-.14c-.33-.33-.52-.59-.52-.76a8.4,8.4,0,0,0-.12-1.34" fill="#022d3d"/><path d="M61.29,484c-.79-1.94-3.92-1.56-3.92-1.56l-3.13,2.33s-.77-5.46-13.69-9S20.21,461,20.21,461c-2.73,17.59,28.17,34.82,28.17,37.15s-7.43,9-8.62,8.6-14.46,5.09-13.29,5.48,18.78.4,21.12,1.19,4.69,5.47,4.31,2.72a18,18,0,0,1,.38-6.64c.39-2,4.31-5.88,4.31-5.88,2.74,12.93,21.51,22.7,21.51,22.7-3.92-11-14.08-32.08-15.25-33.63S62.06,486,61.29,484" fill="#022d3d"/><path d="M1373.33,251.87c-1.49,0-28-2.23-34-7.83s-7.84-26.14-7.84-26.14c-4.85,1.11-3,7.09,1.14,17.92s-1.5,14.18-1.5,14.18c1.86,19.06,20.17,12.33,17.18,10.83s-5.61-7.09-5.61-7.09c9.34,7.09,32.12-1.87,30.62-1.87" fill="#022d3d"/><path d="M206.08,227l-2.24-1.14,1.5-20.91s-4.11,11.58-3.36,14.93-10.09,1.13-2.25,16.81c0,0,1.5,4.47,1.12,6s6,6.34,9.72,5.6c0,0-4.49-9.35-2.62-11.59s14.19-3.37,20.91,0,10.45,1.86,7.84-3-20.15-11.95-30.62-6.7" fill="#022d3d"/><path d="M149.93,387c1.58,0,5.08,3.54,5.08,3.54,2.36,0,2,11.33,2,11.33s2.34-1.56,3.53-1.19,3.13-1.16,3.13-2.33,0-7.81-2-13.29-5.09-3.91-7-5.49-21.12,1.18-21.12,3.52S148.36,387,149.93,387" fill="#022d3d"/><path d="M106.67,251.83c-3,.38-4.47-3.74-4.47-5.22s-.76-6.73-3.75-6S87.62,252.57,91,259.29a43.66,43.66,0,0,0,5.6-3.37s-.75,15,10.46,21.67c0,0,3,1.14,0-4.09s-.38-9-.38-9,4.85.76,7.1,1.14,9.33,14.18,9.33,15.68,6.35-13.07-9.33-30.64c0,0-4.11.76-7.1,1.13" fill="#022d3d"/><path d="M1263.12,245c-3.35-1.51-2.61,1.87-2.61,1.87,3.73,22.78,17.93,15.3,17.93,15.3-3.37,0-7.1-7.47-7.1-7.47,1.87.38,25.77-10.45,24.65-12.31s-25.77,4.85-25.77,4.85c-2.23-1.87,4.49-20.55,4.49-20.55-14.56,7.85-8.22,19.8-11.59,18.31" fill="#022d3d"/><path d="M1008.39,144.11a15.35,15.35,0,0,1-4.49,2.62s3.35,7.47,7.1,9.33,9.32,4.11,12,3.37-8.59-8.6-5.6-12.32,3.73,1.49,8.58,3,23.9.38,29.5-4.09c0,0-26.13,0-39.58-14.58,0,0-.76-4.85-2.61-6s-4.11,1.49-3.37,3c0,0-14.92-9.71-15.68-24.64,0,0-7.84,3.72,13.44,34.36,0,0,2.24,4.46.76,6" fill="#022d3d"/><path d="M1087.29,22.4l-8.6.74s1.12,4.49,4.85,6.36-1.48,17.54,2.63,23.15l-.76,4.1-7.1,3.73s4.86,15.32,11.59,18.68,19-1.48,20.91-3.36-9.72-14.56-9.72-14.56l-.36-6s8.58.38,11.19-1.48,4.11-1.51,4.11-1.51,16.44,13.44,17.56,14.95,4.48.72,6,1.48,8.6-9.69-9.69-27.63c0,0-8.22-9.71-11.59-9.71s-10.46,3.74-13.07,3.74S1103,22,1103,22s-5.23-13.82-9-15.32-43.33-3.35-46.3-6.35,0,12.69,39.58,22" fill="#022d3d"/><path d="M252.29,454.41c-5.61,3-14.94.76-14.94.76,1.49-1.5,1.49-19.81,1.49-19.81-6.72-.36-7.1,20.19-8.21,19.43s-3.36-2.61-3.74,0,13.83,14.56,13.83,14.56c-1.5-1.87-.76-6-.76-6,13.45,1.11,17.93-12,12.33-9" fill="#022d3d"/><path d="M1111.59,309.64s10.08,14.93,25.4,12.32c0,0-22.78-16.42-23.9-25s1.12-9-1.14-8.59-4.09,1.11-3.73,3.36c0,0-12.68-16.43-13.06-30.63,0,0-4.49,8.59,10.07,40.33,0,0,.38,3.37-1.12,5.23s-3,4.11-2.23,6.36,4.49,7.84,8.59,8.21Z" fill="#022d3d"/><path d="M1193.83,488.38c-4.49-3-39.58-39.57-40.7-47.79s-1.87-7.84-4.49-8.59-2.61,6-4.48,3.74-19.79-7.09-32.86-13.45-16.8-11.19-16.8-11.19c22.79,37,47.42,36.59,46.31,38.09s-7.11,1.49-7.11,1.49c-1.11,17.56,26.89,26.51,24.28,23.16s-.75-8.6-.75-8.6c10.83,15.31,42.94,28.37,42.94,28.37a31.25,31.25,0,0,0-6.34-5.23" fill="#022d3d"/><path d="M1278.11,326c-10.57-3.13-35.6-30.12-35.6-30.12s1.56-3.53-.38-6.26-5.49.38-5.49,1.56-3.13,1.95-3.13,1.95c-10.16-.38-44.18-13.69-44.18-13.69,5.07,21.13,41.85,28.95,41.85,28.95-1.57-.39-9,3.93-10.56,6.64s8.2,9,8.2,9,1.19-4.69,2.36-3.53,2.73,8.22,2.73,8.22c2.73,3.91,16.81-.39,16.81-.39a21.82,21.82,0,0,1-7-14.08c6.26,18.77,45,14.87,34.42,11.74" fill="#022d3d"/><path d="M1333.27,136.16s.37-2.62,4.48-1.5,31.37-1.5,50.78-13.44c0,0-35.85-4.48-51.53.38,0,0,11.2-38.11,13.45-38.85s-1.5-6.72-9,3.35-16.8,22.05-18.68,30.64c0,0-3-3-3.73-4.86s-5.22-.36-4.11,4.11-1.85,10.45,4.49,19c0,0-4.11,4.09-6,2.62,0,0,14.92,18.67,18.29,19.78s11.19,1.5,15.68-7.48c0,0-14.19-8.57-14.19-13.8" fill="#022d3d"/><path d="M1269.75,56.83c-3.13-1.56-11.33,1.56-13.68,2s-2-3.13-2-3.13-.77-9.39-.77-10.56-6.65,3.51-5.48,9.77-4.3,5.09-1.95,10.95l-7.05.78s3.13,17.6,18.78,12.93c0,0-6.26-7.85-4.3-9.8s12.12-3.51,13.29-2.35,11.74,5.48,14.87,4.7-8.61-13.69-11.74-15.25" fill="#022d3d"/><path d="M24.56,386.46c6.64.39,5.87,4.3,5.87,4.3-2.36.78-1.57,3.12-.4,8.61s12.52,8.2,12.52,8.2a43.68,43.68,0,0,1-2.74-6.64c-.39-2,0-9,0-9s2.74,3.14,3.91,4.71,1.56,13.69,1.56,13.69,1.56,1.56,2.36.37,3.52-30.1-1.57-30.1-8.61-1.56-8.61-3.9A8.72,8.72,0,0,0,34,370c-2-1.19-2.35,3.11-3.92,2.73s3.92-5.47-13.69,0-17.6,12.91-15.25,14.48,16.82-1.17,23.47-.79" fill="#022d3d"/><path d="M246.92,332.13s-10.83-8.2-4.49-8.2,10.83,14.94,11.21,18.67,5.61,1.87,3.36-12.7-3.74-17.16-12.32-17.54a5.91,5.91,0,0,1-2.25-6.36c1.12-4.09-3.73-3.73-4.47-.74s-3,3.35-4.86-1.88-24.64,6.74-25.76,12,6.72.36,7.84.72c0,0,13.45-1.47,15.68,1.14s-3,7.46-5.61,7.84,6,9.34,10.46,9.71,11.21-2.63,11.21-2.63" fill="#022d3d"/><path d="M310.94,44.46c1.57,0,14.86-5.87,16.42-8.21s-17.59-1.19-20.72,1.55c-1.47,1.29-1.73,1.44-1.59,1.27a10.22,10.22,0,0,1,.8-.88s-3.52-10.15-2-10.95c0,0-5.07-1.56-4.69,11.73,0,0-2.74-1.94-3.13,0s2.75,5.49,4.32,7.05,9,7.82,12.51,7,2.34-2,2.34-2S310.55,48,309.38,48s0-3.52,1.56-3.52" fill="#022d3d"/></g></g></svg>