<svg id="Layer_1" data-name="Layer 1" xmlns="http://www.w3.org/2000/svg" xmlns:xlink="http://www.w3.org/1999/xlink" viewBox="0 0 1690 575.83"><defs><style>.cls-1{fill:none;}.cls-2{clip-path:url(#clip-path);}.cls-3{fill:#231f20;}.cls-4{fill:#0d7ba0;}.cls-5{clip-path:url(#clip-path-2);}.cls-6{fill:#013e53;}.cls-7{clip-path:url(#clip-path-3);}.cls-8{fill:url(#linear-gradient);}</style><clipPath id="clip-path" transform="translate(0 -404.17)"><rect class="cls-1" width="1400" height="980"/></clipPath><clipPath id="clip-path-2" transform="translate(0 -404.17)"><path class="cls-1" d="M107.86,622.65c-16.46,4.2-36.22,0-44.45,4.2S55.18,646.77,42,649.92c-8.84,2.11-27.31,1.86-42-.12V785.09H1400V660.5c-13.74,6.64-27.59,14.59-47.35,14.59-16,0-48-6.58-79.55-11.89-8.92-1.5-17.81-2.91-26.3-4-20.21-2.66-38.17-3.74-48.93-.86-18.68,5-50.88,17.88-78.34,27-11.82,3.92-22.75,7.13-31.36,8.72a45.74,45.74,0,0,1-12.14,1c-21.4-2.1-67.5-22-102.08-16.78s-64.22,38.81-80.69,34.61-34.57-14.68-34.57-14.68-19.76,15.73-47.75,4.19-52.69-22-90.56-18.88-69.16,13.64-80.68,4.2S606.77,677.19,587,677.19s-69.16-29.36-108.67-29.36S396,666.7,381.19,664.61s-49.4-26.22-65.86-39.86-39.51-9.44-54.34-7.34-21.4-18.88-62.57-22c-2.31-.17-4.61-.26-6.87-.26-38,0-68.15,23.58-83.69,27.53"/></clipPath><clipPath id="clip-path-3" transform="translate(0 -404.17)"><path class="cls-1" d="M1179.19,665.05c-29.18,2.73-33.85,20.94-44.36,19.12s-26.84-5.46-38.52,6.37-36.18,32.78-46.69,34.61-40.85-14.57-68.87-14.57-63,25.49-77,25.49-29.18.91-37.36,9.11-30.34-.91-57.19-3.64-44.36,6.37-64.2,16.39-33.85-3.64-33.85-3.64-12.84,9.1-24.52,12.74-32.68-25.49-57.2-30S572.2,749.73,557,751.55a26.63,26.63,0,0,1-8.6-.87c-6.11-1.38-13.85-4.17-22.23-7.57-19.47-7.9-42.3-19.07-55.55-23.43-7.62-2.5-20.35-1.56-34.68.75-6,1-12.32,2.19-18.65,3.49-22.39,4.61-45,10.33-56.39,10.33-22.18,0-33.85-17.3-51.36-20-7.43-1.16-18.64,0-30.07,1.11-8.77.87-17.67,1.74-25.08,1.58-5.7-.13-10.51-.87-13.72-2.69-.64-.36-1.28-.71-1.92-1-11.11-5.89-22.41-8.09-36.89-1.92-1.43.6-2.88,1.27-4.38,2-4.81,2.5-11.74,4.52-19.69,6.11-21,4.22-49.12,5.48-64.35,4.82-21-.92-58.37,0-72.38,5.46-6.51,2.54-24.1,1.93-41.08.55v99.5H1400V715.37c-6.78,1.84-12.22,3.68-14.2,5.22-7,5.47-24.51-4.55-30.35-12.74s-15.17-3.65-23.34.91-32.69,6.37-42,3.64-9.34-16.39-15.17-20-19.85,0-31.52-3.64c-11-3.43-32.42-23.9-59.32-23.9-1.61,0-3.24.07-4.88.23"/></clipPath><linearGradient id="linear-gradient" y1="343.11" x2="1400" y2="343.11" gradientUnits="userSpaceOnUse"><stop offset="0" stop-color="#013e53"/><stop offset="1" stop-color="#013e53"/></linearGradient></defs><g class="cls-2"><rect class="cls-3" y="302.83" width="1400" height="273"/><rect class="cls-4" y="427.9" width="1400" height="147.93"/><g class="cls-5"><rect class="cls-6" y="190.95" width="1400" height="189.97"/></g><g class="cls-7"><rect class="cls-8" y="260.65" width="1400" height="164.93"/></g><g class="cls-2"><path class="cls-4" d="M1358.92,757.52c-14-7.41-51.36-8.65-72.38-7.41-15.23.89-43.36-.82-64.35-6.53-8-2.17-14.88-4.91-19.69-8.3-1.5-1.06-3-2-4.38-2.79-14.48-8.36-25.78-5.38-36.89,2.61-.64.46-1.28.92-1.92,1.42-3.21,2.47-8,3.47-13.72,3.64-17.07.52-42-6.43-55.15-3.64-17.51,3.7-29.18,27.17-51.36,27.17-11.35,0-34-7.75-56.39-14-6.33-1.77-12.63-3.42-18.65-4.74-14.33-3.14-27.06-4.41-34.69-1-13.24,5.9-36.07,21.06-55.54,31.78-8.38,4.62-16.12,8.4-22.23,10.28-3.45,1.07-6.4,1.54-8.6,1.18-15.18-2.47-47.86-25.95-72.37-19.77s-45.53,45.71-57.2,40.77-24.52-17.3-24.52-17.3-14,18.53-33.85,4.94-37.35-25.94-64.2-22.23-49,16.06-57.2,4.94-23.34-12.36-37.35-12.36-49-34.58-77-34.58-58.37,22.23-68.87,19.76-35-30.89-46.69-47-28-11.11-38.52-8.64-15.18-22.24-44.36-26-52.53,27.18-64.2,32.12-25.68,0-31.52,5-5.83,23.47-15.17,27.17-33.85,1.24-42-4.94-17.5-12.35-23.34-1.23S21.2,752.58,14.2,745.16c-2-2.09-7.42-4.59-14.2-7.08V893.26H1400v-135c-17,1.88-34.57,2.7-41.08-.74" transform="translate(0 -404.17)"/><path class="cls-4" d="M1072.42,821.81h1.69q110-.76,220-1.49l231.55-1.43q82.15-.51,164.31-1V733.78c-3-1.6-5.89-3.17-9.12-3.63-5.7-.73-11.13,1.52-16.39,4.15-4,5-12.45,6.14-16.4.74a30.42,30.42,0,0,1-10.28-3.61h0a25.55,25.55,0,0,1-9.82-10.32c2.19.67,4.42,1.43,6.74,2.38a61.12,61.12,0,0,0-7.3-3.72c-.58-2.32.75-3.8-2.27-1.45a4.16,4.16,0,0,1-.66.27,59.53,59.53,0,0,0-18-3.94,61.63,61.63,0,0,1,13.84-3.22,41.65,41.65,0,0,1,3.62,3q-1.61-1.63-3.18-3a75.77,75.77,0,0,1,26.92,1.92c-11.87-4.64-22.19-6-31.09-5.35a38.74,38.74,0,0,0-10.21-5.66,132.09,132.09,0,0,1,16.42-9.39,87.37,87.37,0,0,0-19.2,8.57,22.64,22.64,0,0,0-12.46.39c10.82-10.4,20.83-14.16,20.83-14.16-11.81.61-21.88,8.93-29.91,19.19a50.61,50.61,0,0,0-9.53,10.43,84.7,84.7,0,0,1,8.4-20.16c.66-.7,1.34-1.37,2-2a33.13,33.13,0,0,1,4,1.48c-1.26-.66-2.48-1.24-3.67-1.76a95.23,95.23,0,0,1,10.55-9.06,114.25,114.25,0,0,0-10.66,8c4.67-6.66,9.75-10.49,14.59-12.57,1.72,1,3.07,2,3.93,2.65-1.25-1-2.49-1.91-3.68-2.75a28.1,28.1,0,0,1,21.87.28c-9.92-5.94-18.33-6.07-25.43-2.68a45.92,45.92,0,0,0-12.84-5.83,111.6,111.6,0,0,1,16.74-21.45,110.72,110.72,0,0,0-19.48,20.89,20.36,20.36,0,0,0-6.53,0,118.71,118.71,0,0,1,11.06-17.68,114.62,114.62,0,0,0-14.11,18.49c-9.08,3.35-14.31,14-17.27,26.39a30.7,30.7,0,0,0-2,3c-.86-1.42-1.78-2.86-2.72-4.29a230.35,230.35,0,0,1,.82-36.65c-3.36,8.89-4.07,20.75-3.43,32.85-8.23-11.41-19.32-22.17-34.13-29.22,0,0,19.69,11.06,34.71,37.12.29,3.12.66,6.21,1.06,9.22,0,0,0,0,0,0l-.76-.59c-11.45-16.7-27.32-31-45.4-22.45q-3.43-1-7.13-1.76a59.7,59.7,0,0,1,6,2.33,42,42,0,0,0-8.52,6.09,89.37,89.37,0,0,0-11.6-1.3,63.3,63.3,0,0,1,10.46,2.41c-1.22,1.18-2.45,2.54-3.68,4a37.35,37.35,0,0,1,4.27-3.76,83.21,83.21,0,0,1,12.57,5.1,44.38,44.38,0,0,0-9.11,4.57,32,32,0,0,1,11.18-3.49,76.73,76.73,0,0,1,25.42,21.81,66.69,66.69,0,0,0-10.42-2.93c-15.43-10.13-33.78-13.24-47.25,12.32,0,0,13.63-22.66,36.44-13.67a91.9,91.9,0,0,0-12.33.2,77.5,77.5,0,0,1,15.51,1.25,58.48,58.48,0,0,1,15.24,11.74,36.36,36.36,0,0,0-12.34-2.64c-11-3.5-22.94-4-33.31,3.31a57.27,57.27,0,0,1,23.51-1.62,28.17,28.17,0,0,0-10.85,7.91,82.12,82.12,0,0,0-19.89,5.35,116.93,116.93,0,0,1,17.84-2.8,57.42,57.42,0,0,0-6.54,11.61c-.59.39-1.19.92-1.8,1.35-4.2-1.78-8.14-3.92-12.83-2.75-4,1-5.64,6-9.15,8.22-10.65,6.7-18.39-4.62-27.91-8.26a11.2,11.2,0,0,0-8.72-.29c-2.07.74-5.57,4.33-7.15,3-4.71-4-8.85-.39-13,3.16-5.38,4.61-9.2-2.62-14.44-4.34s-9.56,1.44-13.47,5.83c-3.8,4.23-7.06,7.68-12.38,7.24-4.89-.37-7-6.28-12-5.52a13.52,13.52,0,0,1-3.64,3.15,13.81,13.81,0,0,1-6.37,2.41v0c-3.52,1.7-7.64-.2-11.32-.2-4.09,0-6.67-2.14-10.39-3.8-3.12-1.35-5.26.2-7.64,2a8.39,8.39,0,0,1,.64-2.89,51.83,51.83,0,0,1-1.1-5.32l1.38-.18,2.25-.29-2.25-.28-1.5-.18c-.3-2.59-.19-5.1,1-5.9.42-.17.86,0,1.24-.33l-.47-.09c-.56.28-1,.31-1.35-.33-.44-.87.29-1.5.19-2.32a4.37,4.37,0,0,0-.32-1.09l.57-.08,2.24-.29-2.24-.28-.87-.1a3.83,3.83,0,0,1-.22-2.15c.13-.27.25-.51.39-.77.13-.63-.63-1.55-.52-2.48.14-.53.26-1.06.39-1.6l.83-.11,2.24-.28-2.24-.28-.7-.09c-.07-.63-.59-1.1-.45-2.13.07-.59.13-1.24.17-1.9l1.29-.17,2.23-.29-2.23-.28-1.27-.16a29.33,29.33,0,0,0-.3-5l1.11-.14,2.25-.3-2.25-.28-1.22-.15a19.41,19.41,0,0,1,.57-3.61l1.11-.14,2.23-.28-2.23-.28L1313,723a12.39,12.39,0,0,0,.23-1.27,11.66,11.66,0,0,1-.74-5.23l1.56-.21,2.25-.28-2.25-.28-1.4-.17a4.92,4.92,0,0,1,.38-1.06c-.41-1.73.49-2.87.2-4.08-.19-.36-.36-.73-.55-1.09l1.82-.23,2.25-.3-2.26-.27-1.82-.24.09-.86c-.08-.38-.21-.73-.28-1.13l1-.12,2.25-.29-2.25-.28-1.07-.13a2,2,0,0,1,.07-.54l.06-.24,2-.26,2.26-.29-2.26-.27-1.71-.23.57-2.12a16,16,0,0,1-1-4.26l1.68-.22,2.25-.29-2.25-.27-1.68-.21a1,1,0,0,0,0-.17c.2-.43.38-.88.58-1.32l-.32-1c0-1.06.07-2.1.11-3.17l1.45-.18,2.25-.28-2.25-.28-1.51-.19c-.1-.55-.27-1.45-.37-2.33l1.73-.22,2.25-.29-2.25-.28-1.84-.22a4.29,4.29,0,0,1,0-1.13c.25-.76.5-1.5.77-2.25-.13-.5-.27-1-.39-1.49.08-.42.17-.83.26-1.25,0-.1,0-.21-.05-.32l1.2-.15,2.25-.3-2.25-.27-1.35-.17a4.65,4.65,0,0,1,.33-1.79c-1.29-1.36-1-5.2-.61-7.53l1.93-.25,2.24-.3-2.24-.27-1.83-.23c0-.79,0-1.58.51-1.73-.11-.12-.22-.22-.33-.33a20.56,20.56,0,0,1-.34-2.53l2-.25,2.23-.28-2.23-.29-2-.25a4.9,4.9,0,0,1,.45-2.56c-.71-2-.9-2.91.06-4.51l.78-.09,2.24-.29-2.24-.28-.75-.09a8.66,8.66,0,0,1-.16-2.49,14.92,14.92,0,0,1,.31-6.27.48.48,0,0,1-.09-.11l1.41-.18,2.23-.28-2.23-.29-1-.12.06-.09c.07-.17.14-.34.22-.5-.08-.76-.24-1.11.07-1.71l.4-.09c.11.11.22.23.31.34a16.34,16.34,0,0,1,1-1.34,2.42,2.42,0,0,1-.63-.82c.08-.23.17-.45.27-.67.74-.21,1,.16,1.46.26.33-.35.68-.68,1-1a6.21,6.21,0,0,1,.4-1.73,3.42,3.42,0,0,0,1.24.33c.49-.39,1-.79,1.49-1.17a2.13,2.13,0,0,1,0-.74c.69-.36.94-.33,1.08-.17.41-.32.83-.67,1.24-1a1,1,0,0,1,0-.24c.21-.55.46-.57.7-.39.13-.1.22-.21.35-.32l2.21.12,2.24.12-2.2-.68-1.32-.43.09-.09c.69-.69,1.36-1.43,2-2.18a1.4,1.4,0,0,1-.16-1.22c.07-.13.13-.27.2-.41l1.68-.5h0c1.11-1.39,2.14-2.88,3.14-4.41l1.53.07,2.24.12-2.18-.67-1-.33.2-.31a2.45,2.45,0,0,1,0-1.12,1.77,1.77,0,0,1,1.07-.58c1.46-2.39,2.82-4.88,4.15-7.42l-.06.48,2.25.12,2.26.12-2.19-.68-2-.62c.78-1.48,1.55-3,2.29-4.45a.93.93,0,0,1,.34-.78s0,.05,0,.07.13-.25.19-.36l1.79.09,2.25.11-2.19-.67-1.4-.44c1-2,2-3.92,2.93-5.84.22-1,.49-1.95.74-2.92l2.24.12,2.26.12-2.2-.68-2-.63c.14-.45.26-.93.4-1.39l-.42-.06c0-.17.09-.33.13-.5a4.56,4.56,0,0,1,.49-.19c.36-1.26.71-2.54,1-3.81l1.53.09,2.26.1-2.19-.68-1.36-.42c.09-.4.21-.81.3-1.21s.14-.58.2-.88h.06l2.26.11L1348,588h0a2.8,2.8,0,0,0,.09-.31,1.47,1.47,0,0,1,.06-.45h0l0-.24,1,.06,2.24.1-2.19-.67-.88-.28c.07-.41.16-.83.23-1.25a1.59,1.59,0,0,1-.34-1.61l.6,0c.12-.8.21-1.6.31-2.4a2,2,0,0,1-.79-1.31l1.16,0,2.25.13-2.2-.7-.76-.23a3.57,3.57,0,0,1,.57-.1c.07-.7.13-1.39.18-2.09-.26-.25-.58-.42-.92-.73v-.41a7.76,7.76,0,0,1,1.09-1.28c0-.36,0-.76.06-1.13l.59,0,2.25.11-2.2-.67-.61-.21c0-.85.1-1.71.13-2.58l.63.05,2.27.11-2.21-.69-.88-.26s0-.08,0-.13a.64.64,0,0,1,.19-.08l.06,0c0-.2,0-.39,0-.59,0-.75.06-1.5.12-2.24-.16-.18-.31-.37-.47-.56v-.33a3.15,3.15,0,0,1,.57-.52c0-.69.11-1.37.17-2.07l.95.06,2.27.11-2.2-.67-1-.3a.06.06,0,0,1,0,0,.83.83,0,0,1,0-.15s0-.05,0-.09c.09-.87.18-1.76.27-2.61-.1-.13-.22-.25-.32-.37a1.6,1.6,0,0,1,.42-.51c.09-.8.17-1.6.28-2.39l-.12-.11v-.23a.75.75,0,0,1,.18-.13l.3-2.35c-.14-.13-.26-.26-.39-.39l1.66.09,2.26.12-2.19-.68-1.91-.59a1.4,1.4,0,0,1,.84-.69l.51-3.81,1.06.06,2.25.11-2.18-.67-1-.32a3,3,0,0,1,.06-.32c-.2-.21-.44-.36-.63-.59a3.36,3.36,0,0,1,.2-1.16,5.42,5.42,0,0,0,.69-.37c.1-.78.18-1.55.27-2.32a1.7,1.7,0,0,1-1-.55,2.61,2.61,0,0,1,.37-1.17,2.57,2.57,0,0,0,.8-.13c0-.19,0-.38,0-.57l.28,0,2.25.11-2.2-.68-.26-.08c0-.38.09-.76.12-1.14a6.51,6.51,0,0,1-.57-.7c0-.5.12-1,.18-1.5l.5-.32c0-1.13,0-2.26,0-3.36a2.43,2.43,0,0,1-.37-1.39,1.45,1.45,0,0,0,.3-.05c0-.15,0-.32,0-.47l1.83.09,2.26.12-2.2-.68-2-.61c0-.49-.1-1-.16-1.45a1.17,1.17,0,0,1-.17-.29,1.84,1.84,0,0,1,0-.81,29.85,29.85,0,0,0-1.36-5.4l1-2.17,1.11-2.52-1.56,2.1-1,1.36a16.86,16.86,0,0,0-3.86-5.61l-.15-.13a.73.73,0,0,1-.16.14l.21-.63.92-2.68-1.38,2.31-.66,1.1c-.13-.23-.26-.45-.39-.69l-1-.58a7.77,7.77,0,0,1-.44-1,8.17,8.17,0,0,0-4-.77,2.27,2.27,0,0,1-.44.38l-.6-1.13-1.25-2.4.78,2.73.24.9a.74.74,0,0,1-.13-.21,13.94,13.94,0,0,0-2.15,1.08,3.85,3.85,0,0,1-.7,1.54,1.87,1.87,0,0,1-.69-.61c-.37.29-.73.6-1.09.92l-.82-.65-1.9-1.57,1.56,2.11.52.69a22.55,22.55,0,0,0-3.72,4.83c-.1.32-.18.64-.27,1l-.34-.15-2.14-.93,1.91,1.57.35.29c-.19.74-.36,1.49-.52,2.24l-1.44.2-2.23.26,2.23.3,1.25.15c-.07.43-.15.85-.25,1.27a3.24,3.24,0,0,1-.1,2.33l-.13.1c0,1,0,1.91,0,2.86l-.79.11-2.23.28,2.23.28.79.1c0,3.12-.17,6.24-.37,9.36l-.72.09-2.25.28,2.24.29.68.07c-.22,3.35-.5,6.7-.71,10l-1.47.19-2.23.27,2.23.3,1.39.18c0,.25,0,.5,0,.76a.9.9,0,0,1,.4-.53c-.24,3.87-.39,8.52-.84,12.52l-.9.12-2.23.27,2.23.28.8.11c0,.25-.06.52-.09.76,0,1.2-.06,2.39-.07,3.58-.1.59-.22,1.19-.34,1.79l-1.5.2-2.24.28,2.24.28,1.4.18c0,3-.18,5.95-.36,8.92l-.44.06-2.24.28,2.24.29.4,0c-.12,1.76-.24,3.5-.42,5.25s-.39,3.75-.65,5.66l-1.14.14-2.23.28,2.23.3,1,.12a61,61,0,0,1-2.87,12l-1.44.18-2.24.28,2.24.29,1.1.15a27,27,0,0,1-4.48,7.74c-.82,2-2.09,4.38-3.59,4.66l-.32-.16c-.41-1.49.08-2.57-.13-3.75-.13-.69-.23-1.29-.28-1.85l1.48-.19-1.53-.19a6.06,6.06,0,0,1,.09-1.76,34.2,34.2,0,0,1-.26-6.54l1.28-.16,2.24-.29-2.24-.27-1.37-.18a2.12,2.12,0,0,1-.1-.4,60.1,60.1,0,0,1-.77-9.15l1.63-.21,2.25-.29-2.25-.28-1.65-.19c0-3.36.21-6.71.48-10l.57-.08,2.24-.28-2.25-.28-.51-.07v0a11.35,11.35,0,0,1,.34-4c0-.38.06-.75.08-1.12v-1.34l.15-.26a1.83,1.83,0,0,1,0-.35l2.16-.28-2.13-.26c.07-.86.15-1.7.19-2.54,0-.31-.1-.63-.12-.95a2.31,2.31,0,0,1-.34-.76l.46-.06,2.23-.3-2.23-.27-.58-.08c-.24-1.7-.39-3.41-.48-5.12l.61-.06,2.24-.29-2.24-.27-.64-.1c-.06-1.22-.08-2.44-.08-3.66l1.17-.16,2.23-.29-2.23-.28-1.16-.14c0-2.18.1-4.35.22-6.53l1.09-.13,2.24-.29-2.25-.28-1-.13c.11-1.69.23-3.4.36-5.12a2.2,2.2,0,0,1-.46-1.08.18.18,0,0,0,0-.1L1313,546l2.21-.28-2.24-.28-1.55-.19a16.87,16.87,0,0,1,.56-2.17l2.19-.28-2-.25c0-.11.07-.22.1-.33,0-.27,0-.52.07-.78l.63-.09,2.24-.28-2.24-.29-.59-.08c0-.26,0-.52,0-.78s-.15-.57-.24-.84a30,30,0,0,1-.29-5l.64-.08,2.24-.29-2.25-.29-.6-.07c0-.36,0-.69.06-1,0-.65-.07-1.28-.12-1.93a13.36,13.36,0,0,1,.8-2v-1h0l2.25-.29-2.25-.27-.14,0a14.27,14.27,0,0,1-.36-2.68l.35,0,2.24-.28-2.25-.28-.34,0v-.09l.14-1.08c-.18-.53-.35-1-.52-1.57l.84-2.92c-.09-.31-.17-.68-.26-1.09l.15,0,2.24-.28-2.25-.29-.24,0c-.47-2.91-.62-7.25.06-9.64l.49-.07,2.24-.29-2.25-.28-.24,0c.05-.09.08-.19.12-.28v0c-.31-1.13-.6-2.27-.9-3.4q0-.6.09-1.23l.9-.11,2.23-.29-2.23-.28-.89-.11c-.34-1.75-.68-1.45.27-3-.12-1.41-.2-2.84-.24-4.25l.15,0,2.24-.29-2.24-.28-.16,0c0-1.16,0-2.32,0-3.48-.05-.28-.1-.56-.17-.84a3.14,3.14,0,0,0,.18-.31c0-3,.22-6,.43-9a2.55,2.55,0,0,1-.07-.32l1.91-.24-2.08-.26a2.8,2.8,0,0,1,0-1.27c-.08-.73-.1-1.43-.12-2.15a2.31,2.31,0,0,0-.28-.1v-.34h.07l.21.1v-.19h0a2,2,0,0,0-.07-.23c0-.05.06-.06.07-.11,0-1.29,0-2.6.12-3.89l1.7-.22,2.24-.29-2.24-.27-1.66-.21c0-.54.07-1.07.09-1.6.09-1.41.14-2.82.16-4.23-.08-.06-.2-.1-.28-.17,0-.48.09-.73.32-.85V459l.78-.1,2.24-.29-2.24-.28-.78-.1v-1.34s-.1-.06-.12-.1,0-.37.06-.58l.06-.1c0-1.41,0-2.8-.07-4.19a2.14,2.14,0,0,1-.83-1.12.7.7,0,0,1,.8-.33c0-.8,0-1.61-.07-2.42l.34-.05,2.23-.28-2.23-.29-.35,0c0-.06,0-.12,0-.2a1.12,1.12,0,0,1-.21,0V447a3.9,3.9,0,0,1,.17-1.79q0-2.06-.09-4.08a1.3,1.3,0,0,1-.51-.3c0-.18,0-.36,0-.54l1-.13,2.23-.29-2.23-.28-.92-.11,0-.72c.12-.16.22-.32.32-.48,0-.95-.06-1.9-.1-2.86l1-.12,2.24-.29-2.24-.27-1-.13c-.06-1.68-.16-3.36-.26-5l.8-.11,2.25-.29-2.25-.28-.83-.1c0-.3,0-.6,0-.89a.91.91,0,0,1-.22-.13,15.54,15.54,0,0,1,0-1.78c0-.27-.07-.53-.11-.8l1.62-.2,2.24-.29-2.24-.28-1.76-.22c-.14-.92-.32-1.81-.53-2.69a7.29,7.29,0,0,1-.9-2.56,1.65,1.65,0,0,0,.09-.21c0-.15-.1-.28-.14-.43l1.41-1.73,1.64-2-1.91,1.55-1.5,1.21c-.12-.33-.24-.66-.39-1a13.59,13.59,0,0,0-.73-1.38,3.52,3.52,0,0,1-.94-1c-.25-.42-.54-.44-.63-1-.4-.38-.78-.72-1.19-1.08l.1,0,.43.12.21-2.89.23-2.89-.65,2.78-.61,2.59h0s0,.06-.07.08h-.26a5,5,0,0,1-1.06-1.33l-.26-.24a19,19,0,0,0-5.23-.84l.17-2.26.23-2.9L1298,407l-.55,2.35-1.67,0a23.71,23.71,0,0,0-6.36.76l-.76-2.08-1-2.62.55,2.82.41,2.1a17.51,17.51,0,0,0-4.2,1.94c-.08.05-.16.12-.24.18a3.7,3.7,0,0,1-.31.68s-.08.09-.1.14l-.86-2.35-1-2.64.54,2.83.55,2.82.42-.2a42,42,0,0,1-2.71,3.34l-1.25.17-2.23.27,2.23.29.67.08a8,8,0,0,0-.39.77,11.75,11.75,0,0,1-.27,1.84c-.12,1-.17,2.11-.2,3.18a14,14,0,0,1,.23,3.35l-1.57.2,1.54.2a.22.22,0,0,0,0,.08c.07.55.14,1.09.18,1.58a14.35,14.35,0,0,1,.07,1.45h0a5,5,0,0,1-.07,2.09c0,.56-.05,1.11-.1,1.66,0,.22,0,.42,0,.64h-.12l-2.23.26,2.23.3.15,0c.06,1.32.12,2.65.14,4a3.35,3.35,0,0,1-.15,1.06l-.18,0-2.24.29,2.17.27c0,.45,0,.88,0,1.33a2.4,2.4,0,0,1,.22.82q.39,3.76.66,7.53l-.46.07-2.25.28,2.25.28.51.07q.21,3.31.35,6.65l-.86.1-2.25.28,2.25.29.88.12c0,.82.07,1.65.09,2.47l-1.14.15-2.23.27,2.23.3,1.16.15c.06,1.91.08,3.82.11,5.75l-1.1.13-2.25.29,2.25.28,1.11.15q0,3.22,0,6.48l-1.57.2-2.24.27,2.23.29,1.58.2v.91l-.52.06-2.25.27,2.25.3.51.06c0,.7,0,1.4,0,2.09l-1.54.19-2.24.28,2.24.29,1.54.2c0,2.1-.06,4.21-.1,6.32l-1,.12-2.25.28,2.25.29,1,.13c0,2.2-.07,4.4-.1,6.58l-.72.1-2.25.28,2.25.28.71.1c0,1.26,0,2.52,0,3.77l-.23,0-2.25.27,2.25.3.22,0c0,1.58,0,3.17,0,4.75,0,.14,0,.28,0,.41l-.59.07-2.25.28,2.25.29.42.05a1.73,1.73,0,0,1-.25.51,4,4,0,0,1,0,.49c.17,1.05.27,2.13.34,3.21l-.24,0-2.24.28,2.24.28.29,0c0,.55,0,1.1,0,1.64a3.28,3.28,0,0,1-.24,1.23c.14,1.41.3,2.83.42,4.24l-.51.07-2.24.27,2.24.3.57.07c.31,3.32.59,6.66.75,10l-1.93.24-2.23.28,2.23.29,2,.25c.14,3.24.18,6.47.1,9.71l-.58.08-2.24.28,2.24.29.57.07c0,1.25-.09,2.51-.19,3.77a2.77,2.77,0,0,1-1.14,3.15,2.85,2.85,0,0,1,.21,1.3l-2,.25h0l1.75.21-1,1.18a.91.91,0,0,1-.72-.32,4.26,4.26,0,0,1,0-1.07h0a2.81,2.81,0,0,1,0-.58,3.71,3.71,0,0,1-1-2.33,3,3,0,0,1-.12-.71c-.31-.81-.61-1.62-.89-2.44l-.1,0a3.58,3.58,0,0,1-.4-1.5c-.77-2.56-1.4-5.19-2-7.82l1.08-.15,2.24-.27-2.24-.29-1.29-.16c-.49-2-1-4-1.57-6l2-.25,2.25-.29-2.25-.28-2.24-.28a62.64,62.64,0,0,1-1.69-9.11l1.22-.15,2.24-.28-2.24-.29-1.32-.16c-.4-3.54-.62-7.14-.9-10.68l1.92-.26,2.24-.28-2.25-.28-2-.25c-.16-1.85-.33-3.68-.54-5.48a3.42,3.42,0,0,1,.07-1.29,2.58,2.58,0,0,1-.61-1.92c.06-1.22,0-2.45,0-3.68l.32,0,2.24-.29-2.24-.29-.33,0-.46-.67a1.89,1.89,0,0,1,.4-1.21c0-.4,0-.78-.07-1.18a2.3,2.3,0,0,1-.2-.85,1.22,1.22,0,0,1,.14-.28c-.06-.68-.11-1.35-.16-2l1.27-.16,2.25-.29-2.25-.28-1.41-.18a3.47,3.47,0,0,1,0-.43c0-.41-.07-.81-.12-1.22a1.88,1.88,0,0,1-.2-1.85c-.19-1.58-.37-3.16-.59-4.73l1.1-.14,2.25-.29-2.26-.27-1.24-.17v-.44c-.22-1.75-.44-3.49-.63-5.23-.39-3.43-.73-6.88-1.1-10.31-.12-1.12-.27-2.24-.42-3.34-.2-1.41-.74-2.39-.45-2.86a4.41,4.41,0,0,1-.18-.8,2.64,2.64,0,0,1-.74-1.64c-.74-.77-.26-2.27-1.23-3.24,0,0-.06-.07-.08-.08l.83-2.47.91-2.66-1.38,2.31-1.25,2.08a8.25,8.25,0,0,0-5.49-1.66l-.61-1.14-1.28-2.4.78,2.72.28.92a6.43,6.43,0,0,0-3.46,1.88l-.38,1-.34.36-.72-1.35-1.28-2.42.79,2.74.51,1.77c-.08.07-.12.14-.19.2a20.28,20.28,0,0,0-1.36,6.23v.38l0,.2c0,.22,0,.45,0,.66,0,.55,0,1.11,0,1.67l-1.27.16-2.24.28,2.24.28,1.26.16c0,.27,0,.51,0,.76a1.08,1.08,0,0,1,.12.24c0,.42-.07.84-.11,1.26,0,.78,0,1.56,0,2.36.11.38.23.8.34,1.22l-.45.05-2.23.28,2.23.29.59.06a1.7,1.7,0,0,1,0,.22c-.06.62-.13,1.22-.2,1.83.12.88.23,1.77.34,2.66l-.77.1-2.23.28,2.23.29.87.11c.19,1.54.4,3.08.62,4.54v1.75a4.24,4.24,0,0,1,.25,1.74c0,.26-.13.56-.18.89.07.53.15,1.06.24,1.57a3.87,3.87,0,0,1,0,1.28c0,.26,0,.51,0,.77l-2.24.28,2.24.29h0c0,.44.06.87.1,1.32.5,3.2,1,6.4,1.41,9.6L1250,494l-2.23.28,2.23.28,1.38.19q1.1,8,1.86,16.15l-1.72.22-2.25.28,2.25.28,1.8.24c.17,1.85.34,3.71.48,5.56,0,.2.08.39.13.58s.08.21.13.33c.14.55.3,1.09.44,1.63l-.28,0-2.22.27,2.22.3.46.05c.32,1.16.65,2.33,1,3.49a4.34,4.34,0,0,1,.25.54h-.13l-2.26.29,2.26.28.36,0s0,.1,0,.16c.22,1,.42,1.79.56,2.65.54,1.92,1.09,3.85,1.65,5.76l-1.13.14-2.24.28,2.24.29,1.39.18a1.19,1.19,0,0,1,0,.22,2.37,2.37,0,0,1,.26.47l.09.66c.22.74.47,1.46.71,2.19,0,.15.12.32.18.55.21.71.42,1.42.66,2.13l.51,1.42-1.43.18-2.25.26,2.25.29,1.77.24c1,2.56,2,5.08,3,7.61l-1.18.14-2.24.28,2.24.29,1.54.19c.06.15.13.3.18.45a.92.92,0,0,1,.67.32,1.31,1.31,0,0,1,.06.27,1,1,0,0,1-.18.42c.17.28.34.56.5.84s.43.54.64.81l-.1,0-2.24.28,2.24.29.62.07,4.26,5.43-1.26.14-2.24.29,2.24.29,2.17.28a.49.49,0,0,1,.11.31l1.4,1.87.12,0c1,.62,1,1,.91,1.49.48.69,1,1.41,1.39,2.12h-.06l-2.26.28,2.26.29.47.07c.46.76.94,1.53,1.38,2.33.37.08.77.13,1.16.24a7.12,7.12,0,0,1,.75,2.81,2.77,2.77,0,0,1,1.32,3l-.21,1.47a3.1,3.1,0,0,1,.29,1.35,91.21,91.21,0,0,1-.41,9.36c1.52,17.1-.4,34.16-.5,51.28a2.81,2.81,0,0,1-.63,1.88c0,.31.06.62.11.93a3.21,3.21,0,0,1-.38,2.09c.15.67.32,1.43.17,1.65h0a50.22,50.22,0,0,1,.74,9.21,3.43,3.43,0,0,1-.37,1.43l0,0a4.54,4.54,0,0,1-.12.5c-.2.1-.49.27-.79.4a1.89,1.89,0,0,1-.45.17l-.15-2.52-.18-2.92-.37,2.88-.32,2.45a1,1,0,0,1-.29-.19,2.16,2.16,0,0,1-.4-.4,19.19,19.19,0,0,1-1.93-3.19,0,0,0,0,0,0,0c-.13-.29-.27-.56-.4-.86s-.24-.58-.36-.87-.21-.52-.31-.78-.09-.27-.13-.39l.9-2.06,1.12-2.52-1.56,2.1-.88,1.19s0-.09,0-.14l-.06-.19a42.93,42.93,0,0,1-1.12-5.26,8.87,8.87,0,0,1-1-1.56.16.16,0,0,0,0-.09c-.12-.26-.24-.5-.34-.76a1.59,1.59,0,0,1-.07-.2c-.09-.22-.17-.46-.26-.7a3.58,3.58,0,0,0-.11-.35c0-.19-.09-.37-.15-.57l-.15-.59c0-.12-.05-.24-.08-.37-.14-.66-.28-1.35-.37-2.05,0-.12-.06-.26-.08-.38-.28-1.71-.55-3.37-.86-5l.72-.51,2-1.43-2.17.78-.67.23c0-.11-.06-.23-.08-.35h0a1.42,1.42,0,0,1-.45-1.17,2.9,2.9,0,0,1,.22-.37c0-.16-.06-.32-.1-.49h0c-.12-.7-.25-1.42-.4-2.13h0c-.13-.63-.25-1.25-.39-1.89l1.3-.93,2-1.42-2.18.76-1.34.46-.09-.47c0-.21-.09-.41-.13-.62s-.08-.33-.12-.51h0c-.09-.43-.2-.85-.29-1.29h0c-.67-3-1.36-6-2.11-8.92l1.13-.81,2-1.42-2.18.77-1.43.5a3,3,0,0,1,0-.31l.15-.08c-.36-1.43-.71-2.87-1.08-4.3h0c-.09-.37-.18-.73-.29-1.1h0c-.18-.72-.36-1.43-.54-2.16h0c0-.17-.09-.36-.13-.54h0c-.09-.34-.18-.69-.26-1.05l1.07-.77,2-1.41-2.18.76-1.13.39c-.07-.31-.16-.63-.24-1v0c0-.2-.1-.41-.15-.62-.37-1.51-.74-3-1.1-4.58l1.31-.94,2-1.42-2.18.77-1.37.48c-.74-3.27-1.43-6.56-2-9.88-.07-.35-.13-.71-.21-1.07l1.85-1.33,2-1.42-2.18.78-1.88.64c-.27-1.38-.55-2.78-.87-4.19l.81-.58,2-1.42-2.18.77-.83.28a43.94,43.94,0,0,0-1.6-5.14l.77-1.76,1.13-2.53-1.57,2.1-.78,1.08a20.33,20.33,0,0,0-2-3.63,12.15,12.15,0,0,0-2.89-2.92l.71-2.13.91-2.68-1.39,2.31-1.14,1.91a8.43,8.43,0,0,0-7.48-.69l-.8-1.51-1.27-2.41.78,2.73.45,1.61-.54.34a1.48,1.48,0,0,1-.88.73,8.57,8.57,0,0,0-1.26,1.59l-1.14-.92-1.9-1.56,1.56,2.1.94,1.27,0,0,.06.17a2.59,2.59,0,0,1-.54.89c-.14.38-.3.77-.43,1.18a28,28,0,0,0-.78,3.6l-1.26-.54-2.14-.92,1.91,1.55,1.35,1.11c-.09.83-.16,1.68-.2,2.54a15.78,15.78,0,0,1,.08,3.4c.06.91.16,1.8.29,2.69l-1.07.34-2.18.71h3.76a2,2,0,0,1,0,.84.41.41,0,0,1-.13.19c.16.77.36,1.53.57,2.28l.07,0a3,3,0,0,1,.63,1.26l-1.65.53-2.2.71H1237l-.09.16a21.4,21.4,0,0,1,1.26,6.15l0,.08c.1.32.18.67.27,1l-1.42.45-2.19.7h3.94a.38.38,0,0,1,0,.1c.1.36.17.74.25,1.13l-1.84.58-2.19.72h4.3c.32,1.5.56,3,.81,4.56.15.65.29,1.31.44,2l-1.71.55-2.19.7h2.26l2.1,0a7.87,7.87,0,0,1,.06,1c.35,1.56.73,3.11,1.11,4.67l-1.23.4-2.18.7h3.69c.39,1.54.79,3.1,1.19,4.64l-.89.28-2.18.71h3.32c.21.81.41,1.62.62,2.42l-1.76.57-2.18.7h4.27c.35,1.36.7,2.7,1,4.06.06.27.29,1.67.58,3.55.28.72.53,1.42.78,2.14l0,.1-1.67.53-2.19.71h4.25c.2.6.4,1.21.58,1.83a2.1,2.1,0,0,0,.06.24l-1.63.53-2.19.7h4.11a54.12,54.12,0,0,0,1.38,6.06l-1.16.39-2.19.7h3.78c.07.12.12.25.18.37a2.69,2.69,0,0,1,.22,2c.07.13.1.27.16.41h.12c.14.36.32.81.46,1.27.37.83.77,1.66,1.15,2.47l-1.5.49-2.2.7h4.26c.35.74.69,1.45,1,2.17l-1.14.36-2.2.71h3.85a7.34,7.34,0,0,0,.43.65,1.25,1.25,0,0,0,0,.19c.49,1,1,2,1.42,3.06l-1.49.47-2.18.71h4.2c.13.3.26.6.41.9.43,1,.87,2.08,1.3,3.13l-1.13.36-2.18.71h3.75c.17.37.32.74.48,1.1.14.12.3.21.43.34s0,.39,0,.6l.83,1.91c.84.74,1.24,2.36,1.93,3.31,0,.18,0,.35-.05.53l-1.56.49-2.19.71h4.51v-.17c.9.94.8,1.22.54,1.72.12.24.26.47.39.71l-1.2.38-2.2.71h4a1,1,0,0,1,.08.15c.61.14.79.18,1,1.59l.14.24.91,1.4a3.35,3.35,0,0,1,2.25,2.6,1.31,1.31,0,0,1,1.47.91l-1.77.57-2.18.69h3.53c.13.2.29.37.42.56l-.62.2-2.21.7h3.54s0,0,0,0l.08,0h.71c.43.64,1.15,1,1.51,1.77a1.42,1.42,0,0,1-.21.64,1.27,1.27,0,0,0,.13.11l-1,.18-2.22.42,2.24.29,2.24.3v-.08c.63.59,1.54,1,2.17,1.55v0a5,5,0,0,0,.89.41,2,2,0,0,1,.91.71,1.16,1.16,0,0,1,.67.24c0,.2,0,.4.06.58s0,.07,0,.11a3,3,0,0,1,.29,1.16l-1.81.29-2.24.35,2.24.36,1.84.3c0,1-.06,2.09-.12,3.14a10.52,10.52,0,0,1-.16,2.45h0a2.83,2.83,0,0,0,0,.29l-.63.09L1277,704l2.24.37.68.11c.23,2.34.61,4.65.84,7,.06.58.08,1.16.09,1.74l-1,.17-2.24.34,2.24.37,1,.15c0,1.68-.25,3.4-.43,5.07h0a4.44,4.44,0,0,1-.2,2c0,.2,0,.41,0,.61-.08,1.15-.09,2.29-.1,3.43l0,0c.08.34.14.66.19.95l-1.64.25-2.25.36,2.25.35,1.82.3a2.2,2.2,0,0,1-.33,1.68c0,1,.08,1.93.12,2.9l-1.61.25-2.25.35,2.25.35,1.67.28c.16,3.09.32,6.18.26,9.31l-1.33.2-2.24.35,2.24.37,1.29.2c0,.26,0,.51,0,.78-.17,3.12-.23,6.22-.24,9.33l-1.61.24-2.25.36,2.25.36,1.61.26c0,.46,0,.92,0,1.37,0,0,0,0,0,0a3.41,3.41,0,0,1,0,1v.56l-1.91.31-2.24.35,2.24.36,1.94.31c0,1.21,0,2.42,0,3.64v.17c-5-1.29-9.53.59-14.3,5.39s-8.65,2.36-13.58,4.56c-2.73,1.23-5.19,3.33-7.91,4.62-11,5-23.61,4.2-34.71.39-5.71-2-12-3.66-17.47.09-3.65,2.49-6.5,6.26-10.56,7.73-6.22,2.19-12.79-1.24-17.08,6.52-.92,1.41-8.22.44-9.83.49-3.88.13-7.8.22-11.69.3-6,.13-12,.54-17.89,1-5.48,2.6-10.91,5.75-16.86,8.51a58.77,58.77,0,0,1-11.3,3.81c-6,7.29-16,4.75-23.26,10.52a1,1,0,0,0-.14.06c-.46,1.5-1,3-1.35,4.5m520.07-105.62c-.67.2-1.33.41-2,.63-.72-.09-1.48-.15-2.23-.17a126.78,126.78,0,0,1,15.79-12.8,37.33,37.33,0,0,1,11.11,4.22,50.43,50.43,0,0,0-22.66,8.12m13.67,3.56a38,38,0,0,0-5.69.51c-.32-.17-.64-.35-1-.51a44.08,44.08,0,0,1,6.44-1.12c.06.36.14.74.22,1.12m-8.9,6.86a35.79,35.79,0,0,1,7.39-1.34c.39.21.78.52,1.16.75a3.54,3.54,0,0,1-2.47,1.53c-2.06.13-4.2-.56-6.08-.94m-14.62,9c1.58-1.63,2.94-2.93,2.94-2.93a30.23,30.23,0,0,1,7.07-4.4,8.53,8.53,0,0,0-.58,2.68c-.11,1.86-.93,3.81-2.49,4.22-.51.14-5.3,1.1-6.94.43m-5.2-16.44a81.53,81.53,0,0,1,8.55-11.92,23.91,23.91,0,0,1,14.43-3.86A98.6,98.6,0,0,0,1584,717a21.63,21.63,0,0,0-6.52,2.25m-.74-43.85a97.88,97.88,0,0,0-8.47,15.83,22.11,22.11,0,0,0-4.24.4,132.12,132.12,0,0,1,5.58-13.81,18.21,18.21,0,0,1,7.13-2.42m2.54,18a37,37,0,0,0-7-1.82,118.13,118.13,0,0,1,7.92-16.28,34.36,34.36,0,0,1,13.58,3.85c-5.65,2.9-10.43,8-14.48,14.25m-12.7,18.23a105,105,0,0,1,4.92-18,32.83,32.83,0,0,1,7.26.61,86.29,86.29,0,0,0-4.42,8,94.63,94.63,0,0,0-7.76,9.42m-1.5,15.85a91.27,91.27,0,0,1,.71-10.6,97.19,97.19,0,0,1,5.93-8.88,165.86,165.86,0,0,0-6.64,19.48m-6.8-8.4a110.81,110.81,0,0,1,4.52-23.56,21.94,21.94,0,0,1,4.34-1.4,97.16,97.16,0,0,0-6,26c-.48.87-1,1.74-1.39,2.59-.47-1.17-1-2.38-1.48-3.6m-.17-25.16a37.21,37.21,0,0,1,5.92-11.15,105.33,105.33,0,0,0-4.36,10.33c-.54.26-1.05.52-1.56.82m-3.72,16.78a97.36,97.36,0,0,1,1.88-10.49c.49-.53,1-1,1.49-1.43a113.86,113.86,0,0,0-3,12.58c-.09-.22-.22-.45-.32-.66m-6.8,17.88c0-2.15.19-4.15.38-6.07.18,1,.37,2,.56,3-.1,1.55-.15,3-.2,4.5l-.74-1.45m-45.44-37.81a95.71,95.71,0,0,1,14.37,8.74,36.56,36.56,0,0,0-9.46.9,73.17,73.17,0,0,0-15.62-4.85,31.93,31.93,0,0,1,10.71-4.79m33.21,14a48.12,48.12,0,0,0-11.43-4.24,74.63,74.63,0,0,0-19-10.2c8.48-1,19,1.85,30.44,14.44m8.68,17.71a82,82,0,0,0-10.79-13.78,70.34,70.34,0,0,1,10.7,7.19c.33.48.63,1,1,1.45-.35,1.72-.63,3.44-.87,5.14m-3.06,11.44c.7.53,1.39,1.09,2.06,1.68,0,1,0,1.89,0,2.77-.61-1.44-1.28-2.92-2-4.45m-3-5.53a68.42,68.42,0,0,0-26.66-25.88,44.69,44.69,0,0,1,11,1.7,82.71,82.71,0,0,1,20.78,27.38,54.08,54.08,0,0,0-5.16-3.2m-.44,8.94a112.82,112.82,0,0,0-13.44-12.33,62.66,62.66,0,0,1,8.62,3.7,75.48,75.48,0,0,1,4.82,8.63m-20.39,3.54a76.35,76.35,0,0,0-19.5-.71,25.43,25.43,0,0,1,13.93-6.24,55.26,55.26,0,0,1,12.07,4.57,22.49,22.49,0,0,0-6.5,2.38m-28.37,16.54a58.57,58.57,0,0,1,8.16-3.61c-1,.84-1.94,1.73-2.89,2.63a15.42,15.42,0,0,1-5.27,1m-1.93-3.5a53.88,53.88,0,0,1,7.87-11,96.83,96.83,0,0,1,18.64.53c-.63.52-1.26,1.06-1.85,1.63-.67.24-1.32.5-2,.78a50.24,50.24,0,0,0-22.69,8" transform="translate(0 -404.17)"/><path class="cls-4" d="M2.33,816.88q57.95-.28,115.9-.56,85-.41,170-.75,75.45-.24,150.9-.49,62.36-.14,124.75-.19c-28.94-16.7-61.67-26.5-93.35-36.07-2.69-.33-5.38-.69-8.09-1-2.5-.29-4.3-.38-6.44-1.9a31.4,31.4,0,0,0-4.23-2.62,17.7,17.7,0,0,0-11.2-1c-3,.58-5.84,1.75-8.79,2.55-3.78-.27-7.55-.5-11.33-.5a3.35,3.35,0,0,1-2.11-.48c-.73,0-1.46.09-2.18.13a59,59,0,0,0-16.71-10.06,51.6,51.6,0,0,1,11.17,1.22c1.19,1.43,2,2.55,2.3,3-.65-1-1.3-2-2-3a69.89,69.89,0,0,1,20.4,8.13c-8.37-6.27-16.07-9.85-23-11.59a35.74,35.74,0,0,0-6.93-6.56,100.29,100.29,0,0,1,14.18-2.5,68.17,68.17,0,0,0-16.18,1.22,20.25,20.25,0,0,0-9.65-2.85,50.4,50.4,0,0,1,18.35-4.75c-9.17-2.55-18.3.8-26.16,6a34.4,34.4,0,0,0-9.06,5,53.07,53.07,0,0,1,9.8-12.12c.63-.32,1.24-.62,1.84-.9a28.72,28.72,0,0,1,2.81,2c-.87-.79-1.7-1.5-2.54-2.18a67.48,67.48,0,0,1,9.61-3.73,81,81,0,0,0-9.52,3,24.31,24.31,0,0,1,13.29-5.2c1.15,1.16,2,2.17,2.59,2.85-.8-1-1.6-2-2.38-2.87,9.75-.51,16.79,5.7,16.79,5.7-6.66-6.69-13.12-8.9-19.13-8.29a43.16,43.16,0,0,0-8.91-7.33,72.71,72.71,0,0,1,16.4-10.93,74.74,74.74,0,0,0-18.43,9.84,18.69,18.69,0,0,0-5-1.62,76.92,76.92,0,0,1,11.42-9.69,75,75,0,0,0-13.89,9.5c-7.54.08-13.31,6.3-17.63,14.28a21.85,21.85,0,0,0-2,1.64c-.43-1.22-.88-2.46-1.37-3.71a146.71,146.71,0,0,1,6.66-25.65c-4.06,5.43-6.55,13.62-8.06,22.31A80.31,80.31,0,0,0,333.71,705s13.33,12.75,20.6,34.91c-.3,2.27-.53,4.54-.72,6.77v0c-.16-.21-.32-.4-.49-.6-6.06-14.66-15.91-28.74-31.22-27.26-1.66-1-3.38-2.06-5.2-3,0,0,1.65,1.07,4.22,3.15a28.88,28.88,0,0,0-7.55,2.15,84.94,84.94,0,0,0-8.72-3.83,58.91,58.91,0,0,1,7.65,4.33,43.89,43.89,0,0,0-4.23,2.25,25.59,25.59,0,0,1,4.66-2,79,79,0,0,1,8.82,6.76,34.31,34.31,0,0,0-7.75.92,26.33,26.33,0,0,1,9.17.36,68.49,68.49,0,0,1,16,21.77,65.07,65.07,0,0,0-7.52-4.69c-10.21-11-23.82-17.82-38.39-3.18,0,0,14.22-12.55,30.29-.48a81.37,81.37,0,0,0-9.51-3,71.57,71.57,0,0,1,11.72,4.77,52.79,52.79,0,0,1,9.78,12.12,33.88,33.88,0,0,0-9-5c-7.86-5.21-17-8.56-26.16-6a50.36,50.36,0,0,1,18.35,4.75,20.32,20.32,0,0,0-9.66,2.85,68,68,0,0,0-16.17-1.22,100.29,100.29,0,0,1,14.18,2.5,35.74,35.74,0,0,0-6.93,6.56A57.79,57.79,0,0,0,286.72,767c-2.48-1-5.27-1.42-7.56-.42-3.77,1.63-5.29,5.09-9.89,5.23-4,.11-7.14-1.7-10.24-4.43-6.7-5.81-13.21-9.31-20.89-3.52,0-.15.06-.31.09-.46a2,2,0,0,1-.32.22c-1.92.89-4.09.85-6.14,1a25.76,25.76,0,0,1-6.08-.17,5.24,5.24,0,0,1-2.46-1.52l0,.12a8.85,8.85,0,0,0-5.9-1.15c1.11-1,2.45-2,2.7-1,.54-1.43,1.42-1.38,2.57-1.5-.93-1.18,7-1.27,8.08-1.18,1.85.18,3.68.46,5.53.62s2.13-.9,3.22-2.31c-.79,0-5.77,3.5-5.71,1.18-1.07,1-2.1.33-3.3.23.21-.07,11.29-2.21,9.54-4.4-1.27,1.52-3,2.87-4.86,2.64a5.09,5.09,0,0,0,.19-1.23,4.9,4.9,0,0,1-5.15,2.27c1.06-1.92,2.78-3.4,4.18-5-1.22-.54-3.23,2.48-3.9,3.36-.24.34-1.06,2.09-1.49,1.59a3.82,3.82,0,0,1-.63-3.41c-.65.17-.7.11-1.18-.4,1.42-.51,2.73-2.15,4.19-2.82a21.32,21.32,0,0,1,3.09-1.14,10.22,10.22,0,0,1,1.21-.31c-.45-.56-.33-1,.32-1,.09.48.18.95.25,1.43,1.12-.42,2.22-.87,3.34-1.29-1.2-.21-2.41,0-3.58-.49.61-.51,5-4.31,4.47-5-.26.3-1.07.26-1,.76.19.9-1.4,2.78-1.92,1.43-.59,1.59-1,1.28-1.87,2.4a2.84,2.84,0,0,1-.26-1.42c-.58.6-1,.67-1.65.1.5.25.75.08.77-.49-.27-.36-.82-.1-1.2,0a9.29,9.29,0,0,1,2.47-1.33.19.19,0,0,1,.19-.09c1.95-.79,4-1.5,4.81-3.77-.72.81-4.21,3.82-5,2.8a23.51,23.51,0,0,0,4.51-6.36c-.62-.27-1.25.85-2,1.16,1.4,1.72-2.56,4.3-3.05,2a2.39,2.39,0,0,1-1.23,1.37c-.28-1.12,1.36-1.88,1.88-2.44.94-1,1.07-.61,2.1-1-.8-1.19.11-1.57,1-2.08-1-1.2-1-.1-1.9.79a5.19,5.19,0,0,1-2.35,1.53l.73.55a6.24,6.24,0,0,1-2.45,2c0-.3-.08-.6-.13-.89-.38,1-.26.6.27,1.43-.51-.13-1-.27-1.48-.41,1-.7,1.74-2,2.76-2.73-.25-.06-.5-.13-.74-.21a1.69,1.69,0,0,1,1.22-1c-.51,1.07.8-.32.95-.49.93-1,2.1-1.86,2.3-3.46L236,735.7c-.28-1.07,1-2,.38-2.82l-1.73,2.94c-1-1.29,0-4.07,1.19-4.72-1-.33-1.13-.4-.77-1.73.15-.57-.51-1.25-.78-1.7,0,1.05.2,1.61-.66,2.09l0-1.06-1.09,1.2c-.42-1.73,1.51-1.92.42-3.88-.92,4.27-3.3,12.26-7.81,11.73l.63-1c.49.5.41.49,1,.22l-.88-.39c1.21-1.71,4.24-3.47,4.79-5.65L230,731a6.6,6.6,0,0,0,2.41-6.1,43.94,43.94,0,0,1-7.49,12.27c-.91,1.06-6,6.57-7.63,4.48A9.34,9.34,0,0,1,219,740c1.15-.73.28-.94.6-2.31l-.75,1.2c-.36-1.44.16-1.49,1.06-2a11.27,11.27,0,0,1,3-3.79c1.14-1,3.12-1.84,3.9-3.24.56-1,.18-2,1-3,.75.54,1.43.83,2.24.26l-1.33-.59c.55-.14,1.11-.31,1.66-.46-.75-.2-1.38-.22-1.92-1-.2.46-.42.93-.63,1.39-1.72-2.16,4.82-5.57,5-7.93-.48.32-1.18-.23-1.48.5a15.39,15.39,0,0,1-2.37,3.41,1.2,1.2,0,0,1,0-.84,17.35,17.35,0,0,1-1.11,2c-.1-.13-.92-5.14-1-5,.82.17,1.42.23,1.81-.64-.77-.16-.89-.37-1.51.3a13,13,0,0,0,1.74-3c.37.5.76,1,1.15,1.47.31-.95,4.86,2.82,5.89,3.06-.78-1.82,3.47-2.37,4.66-2.85,1.47-.6,4.3-1.54,4.64-3.68-4.42,5.06-9.81,4.8-15.15,2.05,1.14-1.26,3.17.16,4.64-.34-.64-.21-1.28-.42-1.92-.6a19.1,19.1,0,0,1,3-2.81c1.57-1.16,2.12-.46,3.76.41l-4.57,3c1.8.8,5.85-3.43,6.28-5.24-.88,1-2.67,2.12-3.76.73.35-.39,9.75-6,8.29-7.81-1.27,1.56-2.61,3.06-4,4.46-.16.16-2.06,1.59-2.13,1.76.57-1.53,2.66-3.06,3.68-4.2l-1.22,1,1.42-2.6c-2.11,2.72-4.72,7.33-8.14,7.65.74-.79,9.41-9.69,7.8-11.72-1.4,1.55-1.08,4.08-3.27,5a9.55,9.55,0,0,0,1.25-2.42c-1.77,2.32-3.91,3.46-6.11,5.06.74.94,2.27-.84,3.32-.93.67.86-2.34,3.84-2.82,4.33a20.58,20.58,0,0,1-4.18,3.1,21.84,21.84,0,0,1-3,1.53c-.87.37-.84-1.06-1-1.6-.47.72-.73,1-1.52.65,2.18-2.64,4.33-6.08,7.53-7-.71-1.26,1.52-3.21,2.2-4.16-1.6,1.81-3.19,3.64-4.88,5.33-1.34,1.32-3.69,4.38-4.26,1-.37.63-.73,1.26-1.1,1.91-.49-1.06-.28-1.23.21-2.3-1-.26-.86.48-1.27,1.24-.58,1.12-.93.83-1.32.61.66.85.55.75,1.94.25a8.26,8.26,0,0,0-1.52,1.74c-.47.81-.19,2.22-.63,2.79s-1.51.74-2.2,1c-1,.42-.88-1-1.6-1.37.08.59.16,1.19.25,1.78-1.17.4-1.62-2.7-1.7-3.6l1.95-.11-.39-2a10.67,10.67,0,0,0-3.44,5.18c1.67-1.67,2.24,1.12.15,1.72-.42.11-3.41,1-3.55.48-.24-.94,4.39-6.31,5-7.14,1.29-1.72,3.35-5.06,5.54-5-.06.28-.12.58-.17.87,2.64-3,5.81-5.27,8.74-7.87,3.32-2.94,5.76-7,8.52-10.56-2.33,2.79-4.64,5.6-7,8.39-1.18-1.49,2.17-6,2.75-7.14a70.84,70.84,0,0,1,6.84-10c-4.23,2.81-6.91,9.16-9.4,13.79a30.28,30.28,0,0,1-5.07,7c-.92.9-4.49,4.89-5.83,4.27-1.16-.53,5.49-5.86,6-6.17a1.48,1.48,0,0,1-.87-.74c.34-.4,6.36-7,6-7.38-1.61,1.84-3.26,3.61-4.94,5.35-1.34,1.38-2.63,3.47-4.44,4-.18-.69.38-4.82,1.29-3.48a21.69,21.69,0,0,1,1.39-4c.76-1.33-.11-3.11.17-4.88.1-.62,2.21-5.74,2-6-2.26,3-1.81,7.34-4,10.28-.07-.82-.15-1.65-.23-2.48-.07.55-.63,5.57-1.3,3.84a8.48,8.48,0,0,1-.89,2.58,3.9,3.9,0,0,1,1.27-.27c.5,3-2.87,14.77-5.66,10A27.76,27.76,0,0,1,212,716.71c-.37-1.51.9-3.31,1.39-4.6,1-2.57,2-5.11,3.15-7.6.46-1,1-2.19,1.59-3.38-.37.37-.75.73-1.09,1.09-1.15-3.16,1.34-8.83,2.28-11.76a7.22,7.22,0,0,0-.95,1.7c-.54,1.38,0,1.59-1.18,1.83.6-.13-2.38,12.73-2.71,13.75a85.47,85.47,0,0,1-3.08,8.15c-.61,1.34-3,5-3.3,1.73-.32.84-.75,2.41-1.53,1-1.89,4.79-.85-1.28-1.91-1.31-.72,2.26,1.06,3.72-1.31,4.55a.66.66,0,0,0-.28-.72c.13,1-2.31,2.59-2.9,1.83.79-.66,1.34-.94,1.41-1.92a2,2,0,0,1,1.38-1.51,6.22,6.22,0,0,0,.25,1.42c.67-1.42.21-3,1.05-4.56,1.23-2.25,3-4,4.48-6-.25-.33-2.38,2.59-2.78,3.07-.64-.82.17-1.51-.07-2.65a57.56,57.56,0,0,1-1.95,5.58,6.93,6.93,0,0,1-.44-1.66,7.76,7.76,0,0,1-.24,2.73c-1,2.89-3.78,5.74-5.44,8.21-1.79,2.67-2.2,6.1-3.95,8.73-2.09-2.65,2-7.75,3.4-9.25-.81-.34-1.69,1.19-2.29,1.86-.28-2,1.29-4.88,1.72-6.78a27.76,27.76,0,0,1,2.86-8.24c.7-1.16,1.1-1.12.34-2.12s0-2.27.44-3.31a46.45,46.45,0,0,0,2.33-8.62c2.15-.19,1.44,1.89,1.38,3.95a5.67,5.67,0,0,0,.67-3.36c-.44-1.63-1.67-1.17-1.09-3,.28-.9,2.11-4.65,1.49-5.43-1.2,1.34-1.1,4.13-2.11,5.75-.86,1.37-1.52.58-1.21,2.26a4.38,4.38,0,0,1-1,3.31,2.55,2.55,0,0,1-.68-2,6.12,6.12,0,0,0-.51,1.93,4.48,4.48,0,0,1-1-2.69c-1,1.1-.43,1.86.26,3,.78,1.3-.66,3.85-1.08,5.11-.73-.9-.69-2.64-1.15-4,1.11-5.87,1.12-11.73,1.2-17.83,0-1.53,0-14.15,3.11-12.3-1.18-3.4.3-5.13,2-7.67-3.23,0,9.45-16.37,11.29-18.35,3.22-3.48,6.58-6.78,9.79-10.26s2.11-5.81,1.83-10.3c-1.34,1.57-4.21,17.43-7.48,13.55-.21,3.85-2.91,4.81-5,7.08.22-.53,14.93-26.52,8.95-26.52.17,5.05-.6,10.66-4,14.14a11.15,11.15,0,0,0-1.49-2.35c.73,6-1.26,10.26-5,14.15-1.1-5.23-.5-11.13-.5-16.51-2.75,1.62-1.62,10.57-1.38,13.33.09,1.07,1.33,5.55-.11,5.61-2.59.12-4.72-1.73-6-4.2-.8,1.6-1,1.58-2.5,1.77,1.56-3.73,1.29-9,2.68-13.1a71.37,71.37,0,0,1,3.32-8.13,29.92,29.92,0,0,1,1.48-2.94c-1.54,0-1.92-.9-1-2.35.83.58,1.65,1.16,2.48,1.76q1.74-4.43,3.49-8.85c-2.24,2.1-3.9,4.87-6.48,6.49.24-2.07,1.78-17.09,0-17.09,0,1-1.37,2.6-.47,3.2,1.62,1.07,1.79,7.32-1,6.22,1.34,3.77.23,4.13.49,7.67a4.83,4.83,0,0,1-2.49-1.77c-.06,2.17-.65,3.12-2.5,3.53,1.14-.6,1.31-1.38.51-2.35-1,0-1.46,1.51-2,2.35a32,32,0,0,1,2-7.16.69.69,0,0,1,.19-.53c2-5.24,4.23-10.55,2.27-15.88,0,2.8-1.23,14.73-4,14.73.48-6.83-.55-12.88-2-19.45-1.39.82-.77,3.89-1.5,5.89,4.77-.06,2.13,12.14-2,9.43a7.2,7.2,0,0,1,0,4.72c-2.07-1.23-.54-5.8-.51-7.75.07-3.52.8-3.18,2-5.81-3.05-.3-2.11-2.76-1.5-5.3-3.29,0-1.8,1.89-1.89,5.11a17.85,17.85,0,0,1-1.59,7.27l2-.59c.09,2.73.05,5.74-1,8.25-.49-.4-1-.79-1.5-1.18.84,2.42.46,1.51,2.5,1.77l-3,2.36c.64-3.21-.06-6.75.48-10-.48.4-1,.8-1.49,1.18a5.5,5.5,0,0,1,.51-4.12c.74,2.76.82-2.13.82-2.71.05-3.48.67-7.27-1.33-10.26.18,2.95.34,5.89.51,8.85-2-1.17-1.29-5.31-3.49-5.31.49,2.74,1,5.51,1.5,8.25-3.53,0-6-6.53-5-10-2.12,1.57-2.37,1.64-3.74-1.23-.57-1.22-2.63-1-3.73-1.14,1.48,1.76,2.7,2.19,2,4.72-.5-.58-1-1.17-1.49-1.76v4.13c-3.19-1.91-.39-6.17-5-7.09,4.71,8.72,12.5,26.45,4.48,34.79-.16-1-.33-2-.5-2.94,1.5-.21,1.38-.07,2-1.77l-2,1.18c-.53-5.23,1.77-14.22-.5-18.87-.32.59-.66,1.18-1,1.77a15.93,15.93,0,0,0-5-14.74,119.76,119.76,0,0,1,5.76,35c.08,3.54-.05,22.73-5.76,22.73a28.21,28.21,0,0,1,.36-6.17c.8-3.53-.9-2.12-2.39-5,.18,1.15.36,2.31.53,3.45-2.68-1.58-1.89-2.72-1.22-5.44-1.21-3.79-1-8.36-.65-12.2s2.34-9.33,1.57-13.17c-.53-2.69-2.63-3.58-2.69-6.9,2-.63,3.52-1.57,4-4.14l-3,1.78q1-2.07,2-4.15c-1.49,1.22-2.53,2.47-4.49,2.37.34,1.18.67,2.36,1,3.53-5.88,0-.33-18.78-3.49-23-.28,1.52-2.21,2-1.64,3.83,1,3.29,1,6.87,1.14,10.32a2.17,2.17,0,0,1-1.15-1.4,55.67,55.67,0,0,1,1.15,5.52c-.35,0-8.95-6.4-8.95-5.89,1.57-1.41,2.62-2.53,2-4.71-1.48,1.3-2,1.21-2,3.53-.6-3.5-.26-5-1.5-8.26h4c-.88-2.15,12-5.36,13.94-7.07-3.89-1.34,2.13-10.89,3.36-14.09,1.5-3.93,4.69-11.21,2.12-15.38.23,17.19-8.82,27.72-21.42,34.18,0-4.36,5.34-6.19,7-10l-4,2.94a63.44,63.44,0,0,1,.83-10.67c.83-5.09,2.71-5.06,6.65-7-1,4.71-2,9.43-3,14.15,4.07-2.38,4.42-17.44,2.49-21.22,0,3.4-1.22,8.83-5,8.83,0-1.36,7-29.47,2-29.47q.36,7.67,0,15.34c0,.6-1,6.75-.86,7.16-1.31-3.61-.17-10.35-.17-14.25-.16,1.39-.33,2.76-.49,4.13-.5-2.36-1-4.71-1.5-7.08.55,8.68,3,21.42-2,28.89.05-2.78,1.08-34.78-4.48-34.78,0,5.35,4.19,8.79,2,14.74,0-2.21-.9-4.4-1.5-6.48.54,7.34-1.28,13.56-2.48,20.63,2.56,0,2.42-6,4-8.26,2.35,0,1.82,10.94,1.77,12.68a67.61,67.61,0,0,1-2.21,13.54,80.42,80.42,0,0,1-2.56,8.47c-.87,2.39-2.89,0-4-.5.29,2.12.34,3.16-1.48,4.13-.33-8.67-1.88-18.58,2-26.52-3-.6-2.22-8.27-2.5-11.2.07,6.18.14,12.37-.12,18.55-.21,4.85.41,14.55-5.35,10.33l1,5.3c-2.33-.68-2.23-1.4-3-4.12-2,1.52-.71,2.51-.26,4.56.67,3-.29,3.25-1.24,3.69,2.33,0,2,.08,3.49-3.54a22.84,22.84,0,0,0,.1,5.9c.39,2.25,2.9,4,3,5.78.15,2.15-1.36,4.27-2,6.13-1,2.66-2.86.22-4.58,1.06,1,.79,2,1.57,3,2.36-1.28,3-6.53-1.08-8-2.36l3-4.13c-1.16-.78-2.31-1.57-3.48-2.35a29.14,29.14,0,0,0,2,15.32c.25-6.08,5.22-2.74,2.72,2.48-.5,1-4,8.58-5,8-1.74-1-2.07-19.09-2.27-21.72-.43-5.42-2-15,1.58-19.43l1,1.77c-.16-10.26,1.7-20.33,2.63-30.49,1.06-11.49-.86-22.93-1.62-34.35q.47,13.86,1,27.71c-4.08,0-5.31-14.16-6-17.1-2.26-9.95-2.78-19.85-3.5-30.06-2.75,13.14,2.17,28.83,4.89,41.37a85.25,85.25,0,0,1,2,21.64c-.15,3.32-.09,17-3.15,18.76-2.65,1.51.31-20.64.73-22.24a3.05,3.05,0,0,1-2.48.6c0-1.34.14-24.17-1-24.17.09,6.22,0,12.45-.17,18.67-.14,5,.81,11-1.32,15.52-1.29-.76-6.41-8.55-3-8.25-1.27-3.11-3-5.9-3.61-9.33-.7-3.68-4.71-4.76-6.84-8.2-.74-1.18-4.78-13.72-5.49-13.72.67,9.38,7.75,15.5,8.47,24.76l-4-3.53c.7,1,7.08,10.25,3.48,8.83a18.83,18.83,0,0,1,2.32,6,12.35,12.35,0,0,1,1.66-3.05c5.13,3.76,16.85,29.66,5.49,27.7,4.23,9.86,5.86,19,6,30.06-2.81-1.64-3.37-7.14-4.46-10.2q-3.28-9.21-6-18.68c-.71-2.51-1.6-5.52-2.36-8.69-.07,1.36-.13,2.7-.16,4-6.44-2.74-10.66-17-13.45-23.59a20.44,20.44,0,0,0,1,4.69c1.13,3.32,2.27,2.63.77,5.36.78-1.44,14.68,25.35,15.61,27.65a193.4,193.4,0,0,1,6.89,19.42c1,3.38,2.47,14.21-2.8,9.5.73,2,2.34,5.4-1,4.72,3.91,11.58-3.24-.34-5,1.76,2.13,5.12,7.12,3.85,4.48,10a1.11,1.11,0,0,0-1.5-.58c1.71,1.33.07,8.84-2,8.84.3-2.67.8-4.24-.52-6-1-1.33-.57-3.82,0-5.25a9.74,9.74,0,0,0,2.48,1.78c-1-3.64-4.11-5.31-5-9.47-1.28-6.17-.85-12.58-1.51-18.83-.89,0-.07,9.05,0,10.61-2.24,0-2-2.75-4-4.13,1.65,4.38,3.75,8.38,5,13a10.2,10.2,0,0,1-3.13-1.8,15,15,0,0,1,3.58,4.9c2.55,6.79,2.28,17,3.18,24.3,1,8,5.34,14.32,6.34,22.13-7.23,0-8.09-16.5-8-21.83-1.81,1.09-1,5.37-1,7.66-3.29-2.6-5-10.48-7.08-14.43-3.11-6-6.22-12.11-7.39-19.08-.55-3.27.15-4.05-2.52-4.14-2.9-.09-3.21-3.74-4.09-6.21a102.27,102.27,0,0,0-8.81-18.62c3.19-4.72,5.07.12,8,3.53-.82-2.41-1.67-5.5-3.83-6.74-3.07-1.76-4.37,1.5-6.14-2.68-.86-2-3.36-11.79-5.48-11.79,0,4.62,4.23,8.92,5,13.57.61,4-1.59,4,1.33,6.1,2.17,1.54,3,4.65,3.16,7.45-2.2,0-2.36-.36-4-1.77.4,1.75,1.2,2.66,2,4.13-2.48,0-3.42-.74-5.47-2.36,0,3.79,2,3.87,4.77,4.3,3.16.49,4.54,7.55,5.69,10.44-3,0-6-4.4-9.46-4.72,0,2.21,9.76,6.32,11.26,7.18,5.68,3.27,8.85,8.4,11.17,15.33,2.8,8.39,5.64,15.52,10.3,22.73,4.79,7.4,10.1,15.2,10.6,24.91-1.4-.2-2.61,0-4-.58,1.5,2.78,3.37,2.71,5.73,2.88,1.63.12,1.59,9.17,1.73,10.67-1.57-.93-1.3-3.77-3-5.31.5,1.38,1,2.75,1.5,4.13-2.83,0-7.35-.44-8-4.13-.2,3-.85,5.67,3.09,5.22,4.38-.52,5.55,1.71,7.73,6.33.6,1.26,4.6,13.21,2.63,13.21,0-5.57-2.71-1.83-4.22-4.14-1.29-2-2.15-4.94-4.25-4.11.5,1.17,1,2.36,1.49,3.54l-2-.59c.66,1.55,2.47,1.74,3.69,2.16,2.51.83,4.62,3.4,5.79,6.09h-3a31.77,31.77,0,0,1,3.48,9.43,1.18,1.18,0,0,1-.5.14c0-.11-.09-.23-.17-.4l-.3.54-.13,0c.11-.77.43-2.08-.12-2.52-.71-.56-.78-.66-.3-2-1.58.71-.64,2.88-1.5,3.71l-.32-.18a13.57,13.57,0,0,1-1.81-3.36c-.24.42-.46.84-.7,1.26a5.8,5.8,0,0,1-.48-3.85c.16-.6.52-1.41.21-2l-.29,1c-.25-.49-.48-1-.71-1.46-.74.7,0,1.74.25,2.74.34,1.18-1.41,1.45.26,2.74-.46.83-3.12-3.64-3.36-4.17-.88-2-1.26-3-.1-4.72,1-1.55.08-1.91-.84-2.51,1,1.12,0,3.11-.62,4.31-.3-.53-.58-1.07-.89-1.59.08,1.06,1,1.6.9,2.49-.41-.41-3.14-2.49-2.79-3.21.49-1,1-1.81.47-3.08a10.32,10.32,0,0,1-.75,1.8c-2.8-2.47-3.9-6.51-5-10.24a40.66,40.66,0,0,0-4.43-9.61,12.73,12.73,0,0,1-2-8.27c.1-.82,1.13-5.87.46-6.38-.71,1.55-.08,3.8-.78,5.06-.6-1.15-2.39-3.37-1.8-4.81.5-1.26,1-2.12-.18-3a4.71,4.71,0,0,1-.58,2.85,5.77,5.77,0,0,0-.77-1.8,2.71,2.71,0,0,1-.4,2.08,4.12,4.12,0,0,1-1.48-3.06c.06-1.71-.49-.8-1.53-2-1.22-1.4-1.52-4.17-2.91-5.24-.5.88,1.86,4.2,2.26,5,.85,1.72-.43,1.51-.62,3.21a5.32,5.32,0,0,0,1.14,3.18c-.37-2-1.37-3.93.78-4.17a44.35,44.35,0,0,0,3.53,8c.54,1,1.56,1.92.91,3.15s-.18,1,.66,2a25.79,25.79,0,0,1,4,7.54c.71,1.79,2.67,4.33,2.68,6.33-.68-.53-1.77-1.87-2.53-1.36,1.63,1.18,6.38,5.39,4.69,8.42-2.09-2.23-3-5.54-5.15-7.81-2-2.08-5.11-4.33-6.55-7a7.79,7.79,0,0,1-.64-2.64,6.14,6.14,0,0,1-.18,1.73A50.82,50.82,0,0,1,95,702.83c-.07,1.17.81,1.69.3,2.64-.45-.4-3-2.84-3.18-2.47,1.71,1.73,3.74,3,5.29,5,1,1.33.83,3,1.69,4.28a7,7,0,0,0,0-1.45,1.82,1.82,0,0,1,1.58,1.21c.21,1,.79,1.11,1.66,1.61-.47.87-3.11-.2-3.11-1.23a.7.7,0,0,0-.17.77c-2.47-.33-.93-2.13-2-4.21-1,.25.87,6-1.68,1.67-.58,1.56-1.23.09-1.66-.67.19,3.31-2.71.16-3.5-1A78.56,78.56,0,0,1,86,701.54c-.46-.92-5.26-13-4.65-13-1.17,0-.7-.31-1.43-1.56a7.52,7.52,0,0,0-1.18-1.49c1.34,2.71,4.62,7.79,3.93,11.14-.38-.29-.79-.57-1.22-.86.77,1.05,1.47,2.13,2.05,3,1.48,2.22,2.89,4.5,4.21,6.85.67,1.17,2.18,2.69,2,4.25a25.81,25.81,0,0,1-7.62-9.51c-2,5.23-7.09-5.71-7-8.73a3.73,3.73,0,0,1,1.29,0,8.06,8.06,0,0,1-1.25-2.36c-.41,1.83-1.69-3-1.84-3.53.05.84.1,1.67.14,2.5-2.62-2.45-2.8-6.85-5.46-9.31-.16.29,2.66,4.92,2.84,5.5.54,1.69-.07,3.62.86,4.78a19.33,19.33,0,0,1,2,3.68c.7-1.51,1.85,2.45,1.77,3.17-1.86-.16-3.43-2-5-3.06-1.91-1.37-3.8-2.79-5.64-4.27-.27.49,6.62,5.72,7,6a1.61,1.61,0,0,1-.76.9c.57.2,7.9,4.1,6.83,4.86-1.24.89-5.32-2.32-6.36-3a27.42,27.42,0,0,1-6-5.88c-3.14-4-6.69-9.77-11.27-11.67a65,65,0,0,1,8.2,8.45c.73,1,4.68,4.78,3.73,6.49l-8.07-6.86c3.25,3,6.23,6.44,9.92,8.68,3.26,2,6.71,3.53,9.75,6-.1-.27-.19-.55-.3-.82,2.17-.46,4.67,2.41,6.2,3.85.73.69,6.07,5,6,6,0,.55-3.13.28-3.56.26-2.15-.17-2-3-.11-1.73a9.72,9.72,0,0,0-4.13-4.4c0,.67-.08,1.34-.1,2l1.93-.29c0,.9.06,4-1.15,3.89,0-.6,0-1.2,0-1.81-.65.53-.36,1.91-1.38,1.68-.72-.14-1.71,0-2.31-.56s-.45-1.93-1-2.62a6.91,6.91,0,0,0-1.75-1.41c1.44.2,1.34.34,1.87-.64-.35.3-.64.64-1.39-.34-.51-.67-.52-1.41-1.43-.95.63.94.88,1.07.55,2.21l-1.36-1.65c-.07,3.4-2.84.88-4.35-.16-1.91-1.32-3.75-2.79-5.58-4.26.8.8,3.28,2.28,2.77,3.64,3.28.23,5.89,3.19,8.41,5.34-.71.54-1,.28-1.58-.33-.11.57.14,2-.77,1.79a21.52,21.52,0,0,1-3.13-.91,19.14,19.14,0,0,1-4.58-2.21c-.54-.38-3.94-2.71-3.39-3.69,1-.13,2.8,1.32,3.4.24-2.4-1.13-4.68-1.81-6.76-3.75a8.9,8.9,0,0,0,1.59,2.14c-2.3-.46-2.35-3-4-4.26-1.28,2.33,8.55,9.34,9.39,10-3.41.39-6.65-3.63-9.13-5.88l1.78,2.28c-.44-.26-.9-.5-1.35-.76,1.17.92,3.46,2,4.23,3.39-.08-.16-2.16-1.18-2.34-1.31a47.23,47.23,0,0,1-4.59-3.58c-1.18,2.13,8.88,5.7,9.3,6-.89,1.58-2.8.85-3.81,0,.68,1.7,5.28,5,6.94,3.88l-4.94-2c1.5-1.2,1.93-2,3.64-1.16a17.63,17.63,0,0,1,3.4,2.14l-1.82,1c1.53.21,3.32-1.6,4.64-.59-4.87,3.78-10.13,5.13-15.23,1,.65,2.05,3.58,2.4,5.1,2.69,1.24.22,5.5-.08,5,1.87,1-.44,4.92-5.09,5.37-4.22.31-.55.61-1.12.92-1.67A12.49,12.49,0,0,0,75,714.6c-.7-.53-.79-.3-1.52,0,.51.77,1.09.59,1.88.26-.16-.12-.24,5-.32,5.13a20,20,0,0,1-1.38-1.77,1.1,1.1,0,0,1,.14.82A14.07,14.07,0,0,1,71,716.17c-.41-.66-1,0-1.54-.19.52,2.29,7.46,4.33,6.07,6.81-.26-.42-.54-.83-.82-1.25-.42.84-1,1-1.74,1.34l1.69.12c-.39.28-.81.56-1.22.84.88.41,1.51,0,2.17-.71,1,.8.76,1.89,1.44,2.74,1,1.21,3.05,1.62,4.32,2.39a10.26,10.26,0,0,1,3.5,3.12c1,.35,1.5.29,1.35,1.78-.3-.34-.6-.69-.92-1,.52,1.28-.31,1.67.94,2.15a8,8,0,0,1,1.93,1.29c-1.33,2.4-7.11-2-8.16-2.87a40.54,40.54,0,0,1-9.16-10.56c.17,2.53,1.36,4.68,3.26,5.51h-.76c.86,2,4.1,3.16,5.54,4.6-.28.18-.54.37-.82.56.66.14.58.16,1-.43l.77.89c-4.36,1.44-7.86-5.95-9.38-10-.79,2.14,1.13,1.95,1,3.73l-1.25-.95c.07.34.13.69.19,1-.93-.29-.77-.9-.95-1.93-.2.51-.76,1.31-.53,1.83.55,1.24.46,1.33-.5,1.86,1.28.39,2.66,2.94,1.84,4.42l-2.12-2.55c-.51.93.9,1.59.78,2.7l-2.54-2.26c.44,1.53,1.71,2.14,2.77,2.94.18.13,1.65,1.23,1,.28a1.62,1.62,0,0,1,1.36.75l-.71.35c1.12.54,2,1.65,3.12,2.13l-1.4.7c.4-.92.58-.54,0-1.45,0,.29,0,.59,0,.9a5.88,5.88,0,0,1-2.72-1.5l.64-.7a5.05,5.05,0,0,1-2.55-1c-1-.71-1.21-1.77-2-.39.91.33,1.87.52,1.24,1.86,1.07.11,1.14-.28,2.21.5.59.44,2.32.87,2.21,2a2.18,2.18,0,0,1-1.41-1.1c-.15,2.37-4.43.64-3.3-1.34-.77-.16-1.54-1.14-2.11-.75a21.83,21.83,0,0,0,5.36,5.36c-.63,1.16-4.5-1.1-5.34-1.75,1.14,2.06,3.25,2.37,5.29,2.74a.19.19,0,0,1,.2,0,9,9,0,0,1,2.63.82c-.38,0-1-.11-1.18.29.11.56.38.67.82.33-.55.68-1,.7-1.64.23a2.89,2.89,0,0,1,0,1.46c-1-.93-1.37-.55-2.18-2-.32,1.45-2.17-.08-2.11-1,0-.52-.76-.32-1.07-.55-.41.74,4.45,3.6,5.13,4-1.08.71-2.31.76-3.45,1.21l3.46.61c0-.5,0-1,.06-1.46.64-.06.82.31.47,1a8.31,8.31,0,0,1,1.22.06,21.63,21.63,0,0,1,3.21.49c1.54.36,3.07,1.71,4.55,1.93-.41.6-.45.67-1.12.64a3.93,3.93,0,0,1-.12,3.49c-.36.58-1.41-1-1.71-1.26-.77-.75-3.19-3.31-4.32-2.53,1.62,1.26,3.52,2.37,4.83,4.06a4.7,4.7,0,0,1-5.39-1.21,4.75,4.75,0,0,0,.36,1.18c-1.84.61-3.7-.37-5.17-1.61-1.39,2.5,9.82,2.37,10,2.4-1.17.34-2.08,1.24-3.28.45.39,2.27-5-.21-5.81,0,1.28,1.17,1.81,2.15,3.51,1.63s3.56-1.18,5.35-1.73c1-.31,8.89-1.83,8.13-.47,1.16-.13,2-.35,2.77,1,.16-1.73,3.94,1.2,4.4,1.55,1.13.84,2.22,1.68,3.35,2.42a7.75,7.75,0,0,0-1.06-.1,19.82,19.82,0,0,0-6.26,1.54c-2.09.73-2.71-.67-4.54-1.75-3.42-1.92-6.43-1.27-9.69.55-4,2.25-9.78-.2-14.06-.83-4.77-.77-9.51-1.44-14.31-2.06-4.38-.57-8.78-1-13.18-1.27-4-.22-8,.15-11.86-1.09-6.49-1-13-3.69-18.73-6.43Zm100-115.5q-1.68-3.84-3.34-7.67c1.22-2.21,4.32,5.88,3.34,7.67m-9-65.3c-4.23,0-13.71-17.68-8.47-17.68q4.24,8.85,8.47,17.68m18.43-88.43c-.67,1.58-1.16,1.73-1.5,0Zm1.5,11.8c-1.94-.57-2.52-1.23-1-3,.34,1,.68,2,1,3m12.45,145c-.17.4-.34.79-.5,1.18-.85-1.14-.68-1.53.5-1.18m1,4.13v1.77c-.65-.52-1.49-.76-1.49-1.77Zm-4-78.4c-.26,1-.5,4.12-1.5,4.12,0-2.35-.84-4.12,1.5-4.12m.5,9.42c-1.63-1-.77-2.21-.5-4.12.16,1.38.33,2.74.5,4.12m1.48-2.94c-1.9-1.51-2.54-6.66-1-8.84.34,2.95.67,5.89,1,8.84m.51,4.12c-.33-.78-.66-1.57-1-2.35h1Zm-.51,10c.18-.79.34-1.58.51-2.36,0,.89.47,2.36-.51,2.36m2.5,45.39c-1.84-1.08-3.43-6.6-1-7.64v-.05c-6.39-1.76.07-5.84-2-8.23-2,2.35-2.74,1.67-3.08-1.61A66.23,66.23,0,0,0,116.92,663a19.86,19.86,0,0,1,3-20.14,1.83,1.83,0,0,1-.15-.25h.39a17.73,17.73,0,0,1,1.61-1.78c-.74-.48-2.57-2.94-.51-2.94.67,2.74,1.33,5.49,2,8.26-1.09-.25-1.6-1-1.49-2.37l-1.5,1.18c2.27,2.27,5,6.91,2,10.61,4.15.87,1.94,12,2.16,15.88.16,2.58.45,5.15.71,7.71h.62v1.17a7,7,0,0,1-.55-.48c.31,2.91.63,5.83,1,8.71l0,0,0,0c.34,2.55.67,5.1,1,7.64m0,20c-1.49-.88-1.48-2.32-2-4.12h1.49c.17,1.36.33,2.74.5,4.12m109.48,25.49L235,743.26c-.19-1.85.34-1.31,1.68-1.52m151.74,19.77c-.55,0-1.1,0-1.64,0-.56-.26-1.14-.49-1.71-.69a90.16,90.16,0,0,1,14.26-5.06,34.56,34.56,0,0,1,7.86,5.78,40.7,40.7,0,0,0-18.77,0m22.45,12.68a35.16,35.16,0,0,0-17-7.79c-.22-.22-.44-.42-.67-.61,6.49.56,13.85,3,21.92,8.26a40.7,40.7,0,0,1-4.27.14m-9.88.88c-.74-1.12-1.51-2.27-2.38-3.4a47.28,47.28,0,0,1,7.13,3.07c-1.56.14-3.17.28-4.75.33m-19.51-3.94a25.9,25.9,0,0,1,14.8-.16,42.55,42.55,0,0,1,3.63,4.13,15.11,15.11,0,0,1-5.67-.94c-3.41-1.42-6.1-3.06-9.79-2.82a12.57,12.57,0,0,1-3-.21m-5.14-11.27a52.7,52.7,0,0,1,8.54-6.27,20,20,0,0,1,11.74.91,70,70,0,0,0-14.89,5.4,18,18,0,0,0-5.39,0M372,730.72a69.15,69.15,0,0,0-5.07,6.19,11.65,11.65,0,0,0-1.32.19,22.93,22.93,0,0,1,6.39-6.38m11-2a60.31,60.31,0,0,0-9.09,9,20.56,20.56,0,0,0-3.34-.79,83.54,83.54,0,0,1,6.55-8.34,14.72,14.72,0,0,1,5.88.08M382,742a36.42,36.42,0,0,0-5.09-3,73.19,73.19,0,0,1,8.76-9.5,32.08,32.08,0,0,1,9.81,6.13c-4.83.63-9.34,3-13.48,6.41m-5.25,5a64.23,64.23,0,0,0-7.52,4.69A64.59,64.59,0,0,1,376,740.23a31.64,31.64,0,0,1,5.48,2.26,57.22,57.22,0,0,0-4.71,4.53m-11.27,15.5a63.51,63.51,0,0,1,2.28-7.3,63.72,63.72,0,0,1,6-4.78,101.84,101.84,0,0,0-8.31,12.08m-3.86-7.63a69.17,69.17,0,0,1,7.35-15.5,18.46,18.46,0,0,1,3.57.12,60.59,60.59,0,0,0-8.88,16.81c-.51.49-1,1-1.5,1.48q-.24-1.42-.54-2.91M360,748a63.21,63.21,0,0,1,3.19-6.92c.46-.24.92-.45,1.38-.64a68.55,68.55,0,0,0-4.41,8.11c0-.18-.1-.37-.16-.55m-27.28-17.4a32.59,32.59,0,0,0-7.43-1.74,67.3,67.3,0,0,0-11.21-7.35,25,25,0,0,1,9-.69,89.84,89.84,0,0,1,9.62,9.78M346.35,739a46.28,46.28,0,0,0-8.1-5.87,69.93,69.93,0,0,0-12.95-12c6.7,1.4,14.31,6.07,21.05,17.84m5.47,19.89c.4-1.49.83-2.89,1.3-4.18,0,.77-.05,1.53-.08,2.28-.31,1-.6,2.09-.87,3.11-.12-.39-.23-.81-.35-1.21m-1.71-5.22a71.23,71.23,0,0,0-6-12.44,65.59,65.59,0,0,1,7,7.76c.17.43.34.85.5,1.28-.54,1.12-1,2.25-1.51,3.4m-4.24,7.3c.45.55.9,1.12,1.32,1.7-.17.68-.34,1.33-.49,2-.22-1.17-.49-2.39-.83-3.66m-1.4-4.66a59.88,59.88,0,0,0-16.26-25,41,41,0,0,1,8.21,4,68.94,68.94,0,0,1,11.5,24.55c-1.05-1.19-2.19-2.38-3.45-3.57m-1.81,6.2a99.51,99.51,0,0,0-8.31-12.08,63.72,63.72,0,0,1,6,4.78,61.6,61.6,0,0,1,2.28,7.3M326.4,759.9a70,70,0,0,0-14.89-5.4,20,20,0,0,1,11.74-.91,52.21,52.21,0,0,1,8.53,6.27,17.93,17.93,0,0,0-5.38,0m-6.69,1.61a40.66,40.66,0,0,0-18.76,0,34.71,34.71,0,0,1,7.85-5.78,90.16,90.16,0,0,1,14.26,5.06,18,18,0,0,0-1.71.69c-.54,0-1.09,0-1.64,0M298.13,771a44,44,0,0,1,16.78-5.22c-.81.71-1.58,1.47-2.32,2.25-1.1.45-2.23,1-3.36,1.59-2.73.53-5.49.41-8.27,1a24.57,24.57,0,0,1-2.83.42m-9.72-3.18a66.5,66.5,0,0,1,8.79-2.62c-.7,1-1.42,2.07-2.12,3.21a38.78,38.78,0,0,1,2.46-3.27,51.78,51.78,0,0,1,11.19-1.22A55.25,55.25,0,0,0,295.88,771a11.66,11.66,0,0,1-5.93-2.23,15.33,15.33,0,0,0-1.54-.93M130.68,620.75c-.17,1.38-.33,2.76-.49,4.13-2.13-1.28-.69-2.73.49-4.13m-2.47,10.62a3.56,3.56,0,0,0-.51-3.54c.84-.36,1.66-.76,2.49-1.18,1.35,2.38.4,4.72-2,4.72m8,21.22c1.07,4.9,4.62,15.35-2.57,7.89-.92-1-4.15-3-3.72-4.42,1.46-5.1-1.57-6.94,3.79-8.78.15,2.44.7,4.21,2.5,5.31-.51-1.38-1-2.75-1.49-4.13,4.33-1.71,4.42,4.06,5,7.66-1.18,0-2.66-2.56-3.48-3.53m2.48-17.68c1.64,2.18,1.68,2.92,2,5.88-2.62,0-5.8-4.49-2-5.88m2,7.07v1.76c-.91-1.37-.91-2,0-1.76m-2,.59c.17.77.34,1.57.5,2.35-1.2-.7-1.41-1.4-.5-2.35m-8-1.18c.34,1.3.77,2.15.5,3.53-1.71-1.36-1.41-1.36-.5-3.53m0-9.43c2.39,4,8.74,7.91,6,12.38-.66-.8-1.33-1.58-2-2.36a8.17,8.17,0,0,1-1,3.54c-2.5-3,2.66-5.2-.5-7.67.1,2,.29,2.62-1,4.13-3.41-4.05-3.83-5.15-1.5-10m3.5-24.77c-.65,0-2.66-2.94-1.5-2.94.49,1,1,2,1.5,2.94m4,.59a24.26,24.26,0,0,0,3.92,8.13c1.76,2.25.47,5.48.07,8.39-.26,1.78-.17,10.61-2.5,10.61-1.81-1.73-2.64-3.33-5-4.13.65,1.76,1.32,3.53,2,5.3-1.76-1.57-6.74-4-5-7.07,1.13.53,1.29,1.32.5,2.36a3.19,3.19,0,0,1,2.5-.59c-1.73-3.89-4.58-10.08-2-14.15.16,2.35.34,4.72.49,7.07-.12-6.25.87-11.7,5-15.92m2-8.24a6.9,6.9,0,0,1-2,4.12c0-1.83.16-4.12,2-4.12m-1-7.08a6.38,6.38,0,0,1,1-3.54c0,1.82.49,2.67-1,3.54m1-6.48c-.85-1.15-.69-1.53.49-1.19-.15.4-.33.79-.49,1.19m-1.5,2.35c-.16.39-.33.78-.49,1.18-.87-1.14-.69-1.53.49-1.18m2.49-4.12-2-.59c.33-.59.66-1.19,1-1.78-1-.19-.57.29-1.5-.59l2-.59c.18,1.18.34,2.37.5,3.55m3,4.12c-.34,2.17-.67,4.32-1,6.48-2.34-1.85-.18-4,1-6.48m.49,13.57c-.93,0-1.94-.61-1.49,1.17-.66-.39-1.33-.79-2-1.17.84-1.19,1.68-2.36,2.49-3.55.34,1.19.67,2.36,1,3.55m0,2.35c.1,2.07-1.08,3.43-1.49,5.3,2.69.69.67,4,.49,5.9-2.37-2.27-3.41-5.21-4.48-8.48-1.28-3.93,3.83-2.72,5.48-2.72m0,21.21c-2.55-.74-2.17-2.88,0-4.71Zm0,1.78c4.72,4,5.18,4.16,6.77,10.7.73,3,1.58,6,2.39,9a16.74,16.74,0,0,1-.19-5.54c1.84,6,4.85,11.41,6,17.69-1.64,0-3.15-2.69-4.28-6q.47,2.08.81,4.2l-5-1.77c1,2.27,5.57,2.1,5.19,4.82-.76,5.46-4.38,8.81-7.18,12.87-1.51-1.21-2-4.52-2.43-7.66-.6-3.94-1.21-7.6-4-6.48a9.12,9.12,0,0,1,1.5,4.12c-4.43,0-3.34-10.29-3.5-13.56l2.5.58c-1.1-3.35-2.8-1.76-1.56-6.21,1.56-5.61.62-12.16.57-18h2c-.51,2.75-1,5.5-1.5,8.25,1.8-1.06,1.64-4.81,2-7.07m-3,40.09h3c1,1.95,2,3.92,3,5.89-2-2-4-3.94-6-5.89m3.5,14.74,2-.6c1.13,2.74-1.3,2.27-2,.6m-3-19.46c.49,1.37,1,2.75,1.48,4.13-2.52,0-4.25-2-1.48-4.13m12.14,18.08c-1.35-1.21-3.9-2.62-3.74-5.08.22-3.55,3.91-7.69,6.53-8.87.07.67,1.72,18-2.79,14m2.79,7.27c-1.8-1.16-2.19-1.54-2.48-3a13.44,13.44,0,0,1,2.48,3m-6-2.36c-2.89-3.42-4.95-5-1.49-8.26,1.57,3.34,2.72,4.61,1.49,8.26m7.48-21.23a12.21,12.21,0,0,1,.5,6.49c-.84-2-.8-4.28-1-6.49Zm-2-58.35a12.93,12.93,0,0,1,.49,2.35c-2.24,0-2.29-1.68-3-3.53,1.23-1.54,2.22-1.67,4-1.77a8.63,8.63,0,0,0,.5,3.53c-.67-.18-1.33-.38-2-.58m-4-1.77c.59-2.08-.13-2,1.49-3,0,2.15.47,2.19-1.49,3m0,17.69c-1.08-1.26-.49-4.73-.49-6.49a9.49,9.49,0,0,1,.49,6.49m-1.5.58c.18-.78.34-1.57.51-2.35,0,.89.46,2.35-.51,2.35m.51,1.78c0,2.06.59,2.35-1.51,2.35.34-1.56,0-2.35,1.51-2.35m.5,3.53c-.34.78-.67,1.57-1,2.36-.63-1.54-.59-2.36,1-2.36m0,2.95v1.76c-.92-1.37-.92-1.95,0-1.76m-5.48-23c.32,1,.66,2,1,3-1.91-.57-2.51-1.22-1-3m1,19.46c-1.2,0-3.43-2.36-1-2.36.32.78.66,1.57,1,2.36m.51-21.81c.44,1.85,1.65,3.74,0,4.7,0-1.86-1.14-3.19-2-4.7Zm-1.49-6.49c.5,1.77,1,3.54,1.49,5.31-2.63,0-3.06-3.47-1.49-5.31m3,11.79v1.77q-2-1.28,0-1.77m-2,14.15c.43-4,1.63-7.33,0-11.2h1.5c.6,2.24,2.37,13.48-1.5,11.2m-1.48-7.66c-2.68,0-.85-3,0-4.13,0,.14.28,1.71.38,3.22.13,2,0,4-1.56,2.33-.19-.86.2-1.33,1.18-1.42m.5-32.43c-1.27,1-.09.58-1.49,0Zm0,13.56c.56-1.46.23-2.05-1-1.77.51-1.37,1-2.75,1.51-4.12.36,2.42,1.1,3.92-.5,5.89m2.48-6.48c-2.94,0-1.39-6.45,0-7.66Zm-.49,8.84c.16-2,.33-3.93.49-5.9.34,1.6,2.11,5.9-.49,5.9m2.48-5.32h-1c.18-1,.34-1.95.51-2.93.16,1,.33,2,.49,2.93m0,9.45c-1.45-1.05-3.32-3.55-.49-3.55.16,1.19.33,2.37.49,3.55m0,6.48h1v2.36l-1-2.36m2.5-16.51c-.23-.53-3.06-2.35-1-2.35,1.52.89,2.55.52,1,2.35m6,6.48c-3.19,0-4.55-2.4-7.95,0,0-1.21-.47-6.48.5-6.48a43.53,43.53,0,0,0,4,3c-.05-1.45-.94-2.26.5-3,.5.78,1,1.58,1.49,2.37a2.49,2.49,0,0,0-1.27,1.42c.11.75,2.37.9,2.75,2.69m-5,11.8c1.79,7,8.18,11.61,6.91,19.95-.16,1-.67,1.43-1.49.94-.88,1,1.85,3.34,2.28,4.83,1.61,5.56-.64,11.93-1.73,17.31a73.55,73.55,0,0,1-5-18.27c4.2-.18,4-4.74,1-7.66a4,4,0,0,0,1,2.95c-1.58-.1-1.75,2-3.49,1.77.34,1.76.66,3.53,1,5.29-3.83-2.24-.43-7.41-1-10.11-1.37-7-.69-14.6-1-21.72,1.59,0,4.69,3.43,5.89.7.86-2-.15-4.83,1.07-6.59,0,6-.32,11.68.51,17.69-1.34-.8-1.24-2-1.49-3.54-1.53,2.63-3.75-2.46-4.48-3.54m9,14.74c1.46,3.28,1.42,10.23,0,13.56,0-4.6-1.75-8.89,0-13.56m-.49-6.48v2.95c-1.55-.94-.66-1.4,0-2.95m-1.49,34.18,2-5.89c.09,3.94.28,3.81-2,5.89m2.48,1.77-1,7.07c0-4.53-2.22-3.23,1-7.07m-2.48-40.67v-9.44c.87,2.78,1.58,7.07,0,9.44m2.48-5.31c-2,0-2-7.08-.5-8.25-.16,1.57-.33,3.15-.49,4.71.66-.38,1.33-.78,2-1.18-.33,1.58-.66,3.15-1,4.72m2,31.25c-.69-1.27-.9-.33-.5-1.78.17.6.33,1.19.5,1.78m-1.51,7.65c-.19-2.81-1.1-5.5,1.51-7.06,1,2,1.82,9-1.51,7.06m4.5,2.37c-.36,3.24.8,6,2,8.83-1.2,3-2.64,6.48-5.48,7.66,0-5.06-3.09-15.26,3.49-16.49m2.54,70.55c.38-2.28,2.46-2.61,3.93-3.35-1.55,2.46-1.67,5.16-1.87,8.11s2.3,4.45,2.86,7.22c-1.52.35-2.11,2-3.49,1.18.06-1.8.36-3.16-.49-4.72a4.4,4.4,0,0,1-1.49,2.36c.49-2,1-3.93,1.49-5.9-2,2.41-2.49.73-2.49,5.31-1.7-1.51-2-2.68-2-5.31-2.76,1.66.1,5.45,1.5,7.66-3.41-.32-5.12-1.69-7.47-4.71a16.11,16.11,0,0,1,4.49-2.36c-1-.47-.85-.31-1.5-1.17,2.68-.62,3-1.66,5-3.54.17,1.38.33,2.75.5,4.12,1.68-1,.79-3.28,1.05-4.9m-14,6.68c.2,2.75-.49,3.48-2.49,4.71a7.94,7.94,0,0,1-1-2.95,5.08,5.08,0,0,0,3.49-1.76m-3.49-2.36,2.5-.6c-1.21.87-1.2,1-2.5.6m2.5,17.67a3.33,3.33,0,0,1-2.5,1.78c.91-1.62.65-1.78,2.5-1.78m.49-7.64c.17.58.33,1.16.5,1.76a5.92,5.92,0,0,1-1.49-1.76Zm1,5.1c.7.69,1.79-1.87,2.44-2.17.56,1,3,3.36,3,4.13-2.57-.23-5,0-7-2.36.66-.54,1.16-.41,1.54.4m7.42-1c0,2-.66,2.36-2,1.18,0-1.85.66-1.18,2-1.18m-1-2.35,1.51-.6c-.11,2.15-.61,2.34-1.51.6m-2-5.9h1c.7.71.7,1.32,0,1.77a1.59,1.59,0,0,1-1-1.77m.51,3.53c-1.57,1.85-1.46.34-2-1.18.67.4,1.33.8,2,1.18m-5.48,18.27c-.47-5.33,2.9-7.65,7-7.65,1,2.25-5.15,8.73-7,7.65m.5-7.07c.81-2.83,3.61-2.1,6-2.35l-6,2.35m1,13.56c-1.57,0-2.6-1-2-2.94a5.71,5.71,0,0,1,2,2.94m3-28.29h-2.5c.45-.79.65-1.77,1.51-1.77.33.59.67,1.18,1,1.77m-2.5-4.72c0-1,.38-1.34,1-1.17l1,.58c-.67.21-1.34.4-2,.59m10,17.68c-2.84-1.44-4.73-2.07-2-5.3.66,1.77,1.34,3.54,2,5.3m-3-5.89c.16-.79.33-1.58.49-2.35,1.86,1.08.55,1.72-.49,2.35m8.46,6.49c-1.19,1.19-.56.68-3,.59l3-.59m-3.49-7.66c.33-.79.67-1.57,1-2.37,1.57.92.57,3.28-1,2.37m-1,6.48c0-2.35.37-2,2-3,.84,2-.63,2-2,3M187,706.82c-.32,5.44.13,18.5-5,21.22a28,28,0,0,0-4-9.43c4.13-1.36,4-10.06,9-11.79m-2.49-3.53v3.53c-1.35-.79-1-2.33,0-3.53m-5.58,50.61a6.84,6.84,0,0,0-1.39-1.09,2.78,2.78,0,0,1,1-1.18c.22.31.45.63.69,1a1.56,1.56,0,0,1-.18.21,1.35,1.35,0,0,0-.12,1.11m.69-18.68A5.38,5.38,0,0,1,179,728c1.66,4,3.21,9.2-1,11.21.07-.14,2.39-3.22,1.57-4m-.08,10.51c0,3,.82,2,3,3.54-3.22,3.85-6.95-4.49-1-4.14-1.48-1.74-1.56-2.08-3.48-1.76a10,10,0,0,1,3.48-4.12c.15,2.55.33,5.1.49,7.66a6.32,6.32,0,0,1-2.48-1.18m.54,8,.54.75.12.26c-.72.81-.87-.53-.87-1.09l.21.08M177.46,767s3.19-4,3.63-4.43c1.14,1.76-2.08,4.66-3.63,4.43m1.64,2.57c-.65,0-1.3.06-1.95.1.86-1,1-.87,1.95-.1m-3.55-1.21c-1.7-2.12.79-3.88,2.1-5.75,0,.53.06,1.06.11,1.59a7.12,7.12,0,0,1,1.28-2.75l1.48.15a2.9,2.9,0,0,1,.43.43c-1,1.08-1.95,2.17-2.93,3.24-.15-.45-.06-.62-.43-.9a7.5,7.5,0,0,1-2,4m-1-39.15c.28-1.88.41-7.06,2-7.06.09,2,.94,7.06-2,7.06m-1.31-47.16c1.86-5.86.41-10.68,0-16.7-.14-1.68-.71-5,.3-6.55.27-.44,4-2.9,3.9-3.27a3.19,3.19,0,0,0-1.84-.59c1.28-6.17,4.21-4.92,9-5.3-.83-.19-1.65-.4-2.49-.58,0-2.14,10.82-2.95,12.45-2.95,1.51,5.32,4.28,19.09-1.49,21.81.07-.21,1.62-3,1.67-3-1.5-1.09-5,1.78-6.64,1.78,1,2.42,4,2,5,5.43.79,2.7-3.71,7.43-5.07,9.07-3.15,3.8.69,21.45-2.41,21.45-1.5-3.21-1.85-5.15-5-5.89,0,2.27.61,2.94,2.49,2.94-1.91,3.29.68,7.48-1.79,10.79-.32.43-3.91,5.57-4.43,5.14-.08-.39-.16-.79-.26-1.19-4.06-8.58-6.27-23.09-3.3-32.43m19.74,23.59c0,2.47.68,3.28-1.49,4.13-1.59-1.89.15-2.53,1.49-4.13m-2-5.31c0-2.07-.59-2.34,1.5-2.34.17.57.34,1.16.5,1.75a2.83,2.83,0,0,1-2,.59m.51,14.15c-.33,1-.67,2-1,2.95a8,8,0,0,1-.91-2.78,2.71,2.71,0,0,1,1.9-.17M190,700.33v2.36q-2-1.17,0-2.36m-1-3.53c-.12-3.22-.25-6.46-.36-9.69-.18-4.67.63-4.16,4.34-5.64-2.53-4-.5-2.47,2-3.54l1,5.32c-1,0-1.8-1.56-2.48-2.37.46,1.64.45,3.13,1,4.72.51-.39,1-.79,1.49-1.18-.48,3.74-1.08,7.45-1.49,11.21-1.59.22-3.88,1.83-3.46-1.37.48-3.57,3.47-9.26.48-11.6.09,4.54.74,10.76-2.49,14.14m5.47,4.72c-.16,1.36-.33,2.74-.49,4.12-1.51-1.77-.49-2.18.49-4.12m.5-24.18c-2.45,0-1.14-2-.5-3.52.18,1.16.34,2.35.5,3.52m-.5-7.07c-.72-.77-.59-.66-1-1.77h1.49c-.16.58-.32,1.18-.5,1.77m1.49-20.63a17.25,17.25,0,0,0-.48-3.53h1c0,.92.56,3.53-.51,3.53m-28.16,24c-1.65-3.39,1.54-6.39,3.76-8.69.18,6.09.33,12.18.5,18.28-2.58,0-3.22-7.44-4.26-9.59M171,652v2.94c-1.5-.89-1-1.86,0-2.94m-1.5-1.78c0-.72,1.5-2.06,2-2.94,0,2.73.35,2.94-2,2.94m2.49,8.26c.31-4.57-.43-6.9,3.49-7.66-.4,1.14-3.31,7.66-3.49,7.66m.5-8.84c1.29-5.63,3.4-12.55,8.47-14.73-.83,2.94-1.65,5.88-2.49,8.83-1.45,5.16-1.42,5.3-6,5.9M182,630.78c-.65,2.26,0,1.22-1.49,2.36l1.49-2.36m.5-17.1v1.77c-.91-1.37-.91-2,0-1.77M180,620.75c.64,2.33,2.66,6.28,1.1,8.58-2.42,3.58-4.73,7.23-7.08,10.87,0-6.82,1.38-14.79,6-19.45m.49-1.16h1v3.53c-1,0-.86-2.57-1-3.53m-3-21.24c.51-1.77,1-3.54,1.5-5.3.63,1.89,1.38,5.3-1.5,5.3m5.48,2.94c-.5-1.37-.33-2,.5-1.75.82.58.67,1.17-.5,1.75m-.5,24.17c0-2.17-.37-4.31-.17-6.51.26-2.89,2.7-3,3.16-5.86-1,0-1.75,1.11-2.49,1.76,0-1.5,2.16-3.57,3-4.72a15.25,15.25,0,0,1-3.49-1.76,10.4,10.4,0,0,1-2.48,5.31c-.28-4.17-4.24-16.5,2.48-16.5-.57,2.35-1.29,6.24,2,5.59,2.6-.51,2.47,3.61,2.62,5.66.33,4.72.06,14.83-4.61,17m5.49-5.29c.32-1.58.66-3.15,1-4.72.2,2.72.33,2.75-1,4.72M183,632c0-3.49,4.06-8.84,7-8.84.7,5.54-3.39,6.54-7,8.84m8.47-4.13c1.13,5.66,2.09,11.36,3,17.09-5.7,0-10.92,2.87-16.42,4.14,1.29-4.44,2.17-11.43,4.68-15.09,2.16-3.13,5.88-4.26,8.76-6.14m3-3c.34,3.14.67,6.29,1,9.43-2.58-1.5-3.7-7.83-1-9.43M192,620.75c-2.23-1.3.24-2.34,1.49-3.53.52,2.51.47,2.37-1.49,3.53m2.48,1.19c-.83,1.46-.3.68-1.49,0Zm2-3.54c.49-.4,1-.78,1.48-1.18-2.79,3.31-1.21,2.33-3.48,1.18.46-1.09,2.79-4.06,0-2.95l3-3c-.44,1.7-1.78,4.08-1,5.9m2.49,0c-.18,1-.34,2-.5,3-1.43-1.71-.72-1.52.5-3m-1-2.36c.34-.59.67-1.19,1-1.77.49,1.57.17,2.16-1,1.77m7,5.9q-2.49,7.06-5,14.14c1.38-6.46-3.12-13,5-14.14m.51-1.77c-.85,1.46-.3.68-1.5,0Zm-5.49,21.22c0-3.82,2.13-11.35,5-13.56-1.25,4.51-1.92,10.14-5,13.56m.5,5.3,9,2.95c-.74,2.63-3.56,2.82-5,4.71,2.32,1.52-2.82,7.55-4,9.43a25.39,25.39,0,0,1-.5-5.3c1.53-.1,3.61-2.26,4.49-4.13-1.43,0-3.22,1.61-4.49,2.36-.14-3.26-.83-7,.5-10m-1-33c-3-2.64-1.35-2.82.5-5.9-.16,2-.33,3.93-.5,5.9m-1.5,26.52V624.3c-1.37.81-1.39,4.71-2.47,4.71,0-5-.52-5,3.48-5.89-1,5.32,1.91,12.34-1,17.08m-.48,12.39c0-3.46-.08-4.34,1-5.9.06,2.91,0,4.47-1,5.9m.48,15.91v1.77q-1.36-2.06,0-1.77m.51-7.08c-.09,1.24,0,6.5-1,6.5-.49-2.23-.6-4.7,1-6.5m-3-16.5c-.38-2.33-1.57-6.18,0-8.25.45,2.41,2.71,7.18,0,8.25m2.94,65.94c-1.23-1.54.64-10.15,2.17-8.22-.72,2.75-1.45,5.48-2.17,8.22M206,721.6c-.52,1-1.05,2.09-1.58,3.13a1,1,0,0,1,.19-1.24c-.25-.07-.49-.12-.74-.2.06,1.49-.35,3.84-2.2,3.81,1,1.77-2.58,4.19-3.53,5.4-.62.8-1.21,1.66-1.8,2.49l.17.23-.3.33a2.56,2.56,0,0,1,0-.33c-.68.95-1.34,1.9-2,2.89v0h0c-.56.86-1.14,1.72-1.69,2.59-.26-1,.71-3.17,1.69-2.59v0c-1.39-2.84,1.54-1.67,1.59-3.1-1.18,0-1.24-.53-.48-1.6a26,26,0,0,0,2.9-6.1c1.09-3.07,3.32-4.81,6.12-4.76a1.3,1.3,0,0,0,0-.13l.12.15a7.26,7.26,0,0,1,.92.07c-.08-.4,0-1.79.62-1m-13.54,24.95-.75-.2,1.51-.65a6.29,6.29,0,0,0-.18,1.23,4.76,4.76,0,0,1,1.07-.85c0,.9-.35.91.41,1.26.18-.79.46-.43.19-1.22.52-.3,1.17.46,1.63.59-.13-.66-.27-1.31-.39-2l5.11-1.22c.39,2.13.8,2.76-1.06,3.27-.39.1-1.24.82-1.61.68s-.64-1-1-.56c.41.74.49.61.25,1.43l-.57-.73c-.51,2.82-3.4,3.81-5.22,5.1a1,1,0,0,0-.11-1.25,14.52,14.52,0,0,0,4.4-2.48l-1.92-1a3.23,3.23,0,0,1-.06,1.77c-.68-.88-.09-.75-.85-1.1a1.89,1.89,0,0,1-.49,1.23,3,3,0,0,1,0-1.78l-1-.22a3.61,3.61,0,0,0,.64-1.39m1.24,8.9c-.05.8.24,1.32-.06,2.12l-1.15-1.11c.27-.27.79-1.55,1.21-1m7.43-12.83c-2.49.54-5,1.49-7.56,1.32,1.85-1.44,4.54-1.26,6.08-3.3l.71,1.27c.54-.6-.71-1.6.13-2,1.19-.63,2-2.26,3.42-2.24q0,1.73-.09,3.45c-.05,1.83-1.34,1.24-2.69,1.54m2.77.84c-.42,1.54-.41,2.34-1.72,2.94.05-2-.14-3.25,1.72-2.94m-2.58-9.12-.87-.75c.75-.84,1.29-1.54,2.42-1.31a12.55,12.55,0,0,1,0,4c-.44,1.87-2.06,1.65-3.07,2.76-.09-.35-.41-3.56.15-3.89-.29.14-.65.7-1,.32a5.05,5.05,0,0,0,1.09-1.54c.44.59.5.53,1.19.4m-1.79,5.06c-.86,1-5.33,1.89-5.52,2.41.39-1.06,3.8-6.06,4.7-4.92a2.4,2.4,0,0,0,.82,2.51m7.62-10.49a2.64,2.64,0,0,0-.66,2.45c.21-.59.43-1.17.64-1.75,1.71,1.09.22,2.81-.56,4-.35-.43-.1-1.71-.08-2.3-1,1.81-2.68,6.14-2.81,1.34,0-.61-.44-2.38.07-2.65,1.76-.93,1.37-2.59,3.4-1.14M210.28,741c-1.65,1.3-3.58.94-5.44,1.09-.13-.9.59-2,1.29-3.11.85-1.36,1.64-2.65.53-3.36a4,4,0,0,1-.65,1.74c-1.28-1.62,1.73-4.21,2.54-5.2.18.36.37.72.56,1.08.56-1.38-.35-1.54,1.18-2.37,1.93-1.06,3.36-3.3,4.86-5,.19.24.39.48.57.73l-2.58,1.84c.79.36,1.73-.79,2.42-1.32.31,2.91.42,3.1-.84,5.59-.58,1.14-1.1,2.32-1.65,3.47a5.6,5.6,0,0,1,1.39-1.67c-1,2.41-1.58,5.09-2.9,7.32-.48-.6-.22-1.94.32-3.31-.27.52-.55,1-.87,1.52-.32-.78-.65-1.56-1-2.35-.32,1,1.07,2.65.25,3.31m.4,5.92c1.32-1.47,3.1-5.55,5.32-3.51a6.86,6.86,0,0,0-1.73,3.3c-1.13.43-2.46.91-3.59.21m2.8,1-4.63,5.48c-.75-.95,1-3.33,1.26-4.34.41-1.59,2.13-1.29,3.37-1.14m-.41-6.39c.71-.33,1.4-.64,2.11-1-1,1.18-.91,1.21-2.11,1m-1.89,3.11c1.19-1.31.21-1.75,2.14-1.68-.71.56-1.42,1.13-2.14,1.68m-.32-15c-.77-1-.51-3.44,1-2.43a3.65,3.65,0,0,1-1,2.43m-5.27,6.88c-.22.58-.44,1.16-.65,1.74-.73-.92-.72-2.13.65-1.74m-.52,2.27c-.23.94-.45,1.87-.67,2.8-.07-1.3-.13-2.59-.19-3.89l.86,1.09m3.76,4.39c-.15.23-4.21,5.86-4.46,3-.07-.85-.45-2.19.25-2.85,1-.93,3.15-.79,4.21-.18m-.39-23.19c-.36.23-1.22,1-1.52.65.62-.68.84-1.51,1.52-.65m.91-.31c-.68,1-1.35,2-2,2.93-.16-1.14,1-2.87,2-2.93m.93,3.75c-.34,2,.46,5.49-1.5,5.78,0-.47,0-.95,0-1.42a2.3,2.3,0,0,1-1.22.66c.05-1.77,2.14-.52,1.86-2.41-.5.64-.59.88-1.36.84.07-2.43.23-2.89,2.18-3.45m1.25-1.72c-.24,1.18-1.12,1.51-1.81.63a1.3,1.3,0,0,0,.78-1.2c.34.2.68.38,1,.57m1.68-1.54-1.22,1c-.28-1.16.51-1,1.22-1m5.57-1a11.18,11.18,0,0,0-1,3.79c-.08,1.3-1.3,1.76-2.18,2.45-.53.43-2.82,3-3.5,2.17a7.73,7.73,0,0,0-.36-3c-.28.76-.55,1.52-.81,2.27-.1-1.1-.92-3.61.4-3.87.19.58,0,.85-.46.87a1.62,1.62,0,0,1,.87.73c.52-1.75,1.32-4.59,3.12-4.83-.57.75-1.13,1.5-1.7,2.24,1.6-1.86,3.31-3.07,5.61-2.79m-.16,5.65c-.78-1,.54-1.18,1.07-1.2a8.5,8.5,0,0,1-.73,1.08c-.49.63-1.05,1.13-1.06.11.18-.32.41-.32.72,0m1.36-.48.43.56c-.41.88-2.84,4.77-3.37,2.7,1.18-1,2.39-1.54,2.94-3.26m-4,2.32c-.54-1.15.13-1.62,1.24-1.36-.41.46-.82.91-1.24,1.36m5.56-6.15c-.51.64-1.22.6-1.82,1,.6,1.19-.86,1.43-1.41,1.91a8.92,8.92,0,0,1,.93-4.12c.66-1.6,1.83.62,2.3,1.22m.12.89c.2.25.38.49.58.73-.35.71-.5,1.7-1.23,1.37a4.27,4.27,0,0,0,.65-2.1m1.13-3c-.22.46-.42.92-.63,1.39-.28-.35-.41-.89-.75-.21-.08-.35-.18-.72-.27-1.08.56,0,1.1-.07,1.65-.1m.72,1.26c-.33.69-.64,1.39-1,2.09a1.26,1.26,0,0,1,1-2.09m.53,2.14L223.3,723c-.15-.83,0-2.24.78-1.21m-.21-3.18,1.51-.66c-.52.84-.7,1.55-1.68,1.52.55-.2.6-.49.17-.86m1.48.75c-.33.59-.94,2.48-1.69,1.53l1.69-1.53m.44,5.69a3.05,3.05,0,0,0-.78,1.21c-.15-.3-.29-.6-.44-.91a4,4,0,0,1-.46.87c-.65-.83-.22-1.33.06-2.13.75,0,1.07.33,1.62,1m-.19-9.39-2,1.52c-.19-1.4,1-1.23,2-1.52m.52,2.85c-.86-1.08,1.28-2.38,2-2.23l-2,2.23m1.4,3.6c-.07.4-.13.82-.18,1.23a.85.85,0,0,0-.76-.05c-.15.25.46,1.13.1,1.79-.94-1.18-.69-2.38-2.31-2.92.32-.35,1.56-2,1.84-1.7.15.78.17,1.56.38,2.31.37-.42.33-1,.93-.66m-.15,4.95c-.46.39-.92.78-1.37,1.18l.88.39-1.52,1c-.57-.72,1.29-2.77,2-2.57m-4.12,3.2,2.46-2.74c-.47,1.12-1.39,2.63-2.46,2.74m-.72-.91c-1.14.19-.45-2.1-.38-2.67-1.3,2.69-.66,6.36-3.21,8.31-.3.22-.58.17-.69-.27-.52,0-.33,1.65-.59,2.24-1,2.19-3.32,3.22-5,4.39A29.16,29.16,0,0,1,216,734.2c1.27,1.49,2.39.09,2.29-1.85a1.64,1.64,0,0,0-.48,1.22c-.43-.61-1-.07-1.47-.77-.37.65-.73,1.28-1.1,1.91-.51-2.06,1.81-2.31,2.37-3.29,1.43-2.52,3.62-4.49,5.38-6.67.47.58.47,2.71,1.53,2.35.76-.25,1.22-1.44,2-1.5a41.88,41.88,0,0,0-4.49,5.3c-.18-.71.18-1,.5-1.56m-5.18,8.82c1.2-1.34,1.82-3.22,3.54-3.93a7.3,7.3,0,0,1-3.54,3.93m-2,2.92c.68-.89,1.12-2,2.28-1.5-.21.94-1.83,3.29-2.28,1.5m3,4.19c-.42.17-3,1-3,1,1.28-1.22,1.67-2.16,3-1m5.75-2.61c-1,.56-2,1.11-3,1.65-1.77,1-1.8,1-3.27-.48,1.84-1.16,4.26-2.4,6.3-1.17m6.52,2-2.17,3.1c-.35-1.38,1-3.62,2.17-3.1m-5.17-2.15c.92-1,3.5-1.07,4.34,0-1.25,1.87-2.69.66-4.34,0m-.07,8c-1.64-2.1-3.92-3.16-5.84-4.82,1.53-.81,3.61-2.51,5.3-2.66,1.45-.12,2.81.93,4.15,1.44-1.15,2-2.37,4.06-3.61,6m2.15-12.29c-.43.91-.87,2.79-1.93,2.89-1.64.15-3.27.36-4.9.56,1.78-2,4.27-3.79,6.83-3.45m6.95-8.4c-.31.78-1,2.05-1.82,1l1.82-1M227,740.47c.58-.63,1-1.38,1.67-1.94.83-.75,1.56.11,2.44-.55-.27-.35-.79-.32-1.19-.39.4-.44,1.57-.26,2.11-.28a9.64,9.64,0,0,1-.55-1.8,3.07,3.07,0,0,1-2.12.64c1-1.32,3.11-6.34,5.05-3.87-.78.47-2,1.33-.89,2.35.89.79-.23,2-.72,2.59-1.14,1.49-3.86,4.33-5.8,3.25m5.34,1.63c-.5.93-.49.86-1.35.48-.31-1.2.67-.59,1.35-.48m0,.71c.42-.15,1.87-.16.78-.85l1.63.23c-.58.33-1.58.54-1.83,1.35l.75.21c-1.69-.07-1,.23-1.33-.94m-3,7.13c2.1-1.36,2.49-4.9,5.15-2.26-1.71.74-3.44,1.5-5.15,2.26m-1.39,1.54c1-1.11,3.58-2.52,5-2.1-1.55.85-3.22,2.23-5,2.1m-.26-1.07q2.07-2.31,4.17-4.61c-.62-.27-1.65.85-2,.45,1.31-1.44,1.15-1.63,2.55-.42-1.69,1.15-2.68,4.26-4.76,4.58m-2,.45c.5-.8,1.16-2.36,2.16-2.38-.5.86-1.09,3.08-2.16,2.38m-3.49,7.3a9.79,9.79,0,0,1,1.24-1.72,2.63,2.63,0,0,0,2.38.44c-.41-.52-1.34-.71-1.91-1,.81-1,1.58-2.33,2.77-2.72.6,1.38,1.21,2.75,1.82,4.14-.9.48-1.77-.5-2.68-.47.28,1.29-2.79,1.15-3.62,1.28m-1.95.1c.44-.82,1.05-1.57,2-1.52-.36.33-1.7,1.88-2,1.52M217,760.08c-.71-.91.19-1,.78-1.21-.25.41-.52.81-.78,1.21m-2.4.26c-1.16,1.36-2.6,3.4-4.42,3.19.8-1,1.62-2,2.43-2.94,1.17-1.43,1.27-1,2.73-.05.31-2.08.5-.89,1.51-.29l-1.11,1.9c-.29-.36-.11-1.11-.1-1.59-.3.64-.68,1.07-.94,1.73l.74.21-.26.21a9.23,9.23,0,0,0-1.73,1.23c-.16.16-.3.35-.46.51s-.62.48-.92.74c-.51-.51-1.6-.89-.65-1.66s3.44-1.42,3.18-3.19m-7,3.62c.41-1.48.82-2.18.11-3.54a1.14,1.14,0,0,0-.06,1.78c-1.42.24-1.76,2.41-3.33,2.46-.21,0-2.6.19-2.63-.14.07-.14.15-.28.23-.42,1.06-4,4.22-9,7.52-10.62,2.08-1,2.93-3,4.37-4.86.39-.54,1.09-1.7,1.8-1.79.19,0,1.92.62,2,.48a1.79,1.79,0,0,0-.38-.84c2-1.32,2.51.11,4,1.74l-.57-1.08c.56-.62,3.9,3.11,4.37,3.71-1,2.09-3.74,7.11-6.13,5.78a8.23,8.23,0,0,1,1.26-.25c-.15-.86-1.91-1.32-2.39-1.92-.33,1.07.63,2.06,0,3.41-.48,1.06-3,.79-3.84.76-1.92,0-5.42,6.48-6.32,5.34m-6.73,3.75a9.88,9.88,0,0,0,.4-1.87c1.56,1.12,3.81-1.45,5.68-.14-.44.42-1,1.06-1.7,1.72a23.83,23.83,0,0,0-4.38.29m-3.38-.08c.57-.44,2-1.9,2.43-1.32-.5.61-1.59,2.4-2.43,1.32m-4.08-4a6.52,6.52,0,0,1,1.92,1,1.4,1.4,0,0,1-.12-.89c.94.8,1.29.61,2.36.8l-.93,1.38c.74.34,1.09-.67,1.59-1,.7-.52,1.4.15,2,.47a5,5,0,0,0-2.67,1.67,2.61,2.61,0,0,0-.65,1.56l-1.44.36a2.3,2.3,0,0,0,.81-1.26,1.33,1.33,0,0,1-1.05.13c.66-.39,1.32-.76,2-1.16-1.22,0-.91-.7-2.11.63a2.52,2.52,0,0,1,.81-2.28c-1.23-.54-1.4,1.62-1.56,2.77a5.64,5.64,0,0,1-.94-4.1m1.06-6c.36.44.07,2.56.36,3.37.31-1.83,1-3.12,2.58-1.49a.71.71,0,0,1-.88-.39c-.16,1.07-.17,1.75-1,2.44,1.32,1,5.13-2.65,4.15-3.91-.17.19-.1.88-.19,1.24l-1.47-.77,1.05-.13c-1-1.23-.07-.85.21-1.94-1.16.2-1.58-1.09-2.06.69-.29,1.1-1.35,1.72-1.55.23a1.29,1.29,0,0,1-.92.66l1.09-1.89c-1.57-.92-.93-.89-1.72-2.55.52.66.81.24,1.17,1.1l.92-1c-.42-.53-1.58-.29-.71-1.27.15.3.29.61.43.91a3.59,3.59,0,0,1,1.54-1.71c-1.29-1.69,3.54-4,4.88-3.35,0,1,.89,1.62,1.15,2.51a10.4,10.4,0,0,1,.12,3.62,2.12,2.12,0,0,1,1.15-2c-1-1.19-.39-2.92-1.08-4.29,1.63-.84,3.28.66,4.93,0l-2.22-.61a27.9,27.9,0,0,1,4.59-3.72,7.61,7.61,0,0,1-2.37,4.33c1.11,1.15.24,2.85-.42,4.3a11.63,11.63,0,0,1-4.16,4.89,6.57,6.57,0,0,1-.44-2.66c0,.17,0,.34-.05.49-.17,2.51,0,4.4-2.27,4.55l1,.57c-.91,1.76-1.6,5.28-3.71,4.11.46-.17,1.23-.59,1.38-1.19-.35.15-.7.32-1.06.49a1.38,1.38,0,0,1,.5-1.58c-1.09.19-1.14,1.36-1.72,2.23-.28-.36.22-1.3.36-1.75-1.08,0-1.71,2.61-3,.94a1.93,1.93,0,0,0,.64-1.38c-1.1.86-1.74.59-2.38-1-.3-.75.91-2.48,1.14-3.14m-2,4c-.67.87-1.06.82-2,.45a3.55,3.55,0,0,1,.49-1.22,2.16,2.16,0,0,0,1.48.77M191,748.8c.41-.34.08-.32.6-.32l-1.08,1.19c-.33-.67-.57-.61-1.16-.76.35-.52.71-1,1.08-1.55.84.54.45.53.56,1.44m1.39,19.69c-.17.44-.32.88-.47,1.32l-.58.16c-.27-1-.26-1.53,1.05-1.48M189,764.82c.33.08.45.31.34.68s1,.12,1.27.26a12.9,12.9,0,0,1-.22,2.3c-.67-1-1.44-1.85-1.39-3.24m-.37-24.26c-.22.59-.43,1.17-.65,1.75-.82-1-2-2.82-1.23-4.12a8.18,8.18,0,0,0-.72.73,18.69,18.69,0,0,1,.15-2.09c1.64-10.73,6.67-20,9.6-30.14.27-.94.41-1.87.61-2.8.39,1.64,1.15,3.75,1.28,4.25a12.92,12.92,0,0,1-.78,8.55,42.64,42.64,0,0,0-3,10.36c-.55,3.91-1,8.11-3.45,11.11a8.19,8.19,0,0,1-1-1.63c-.3,1.36.27,2,.9,2.94.44.64-1.94,3.24-2.28,3.73-.22-.85.6-1.57.52-2.64m-2.67-.21a2.35,2.35,0,0,0,.32.48c1.4,1.46,1.16,2.53.59,4.67,0,.1-.12.35-.24.64a29.27,29.27,0,0,1-.67-5.79m-.94-7.6c0-3.73,1.49-6.17,3-9.42-.2,3.36-1,6.95-3,9.42m-1.4,29.32c-.39.6-.77,1.21-1.17,1.79a7.71,7.71,0,0,1-.84-2.16l1,.21a.94.94,0,0,1-.2-.2,2.57,2.57,0,0,1,1.17.36m-.11,6.42c-.53.66-4.55,2-4.49.18.76-.83,1.29-.33,2.1.09-.68-.87.06-.78.62-1,.35,1.2.84,1.2,1.77.77M180,770.31c.57-.63,1.89-.4,2.55-.08-.76.84-1.59.5-2.55.08m-6.49,1.92a10.21,10.21,0,0,1,3.54-.68,2.39,2.39,0,0,1,.09-.48c.12.17.25.33.38.48a14,14,0,0,1,3.17.53,25.35,25.35,0,0,1-5.15.2c-.68,0-1.35,0-2,0m-1-10.44a5.28,5.28,0,0,1,1.81-.47,6.53,6.53,0,0,1,.65.48A2.73,2.73,0,0,1,173.3,763c.31-.46.63-.91.93-1.36a8.32,8.32,0,0,1-1.22,1,4.16,4.16,0,0,0-.49-.81m-.11-4.35a1.07,1.07,0,0,1-.19-.13,1,1,0,0,1,1.3-.38c2,.58,3.33,1.84.5,2.94,0-1.62-.67-1.65-1.76-2.22a2.12,2.12,0,0,1,.15-.21m-2.88-8.77,1.5-1.17c.32.2,4.92,2.74,2.62,4-1.2.64-3.23-2.12-4.12-2.78m.54,3.67a.58.58,0,0,0-.66.21,3.09,3.09,0,0,1,.49.47c-.12.52-.25,1-.37,1.55A4,4,0,0,0,167,753.4c-.13,5.81-3.34,4.32-5.47,1.17,2.37-1.42,4.41-3.9,6.46-5.9-.49,1.19-1,2.36-1.48,3.55a7.28,7.28,0,0,0,4-1.78c-.16.63-.31,1.27-.46,1.9m0,8.13c-3.08,1.2-4.24-.79-6,1.76.9-3.58,3-2.63,5.48-3l.5,1.19m-4.1,7.08c-3.27-3.55-6.63-7.93-5.61-10.67-.08-.18-.17-.35-.26-.54l1-.59a2.84,2.84,0,0,0-.75,1.13c1.08,2.36,2.59,4.27,2.74,7.13,3.09-1.53,3.17.39,4.8,1.62.11.44.14.82,0,1l-.71-1.27a6.07,6.07,0,0,0-1.18,2.17m-9.65,1.36a33.23,33.23,0,0,1,3.28-1.95c-.66-.41-1.32-.79-2-1.19,2.63-1,5,3.08,7.12,5.64a44.62,44.62,0,0,1-8.42-2.5m-1.19-3.73,2.49-1.77c-.89,2-.75,2.38-2.49,1.77m-3.86,1.37a9.9,9.9,0,0,1,2.86-2.54,4.53,4.53,0,0,1-1.26,3.32c-.53-.27-1.07-.5-1.6-.78m1.87-27.3c-.67,1.58-1.15,1.72-1.49,0Zm-2-13.56c-.34-1.68-1-2.09.51-3l1.49,3Zm1,28.29-1,2.36c-.63-2.27-1.1-2.36,1-2.36m-.5,7.07h-2c0-.89-.47-2.35.49-2.35.78,1,1.51.8,1.51,2.35m-.51-25.35c-.49.59-1,1.18-1.49,1.79-.73-2.59-.26-1.79,1.49-1.79M149.61,731h1c.33,1.18.67,2.35,1,3.54-1,0-1.58-2.54-2-3.54m1-13.56c1.1,1.4,2.32,1.64,3,3.54l-3.5.58c.06-1-1-4.12.51-4.12m-2.45,47.87,1.45-.71c-2.34,0-1-1.4-.5-3,2.33,1.22,3.12.22,4-2.36.05,1.11-1.13,4.39-2.64,6.89-.38-.17-.75-.4-1.14-.55a7.16,7.16,0,0,0-1.16-.32m0-52.58c1.76,0,1.65-1.25,3.49-.59v-3.54c-1.47,0-3,2.75-3-.59l2,.59a11,11,0,0,1,0-5.9c-4.51-.1-.13-13.63,3-15.32,1.46,1.66,3.8.79,5.51,1.68,2.11,1.1,3.87,3.45,5.45,5.6a5.64,5.64,0,0,1-1-5.52c-3.41.21-4.88-3.91-8-4.71,1.4-4.69,6.22-5.62,8-10l-4.47,3.53c0-5.2,1.13-10.22,2-15.32,1.71,3.66,3.16,7.5,2.48,11.79,3.45-.4,4.52,4.13,5.55,7.78,1.77,6.37,1.33,10.39.43,16.38a11.45,11.45,0,0,1-4.58-3.39c.22.28.44.6.65.87,3.36,4.38,6.42,7,2.94,12l2.49-1.18c1.09,4.69,5.11,11.76,0,14.15.5-1.19,1.12-3.44.49-4.72-.33,1-.65,2-1,3C169,718,169,717.83,169,715.65c-1.49,2.53.15,4.51.49,7.09-1,0-1.56-2.53-2-3.53-1.81,2.12,1,7.65-3.49,7.65-.09-1.55,0-2.42-1-3.53-.53,3.64-1.93,4.49-5.25,3.26-1.58-.56-2.13-5.83-2.72-7.38,1.21,0,3.81,4,5.48,4.71-2.16-3.6-3-7,2-7.67a1.71,1.71,0,0,1-2,1.18c1.3,2.06,2.25,3.16,2,5.9,3.62-1.06,4.41-14.74,1-14.74,0,.64,1.12,1.62,1.5,2.35l-3.48,1.78c.49-.79,1-1.57,1.49-2.36-3.43.12-1.34-1.2-2.49-3.54-1.55,2.69-4.11,1.43-2.3,5.29,1.13,2.36.33,5.52-2.18,3.54a4,4,0,0,1-.51,3c-.32-1.77-.66-3.54-1-5.3-3.87,1.72-2.83.48-6.48-.59m-.51-3.54v2.35c-1-.6-1.62-2.35,0-2.35m-3-11.19c3.3,5.57.08,13.06-1,18.85-.24-1.23-.9-1.82-2-1.77,1.94-4,2.72-8.52,3.5-13-1.51.78-3,1.58-4.5,2.36,1.17,1,1.88,1.3,2.5,2.95-2.36,0-1.24-1-3,0,.86,1,.8,1.52,1,3-1.37-.62-1.71-1.6-2.49-3-.65.59-1.32,1.18-2,1.77a8.65,8.65,0,0,0-1-3.54l-1.48,1.18c.5-1.37,1-2.75,1.48-4.13a11.15,11.15,0,0,0,1.5,2.36,14.6,14.6,0,0,1,.5-3.53c1.22,1.53.74,2.16,2.49,1.17-.89-1.61.09-1.63-1.5-2.36.43-1.55,2.55-1.63,3.5-2.34-1.17-.8-2.34-1.58-3.5-2.36,2.17-4.13,4.31-8.26,6.49-12.38,3.72,2.63,5.3,2.8,3,7.42-.47.94-.79,3.84-1.61,4.38-.63.4-2.42-.25-2.42,1.16,1.73.35,1.65,0,2.49,1.78Zm-1,23c-.16,1.18-.33,2.36-.49,3.53,0-1.89-1.5-1.41-1.5-3l2-.58m-.49-1.76c-1-1.18-1.71-1.78,0-1.78.7.73.7,1.31,0,1.78m-1.5,15.91c0,2-.66,2.37-2,1.18,0-1.85.66-1.18,2-1.18m3,18.86a4.78,4.78,0,0,1-1.66-.4l.34-.62a7.48,7.48,0,0,0-2.29-4.22c-.08.2-.15.4-.22.6.18-1.43,1.58-3.61,2.83-3.61.07,2.78.73,5.49,1,8.25m-3.87,3.65,1.3-2.39c1.83,1.71,1.93,6.25,1.08,9.8-.23,0-.48,0-.71,0a8.42,8.42,0,0,1-1.33-.24c-.12-2.3-.25-5-.34-7.15m-5-.92a7.64,7.64,0,0,1,3.89,1.75v6a17.17,17.17,0,0,1-2.21-1c-1-2.44-1.88-4.92-1.68-6.75m.6-11.69a7.61,7.61,0,0,1-.25-2,2.48,2.48,0,0,1,1-.81c.17.79.33,1.57.5,2.36-.61.18-1,.37-1.3.47m-1.68-11.67,3.48-3c.17,3.19-.84,3-3.48,3m-.5-1.18c.29-1.87.19-2,1.48-3,.54,1.3,0,3-1.48,3m0-7.67c.41-1.13.26-1,1-1.76.51,1.57.17,2.17-1,1.76m-.51-13.56c2.14-.84,1.51-.05,3,1.19.19-1.4-.32-.68.5-1.77v4.12c-1.5-.37-1.81.2-3,1.17l-.51-4.71m0-11.79c.88-6.09,5.47-11.27,5-17.68l3,.6c0-2.07-3.46-1.12-2.76-3.54,1-3.47-.08-7.7,2.26-10.61,1.62,1.91,3.24,3.83,4.87,5.74,2.58,3.07-.36,4.74-2.09,8-3.24,6-5.86,12.58-10.25,17.52m-2-21.81c1.12,2.49,2.84,2.54,5,2.36,0,3.29-5.86,13.89-5.4,15.14-.92-2.49-2.68-17.5.42-17.5m0-15.92c2.12,1.9,4.51,3.63,5.92,6.38,2,3.91-.94,6.83-.94,10.72-.67-.39-5.86-4.95-5.4-6.62-.29.82,0,2.5-1.07,2.5a15.18,15.18,0,0,0-.5-4.71c1.57.06,1.58-.15,2.49-1.77l-2.49.58c0-2.92-.19-5.13,2-7.08m-2.48-13.55c.15-.78.32-1.58.49-2.35.17.77.33,1.57.5,2.35Zm-7.33,93.48c-.61,1.12-.77,1.6-1.69.79l1.69-.79m5,7.45c.19.15.81.69,1.53,1.31-.11.44-.23.9-.35,1.41-1-.72-1.61-1.75-1.18-2.72m-1.48,6.32c1,.24,1.46.14,1.63-1.12a4.53,4.53,0,0,0,.49.08,12.06,12.06,0,0,0-.16,1.53,4.28,4.28,0,0,1-2-.49M123.5,748c.47-.87,2.74-.55,1.76.47l1-.44a8.41,8.41,0,0,1-.51,2.29c-.76-.75-1.42-1.66-2.24-2.32m-4.12,8.89c1-1.49,2.31-2.19,3.7-.85a.65.65,0,0,1-.14.29,11.43,11.43,0,0,0-3.56.56m-.63-.33c.62-.93,1-2.28,2.09-2-.69.65-1.39,1.31-2.09,2m-.78-2.69c.24-.21,1.26-.07,1.21-.52a.49.49,0,0,1,.25-.74c.24,1.35-.38,2.34-.92,3.47-.23-.17-.37-1.73-.54-2.21m-27.84-1.26c.61.08,1.51,0,.94,1l-.94-1m-8.31-6.45c.38-.68,3.14-5,3.78-4.54-.13.39-.28.78-.4,1.18,1.21-1.91,1.51-3.43,3.67-2.53a2,2,0,0,0-.26.9c.09.13,1.7-.85,1.89-.87.72,0,1.57,1,2,1.4,1.68,1.59,2.8,3.31,5,3.9,3.49.93,7.33,5.23,9,8.93l.3.38c0,.32-2.38.63-2.58.67-1.57.27-2.22-1.8-3.64-1.75.43-.8.36-1.21-.32-1.73-.5,1.48,0,2.07.61,3.45-.72,1.31-5.11-4.41-7-4-.8.2-3.26,1-3.89,0-.79-1.2,0-2.37-.48-3.36-.37.7-2,1.5-2.08,2.38a9,9,0,0,1,1.28,0c-2.15,1.8-5.63-2.58-6.88-4.45m26.36,6.7a2,2,0,0,0,1.52.88c-1.91,1.59-3.09-1.73-4.24-3.29l.93-.78c-2.29.31-2.36-1.58-2.9-4,0-.15-.07-.32-.11-.48a6.83,6.83,0,0,1,0,2.72,10.69,10.69,0,0,1-4.81-4c-.85-1.28-2-2.79-1-4.14-1.44-.71-2.24-2.21-2.94-3.78a26,26,0,0,1,5,2.72c-.69.36-1.39.71-2.11,1.06,1.74.28,3.13-1.53,4.87-1-.48,1.48.41,3.07-.44,4.44.75.11,1.19.84,1.41,1.72a10.61,10.61,0,0,1-.4-3.6c.12-.93.93-1.71.77-2.71,1.23-.91,6.31.39,5.3,2.31a3.35,3.35,0,0,1,1.76,1.37c.1-.32.18-.64.29-1,1,.77-.18.78-.52,1.39l1.06.82c.23-.92.58-.57,1-1.33-.53,1.79.09,1.64-1.33,2.87l1.35,1.64a1.19,1.19,0,0,1-1-.47c0,1.5-1.11,1.11-1.57.09-.73-1.66-.94-.3-2.12-.27.45,1,1.32.46.48,1.88l1.06-.09c-.44.36-.89.7-1.35,1.06-.12-.33-.16-1-.35-1.18-.8,1.44,3.5,4.29,4.66,3-.88-.53-1-1.18-1.31-2.21a.76.76,0,0,1-.82.56c1.35-1.94,2.18-.8,2.76.95.18-.86-.42-2.89-.14-3.39.33.6,1.78,2.06,1.59,2.85-.41,1.68-1,2.08-2.21,1.46a1.92,1.92,0,0,0,.83,1.23c-1,1.9-2-.58-3.1-.31.2.4.83,1.24.59,1.65-.69-.74-.9-1.89-2-1.86.66.5.72.55.72,1.46-.38-.09-.74-.19-1.11-.26m5.58-6.45c-.42-.72-.21-1.29-.37-2.07.35-.63,1,.54,1.35.74-.33.45-.65.9-1,1.33m-8-19.34c.73-1.31,4.81,2.93,5.35,3.89-.27-.48-4.81-.49-5.8-1.25a2.48,2.48,0,0,0,.45-2.64m6.08,5.9c-2.51.7-5.09.26-7.64.23-1.37,0-2.55.82-2.87-1-.2-1.12-.41-2.24-.59-3.37,1.42-.31,2.44,1.13,3.7,1.52.89.26-.2,1.5.43,2,.16-.46.34-.93.51-1.39,1.81,1.7,4.42,1,6.46,2m-9-7.88c.7,0,.76,0,1.11-.64a4.6,4.6,0,0,0,1.3,1.3c-.24.44-.68,0-1-.12.6.21.76,3.43.72,3.8-1.17-.89-2.73-.35-3.43-2.1a12.26,12.26,0,0,1-.54-4c1.09-.45,1.72.14,2.58.81l-.75.92m-4.07,5.53c.83.93,1.71,1.89,1.72,2.82-1.86.22-3.7,1-5.52,0-.91-.47.22-2.36-.24-3.3-.22.84-.42,1.68-.62,2.51-.38-.42-.74-.87-1.08-1.32.73,1.24,1.17,2.5.79,3.19-1.61-1.93-2.55-4.46-3.91-6.62a5.33,5.33,0,0,1,1.62,1.36c-.71-1-1.41-2.07-2.15-3.08-1.59-2.19-1.5-2.41-1.63-5.33.76.38,1.85,1.31,2.59.8l-2.83-1.29c.17-.27.31-.55.47-.84,1.72,1.38,3.46,3.29,5.51,3.94,1.62.52.75.87,1.51,2.1.12-.38.26-.78.39-1.17,1,.81,4.29,2.76,3.25,4.61a3.78,3.78,0,0,1-.89-1.59c-1,.93,0,2,1,3.2m-6-8.29a3.4,3.4,0,0,1-1.31-2.21c1.31-1.27,1.91,1.12,1.31,2.21m-.88,17.56A6.31,6.31,0,0,0,89.67,737c1.9-2.47,4.24,1.19,5.76,2.37-1,.91-2.4.72-3.57.52m4.42,1.47c.41.94,2.49,2.94,1.89,4l-5.37-4.45c1.21-.4,2.85-1.05,3.48.43M90.05,734l2.23.53c-1.15.47-1.06.42-2.23-.53m4.55,3.21L92.23,736c1.9-.47,1,.17,2.37,1.22m6.26-2.64c.79.51.61,1.9.66,2.75.17,2.84-4.65-1.88-4.83-2.07,1-.83,3.06-1.4,4.17-.68m-.41-5.67c.13,1.29.25,2.58.38,3.89-.36-.88-.71-1.76-1.08-2.63.24-.43.47-.83.7-1.26m-.64.71-.89-1.6c1.3-.65,1.49.53.89,1.6m3.92,7.51c-1.38-.32-1.49-1.11-2.13-2.54,1.79-.69,1.78.54,2.13,2.54m-22.82,1.27c1.69-.21,4,1,5.62,1.54-1.67,2-3.76,3.53-5.07,5.94-1.5-1.71-3-3.43-4.42-5.23,1.23-.77,2.43-2.08,3.87-2.25M76,739a3.45,3.45,0,0,1,4.27-.88c-1.52,1-2.78,2.46-4.27.88m2.08,4.9-2.6-2.62c1.12-.76,2.75,1.19,2.6,2.62m7.44,7.56c.9-.25,1.62.37,2.18,1.09-.24.41-1.8-.85-2.18-1.09m-4.89-2.59c1.23.15,2.17,1.29,3.13,2.11-.53.37-1.42.74-1.76,1.35a2.76,2.76,0,0,0,2.29-.93,8.74,8.74,0,0,1,1.48,1.44c-.85.05-3.85.82-3.77-.51-.89.15-1.6,1.3-2.56,1,.39-1.48.79-3,1.19-4.45m-1.84-4.42c1-.18,1.86,1.22,2.47,1.91-1,.91-1.86-1.16-2.47-1.91m.49,1.86c-2.11.12-3.52-2.76-5.37-3.55,1.21-1.47,1.09-1.25,2.57-.09-.25.46-1.42-.45-2,0l4.79,3.69m-5.34,0c1.33-.68,4.07.18,5.22,1.06-1.74.49-3.58-.54-5.22-1.06m3.63-.17L72.14,745c2.24-3.13,3.13.27,5.4,1.19m-6.6-5.42-1.88-1.16c1.35-.07,1.78-.69,1.88,1.16m2.57-1c-.18,1.23.49.79-1.16,1.2l.69-.35c-.36-.75-1.37-.75-2-1l1.58-.57c-1,.92.45.63.88.68m1.29-.49c-.8.56-.79.62-1.41-.19.65-.25,1.54-1,1.41.19M71.44,728c-.67,1.21-1.52.09-1.94-.61l1.94.61m5,6.81c.7.43,1.26,1.08,1.92,1.58-1.74,1.45-4.84-.79-6.18-2-.58-.54-1.84-1.45-1.09-2.41,1-1.23-.38-1.84-1.22-2.15,1.57-2.82,4.35,1.71,5.53,2.79a2.93,2.93,0,0,1-2.17-.19,9.8,9.8,0,0,1-.27,1.88c.52-.09,1.65-.5,2.11-.15-.38.15-.89.23-1.12.63,1,.47,1.56-.53,2.49,0m8.31,1.45c-1.64.14-3.27.28-4.9.45-1.06.13-1.78-1.64-2.33-2.45,2.46-.85,5.18.41,7.23,2M88,737.79c-1.24,1.77-1.27,1.73-3.15,1.13l-3.24-1c1.84-1.62,4.41-.9,6.39-.13m2.77,1.84a23,23,0,0,1-3.11-.31c1.14-1.47,1.67-.62,3.11.31m-3.21-6.07c1.08-.72,1.67.27,2.47,1-.18,1.85-2.11-.13-2.47-1m-4-4.61c1.8.35,2.69,2.09,4.06,3.16A6.72,6.72,0,0,1,83.52,729m-6.79-7.36c.81-.1,1.43,1,2.23,1.08,1.09.13.79-2,1.16-2.64,2,1.8,4.49,3.29,6.27,5.49.68.85,3,.62,2.81,2.75-.45-.54-.92-1.09-1.37-1.64-.33.78-1,.36-1.33,1-.19-.6-.17-.73-.65-1.11.18,1.94,1.5,3.08,2.52,1.36a26.7,26.7,0,0,1,4.32,6.34c-1.86-.78-4.3-1.33-5.59-3.29-.34-.53-.4-2.21-.91-2.08,0,.46-.31.56-.64.4-2.79-1.4-2.68-5.16-4.36-7.54.15.56,1.16,2.67,0,2.7.38.47.77.71.71,1.46a37.83,37.83,0,0,0-5.19-4.33m7.66-2.43c.25-.39.49-.44.7-.16.13,1-.48.64-1.06.12a9.62,9.62,0,0,1-.87-.92c.52-.09,1.85-.16,1.23,1m2,2.41c-.21,2.16-3.16-1.2-3.7-2,.11-.21.23-.41.34-.63.78,1.58,2.06,1.84,3.36,2.6m-.54-2.21c1-.49,1.78-.15,1.41,1.09l-1.41-1.09m-5.4-2.1c.14-.28.3-.56.45-.83a4,4,0,0,0,1,1.93c-.69.46-1-.48-1.41-1.1m-.88,1.12c-.31-.35-.63-.69-.94-1,.66-1.19,1,.17.94,1M77,715.21l1.89,1.16c-.6,1.09-1.48-.65-1.89-1.16m1.85,4.42c.4.72.89,1.13.37,2.08a4.15,4.15,0,0,1-.59-.76c-.09.33-.19.65-.29,1a2.86,2.86,0,0,0-1-1c.45-.72.72-1.11,1.46-1.27m-1,3.69,2.83,2.19c-1.07.12-2.2-1.18-2.83-2.19m-.17.76-1.53-.89c.7-.34,2.82,1.31,2.36,2.13l-1.64-.67.81-.57m-1.38-5.26c.1-.79,0-1.56.05-2.35.22-.41,1.69,1,2.06,1.29-1.52.87-1.11,2-1.86,3.35-.45-.58,0-1.57-.17-1.79a.85.85,0,0,0-.72.21l-.36-1.17c.54-.46.58.11,1,.46m-.15-4.29-2.29-1.79c.68-.31,3,.55,2.29,1.79m2.28-1.83-2.17-1.09c1,.09,2.16-.33,2.17,1.09m.25,2.29c-1,.22-1.24-.45-1.88-1.17l1.58.34c-.37.45-.28.73.3.83M80,717l-1.23-1.86A1.2,1.2,0,0,1,80,717m.92-3.48c0,.37-.07.74-.1,1.11-.44-.6-.49,0-.71.35-.27-.41-.55-.82-.82-1.24l1.63-.22m3.49,4.2c-.6-.36-2.07-.29-1.65-1.58-.66-.27-1.34-.08-1.94-.61.39-.7,1.21-3.12,2.09-1.67a8.48,8.48,0,0,1,1.5,3.86m6.68-.2a1.69,1.69,0,0,1,.76-.91c-.5.09-.7-.16-.59-.76,1.34,0,.89,2.63.95,3.73l-1.12-2.06a7.64,7.64,0,0,0,.09,3c-.55,1-3.19-1.12-3.77-1.43-1-.5-2.24-.71-2.5-2a10.69,10.69,0,0,0-1.53-3.54c2.23-.75,4.09.11,5.94,1.61-.68-.61-1.34-1.24-2-1.85,1.81-.13,3,2.5,3.78,4.13m-.73-3.26c-.46-.24-.9-.5-1.35-.76.69-.15,1.46-.42,1.35.76m2.41.67c-.56,1-1.47.86-1.88-.26.32-.24.63-.5.94-.77a1.17,1.17,0,0,0,.94,1m2.41-.23-2.43-2.47c1-.14,2.42,1.32,2.43,2.47m.09-2c-.23.42-1.2-.19-1.58-.33.55-1,.88-.22,1.58.33m.47,7.84a2.44,2.44,0,0,1-1.3-.41c.09.46.17.92.25,1.38-2,.13-1.69-3.46-2.32-5.39,2,.16,2.24.59,2.65,3-.74.2-.87,0-1.47-.54,0,1.9,1.88.25,2.19,2m1.54,2.68a2.57,2.57,0,0,0-1-2.28c1.8-1.82,1.64-.12,3.51.44.54.17.39,2,.45,2.6.58,4.76-1.73.83-3-.76.1.58.53,1.79.25,2.3-1-1.08-2.67-2.46-1.14-3.88.29.53.59,1,.89,1.58m15.16,6.38c-.67-.74-1.37-1.47-2-2.21h0v0c-.79-.83-1.59-1.64-2.4-2.44a1.21,1.21,0,0,1,0,.34l-.34-.28a2.06,2.06,0,0,0,.12-.26c-.69-.69-1.39-1.42-2.12-2.08-1.11-1-5-2.67-4.26-4.61-1.83.41-2.57-1.82-2.72-3.3l-.71.35a.9.9,0,0,1,.37,1.18c-.68-.92-1.34-1.84-2-2.75.48-.88.79.46.76.89.31-.11.61-.19.9-.27a1.4,1.4,0,0,0,.1-.16,1,1,0,0,0,0,.13c2.76-.63,5.21.63,6.72,3.43a24.21,24.21,0,0,0,3.74,5.43c.9.9.92,1.4-.24,1.66.26,1.41,3-.35,2,2.74h0c.87-.76,2.16,1.18,2,2.21m-2.41,8.9a13.54,13.54,0,0,0,4.71,1.55,1,1,0,0,0,.07,1.26c-2-.91-5-1.29-5.9-4-.14.29-.3.56-.45.85-.35-.77-.26-.66.05-1.47-.43-.33-.65.59-.92.75s-1.29-.32-1.68-.34c-1.92-.12-1.6-.83-1.52-3l5.21.16c0,.67-.06,1.34-.1,2,.44-.22,1-1.1,1.52-.91-.16.83.08.43.36,1.17.7-.5.4-.45.22-1.31a3.66,3.66,0,0,1,1.18.6,5.39,5.39,0,0,0-.37-1.18L114,735l-.7.35a3.31,3.31,0,0,0,.83,1.24l-1,.43a2.93,2.93,0,0,1,.32,1.73c-.39-.42-.56-.5-.66-1.1-.71.5-.15.25-.69,1.25a3.2,3.2,0,0,1-.32-1.73l-1.75,1.33m6.62-1.44c-.56.26-.81.26-1,1l-1.24-1c.51-.1.18,0,.64.2,0-.92-.4-.83.35-1.53l1.29,1.31m-1.19,13.12a2.37,2.37,0,0,0,1.33-1.06,3.09,3.09,0,0,1,.66,1.11c-.84.55-1.22.67-2-.05m-4.31,6.29a4.66,4.66,0,0,0-2.87-1.09c.56-.45,1.15-1.25,1.91-.88.56.27,1,1.18,1.72.7L110.82,754c1-.41,1.41-.3,2.22-1.27a1.53,1.53,0,0,1,0,.9,7.26,7.26,0,0,1,1.74-1.33,5.73,5.73,0,0,1-.31,4.22c-.33-1.1-.81-3.18-2-2.4a2.31,2.31,0,0,1,1.14,2.08c-1.37-1.08-1-.49-2.18-.2l2.12.74a1.37,1.37,0,0,1-1,.09c.26.72.75.91,1.3,1.29-.08.77-.71.64-1.17,1.2-.69-.88-.53-2.25-1.49-2.89m-2.4-.13c.37-.66,2,.49,2.58.81-.68,1.23-2-.32-2.58-.81m-7,.83c1.67-1.67,4.24.4,5.61-1a11.58,11.58,0,0,0,1.89,3.84,3.58,3.58,0,0,0-1.07.39c-2.08.15-5-2.25-6.43-3.2M100,759.39c.79-.2,1.39-.77,1.58.33a1.31,1.31,0,0,1-.36.26l-.74-.17c-.13-.12-.28-.26-.48-.42m-3.35-1.7c-1.21-.71-2.47-1.33-3.7-2l.69-.35c-.34-.6-.79-1-1.18-1.52.09.47.37,1.17.14,1.59l-1.37-1.65c.9-.8.92-2,1.52,0,1.32-1.22,1.35-1.68,2.71-.52.93.81,1.88,1.61,2.82,2.4-1.76.58-3.48-1.14-4.83-2.24,0,1.8,2.42,1.88,3.61,2.51s0,1.16-.41,1.77" transform="translate(0 -404.17)"/></g></g></svg>