<svg xmlns="http://www.w3.org/2000/svg" width="261.897" height="283.216" viewBox="0 0 261.897 283.216"><defs><style>.a{fill:#fff;}</style></defs><g transform="translate(-11.799 -4.857)"><path class="a" d="M273.628,238.142c-8.416-14.962-38.027-41.768-59.534-55.171-.312-9.663-25.248-57.976-43.326-67.327,0,0-35.845-51.742-49.248-52.989C116.221,39.9,93.467-22.749,35.8,18.706c0,0-23.689-.623-24,1.247-.312,3.74,24.624,12.468,24.624,12.468s15.273,32.417,7.792,53.3c-7.169,19.637,7.169,72.314,78.86,96.626,0,0-46.131,38.651-41.768,61.4-8.728,13.4-14.65,24.312-12.468,24.936,3.74,1.558,5.3,20.572,5.3,19.325,0-7.169,6.546-21.2,15.273-36.78,3.117,3.117,11.845,5.611,15.273-8.1,0,0-4.675-1.247-5.922-4.675l-.935-1.87c7.792-13.091,16.208-26.183,23.066-36.157,2.805.935,9.974,1.87,12.156-1.87,3.429-5.922,3.74-10.6,1.87-14.65,7.792-1.247,17.143.312,28.988.935,21.2,11.533,43.949,20.884,43.949,20.884s30.546,28.053,37.4,28.053c7.169,0,12.468,7.481,14.65,8.728,3.117,1.87-2.805-6.546-.935-6.546s12.468,6.234,12.468,6.234l-5.3-7.481C265.524,235.025,274.563,239.7,273.628,238.142Z" transform="translate(0 0)"/></g></svg>