<svg xmlns="http://www.w3.org/2000/svg" width="181" height="181" viewBox="0 0 181 181"><defs><style>.a{fill:#005f7f;stroke:#fff;stroke-width:3px;}.b{fill:#fff;}.c{stroke:none;}.d{fill:none;}</style></defs><g transform="translate(-485 -3565)"><g class="a" transform="translate(485 3565)"><circle class="c" cx="90.5" cy="90.5" r="90.5"/><circle class="d" cx="90.5" cy="90.5" r="89"/></g><g transform="translate(524.6 3607.778)"><circle class="b" cx="12.399" cy="12.399" r="12.399" transform="translate(38.668 39.512)"/><path class="b" d="M88.6,14.378H42.69A8.3,8.3,0,0,0,34.312,6H25.934a8.3,8.3,0,0,0-8.378,8.378H13.2A12.371,12.371,0,0,0,.8,26.777V77.045a12.371,12.371,0,0,0,12.4,12.4H88.6a12.371,12.371,0,0,0,12.4-12.4V26.777A12.371,12.371,0,0,0,88.6,14.378ZM51.068,73.023A20.777,20.777,0,1,1,71.845,52.246,20.882,20.882,0,0,1,51.068,73.023ZM84.244,35.155a4.021,4.021,0,1,1,0-8.043,4.325,4.325,0,0,1,4.021,4.021C88.6,33.48,86.59,35.155,84.244,35.155Z" transform="translate(0 0)"/></g></g></svg>