<?xml version="1.0" encoding="utf-8"?>
<!-- Generator: Adobe Illustrator 25.0.1, SVG Export Plug-In . SVG Version: 6.00 Build 0)  -->
<svg version="1.1" id="Layer_1" xmlns="https://www.w3.org/2000/svg" xmlns:xlink="https://www.w3.org/1999/xlink" x="0px" y="0px"
	 viewBox="0 0 512 512" style="enable-background:new 0 0 512 512;" xml:space="preserve">
<style type="text/css">
	.st0{fill:#1877F2;}
	.st1{fill:#FFFFFF;}
</style>
<g id="XMLID_17_">
	<path id="XMLID_22_" class="st0" d="M510,257.7c0-140.3-113.7-254-254-254S2,117.4,2,257.7c0,126.8,92.9,231.9,214.3,250.9V331.1
		h-64.5v-73.4h64.5v-56c0-63.7,37.9-98.8,95.9-98.8c27.8,0,56.9,5,56.9,5v62.5h-32c-31.6,0-41.4,19.6-41.4,39.7v47.6h70.4
		l-11.3,73.4h-59.2v177.5C417.1,489.6,510,384.5,510,257.7z"/>
	<path id="XMLID_18_" class="st1" d="M354.9,331.1l11.3-73.4h-70.4v-47.6c0-20.1,9.8-39.7,41.4-39.7h32v-62.5c0,0-29.1-5-56.9-5
		c-58,0-95.9,35.2-95.9,98.8v56h-64.5v73.4h64.5v177.5c12.9,2,26.2,3.1,39.7,3.1c13.5,0,26.8-1.1,39.7-3.1V331.1H354.9z"/>
</g>
</svg>
