<?xml version="1.0" encoding="utf-8"?>
<!-- Generator: Adobe Illustrator 25.0.1, SVG Export Plug-In . SVG Version: 6.00 Build 0)  -->
<svg version="1.1" id="Layer_1" xmlns="https://www.w3.org/2000/svg" xmlns:xlink="https://www.w3.org/1999/xlink" x="0px" y="0px"
	 viewBox="0 0 512 512" style="enable-background:new 0 0 512 512;" xml:space="preserve">
<style type="text/css">
	.st0{fill:none;}
	.st1{fill:#34A853;}
	.st2{fill:#4285F4;}
	.st3{fill:#FBBC05;}
	.st4{fill:#EA4335;}
</style>
<g>
	<path class="st0" d="M142.1,256.5c0,9.6,1.6,19.2,3.2,28.7l30.3-28.7l-28.7-28.7C143.7,237.4,142.1,246.9,142.1,256.5z"/>
	<path class="st1" d="M255.4,369.8c-52.7,0-95.8-35.1-108.5-83L39.9,393.8C84.6,464,164.4,511.9,255.4,511.9
		c49.5,0,95.8-14.4,135.7-39.9L284.1,365.1C274.6,368.3,265,369.8,255.4,369.8z"/>
	<path class="st2" d="M510.8,221.4c-1.6-8-8-12.8-16-12.8H255.4c-9.6,0-16,6.4-16,16v79.8c0,9.6,6.4,16,16,16H340
		c-14.4,22.3-35.1,36.7-55.9,44.7L391.1,472c71.8-44.7,119.7-124.5,119.7-215.5c0-4.8,0-8,0-11.2C512.4,239,512.4,231,510.8,221.4z"
		/>
	<path class="st3" d="M142.1,256.5c0-9.6,1.6-19.2,3.2-28.7L39.9,120.8C14.4,160.7,0,207,0,256.5s14.4,95.8,39.9,135.7l106.9-106.9
		C143.7,275.7,142.1,266.1,142.1,256.5z"/>
	<path class="st4" d="M454.9,96.9c-17.6-22.3-39.9-41.5-63.9-57.5C351.2,15.5,304.9,1.1,255.4,1.1c-91,0-170.8,47.9-215.5,119.7
		l106.9,106.9c12.8-47.9,57.5-83,108.5-83c9.6,0,19.2,1.6,28.7,4.8c14.4,4.8,27.1,12.8,41.5,23.9c4.8,4.8,11.2,4.8,17.6,1.6
		l106.9-52.7c4.8-1.6,8-6.4,8-11.2C459.7,106.5,458.1,101.7,454.9,96.9z"/>
</g>
</svg>
